<?xml version="1.0" encoding="UTF-8"?>
<svg version="1.1" xmlns="http://www.w3.org/2000/svg" width="512" height="512">
<path d="M0 0 C9.9 0 19.8 0 30 0 C30 138.6 30 277.2 30 420 C40.56 420 51.12 420 62 420 C62 350.7 62 281.4 62 210 C91.7 210 121.4 210 152 210 C152 279.3 152 348.6 152 420 C161.9 420 171.8 420 182 420 C182 321 182 222 182 120 C211.7 120 241.4 120 272 120 C272 219 272 318 272 420 C281.9 420 291.8 420 302 420 C302 321 302 222 302 120 C331.7 120 361.4 120 392 120 C392 219 392 318 392 420 C401.9 420 411.8 420 422 420 C422 350.7 422 281.4 422 210 C451.7 210 481.4 210 512 210 C512 289.2 512 368.4 512 450 C343.04 450 174.08 450 0 450 C0 301.5 0 153 0 0 Z " fill="#596C76" transform="translate(0,31)"/>
<path d="M0 0 C29.7 0 59.4 0 90 0 C90 99 90 198 90 300 C60.3 300 30.6 300 0 300 C0 201 0 102 0 0 Z " fill="#FFBE40" transform="translate(302,151)"/>
<path d="M0 0 C29.7 0 59.4 0 90 0 C90 99 90 198 90 300 C60.3 300 30.6 300 0 300 C0 201 0 102 0 0 Z " fill="#FFDF40" transform="translate(182,151)"/>
<path d="M0 0 C29.7 0 59.4 0 90 0 C90 69.3 90 138.6 90 210 C60.3 210 30.6 210 0 210 C0 140.7 0 71.4 0 0 Z " fill="#FFBE40" transform="translate(422,241)"/>
<path d="M0 0 C29.7 0 59.4 0 90 0 C90 69.3 90 138.6 90 210 C60.3 210 30.6 210 0 210 C0 140.7 0 71.4 0 0 Z " fill="#FFDF40" transform="translate(62,241)"/>
<path d="M0 0 C1.12817642 0.00373123 1.12817642 0.00373123 2.27914429 0.00753784 C13.17951703 0.06332276 23.70483623 0.27231697 34.25 3.3125 C35.06678223 3.54356445 35.88356445 3.77462891 36.72509766 4.01269531 C69.41499034 13.52009048 95.49509739 34.70083475 116.25 61.3125 C117.45462891 62.82650391 117.45462891 62.82650391 118.68359375 64.37109375 C124.30221684 71.44478527 129.78320163 78.62113325 135.25 85.8125 C137.91482566 89.31390618 140.58129052 92.81405305 143.25 96.3125 C143.78189941 97.01004395 144.31379883 97.70758789 144.86181641 98.42626953 C151.26275328 106.79149258 157.99891854 114.67255929 165.25 122.3125 C166.13558594 123.29476562 166.13558594 123.29476562 167.0390625 124.296875 C181.10249499 139.39947738 201.65610029 148.18478468 222.0546875 149.13671875 C224.25 149.3125 224.25 149.3125 225.25 150.3125 C225.33783542 152.53105264 225.35694609 154.75238496 225.34765625 156.97265625 C225.34553383 157.96935585 225.34553383 157.96935585 225.34336853 158.9861908 C225.33775518 161.11583899 225.32520054 163.24538339 225.3125 165.375 C225.30748671 166.81575369 225.30292351 168.25650903 225.29882812 169.69726562 C225.28778145 173.23571102 225.27050792 176.77409539 225.25 180.3125 C196.62443398 181.44894404 171.66291975 171.10753928 150.25 152.3125 C149.44820313 151.631875 148.64640625 150.95125 147.8203125 150.25 C142.81910919 145.93919849 138.49470918 141.35621326 134.25 136.3125 C133.35849537 135.29276058 132.46511376 134.27466042 131.5703125 133.2578125 C124.61704174 125.31894813 118.21422788 117.07829646 111.94384766 108.59472656 C102.74215756 96.19671575 93.43965202 83.91828577 83.25 72.3125 C82.48429687 71.42433594 81.71859375 70.53617187 80.9296875 69.62109375 C61.30630224 47.22855482 37.08373095 34.06764922 7.375 31.4375 C-23.50864096 30.21074167 -49.36171828 40.31715707 -72.1875 60.9375 C-84.75134949 72.63262235 -94.89818385 86.27399102 -105.06201172 100.03710938 C-108.88253124 105.1871299 -112.81775063 110.24755686 -116.75 115.3125 C-117.6394954 116.47252401 -118.5288122 117.63268499 -119.41796875 118.79296875 C-126.94760318 128.562836 -135.01516048 137.59172625 -143.75 146.3125 C-144.39839844 147.00730469 -145.04679687 147.70210937 -145.71484375 148.41796875 C-161.74833536 165.34044604 -187.08149504 179.53414724 -210.77539062 180.38525391 C-215.43638982 180.47076738 -220.08902828 180.39975005 -224.75 180.3125 C-224.77465622 176.05835377 -224.79283899 171.80424502 -224.80493164 167.55004883 C-224.80997101 166.10179927 -224.81680253 164.65355483 -224.82543945 163.20532227 C-224.83752247 161.12775412 -224.84323211 159.05025303 -224.84765625 156.97265625 C-224.85289307 155.72105713 -224.85812988 154.46945801 -224.86352539 153.17993164 C-224.75 150.3125 -224.75 150.3125 -223.75 149.3125 C-221.96163167 149.11709633 -220.17240106 148.92763005 -218.38037109 148.76928711 C-195.87087084 146.70546954 -179.52767839 136.95759285 -163.75 121.3125 C-163.09773438 120.70921875 -162.44546875 120.1059375 -161.7734375 119.484375 C-156.30639753 114.35416688 -151.88642843 108.28007004 -147.32714844 102.35595703 C-145.67748293 100.21854212 -144.01599215 98.09077862 -142.3515625 95.96484375 C-136.67160649 88.70282834 -131.05393041 81.4057093 -125.5625 74 C-120.24163535 66.84690105 -114.61697701 60.02268853 -108.75 53.3125 C-107.99074219 52.44109375 -107.23148437 51.5696875 -106.44921875 50.671875 C-87.30942381 29.05036597 -66.11249257 13.03759358 -38.1875 4.5625 C-37.53990723 4.36366211 -36.89231445 4.16482422 -36.22509766 3.95996094 C-24.31291738 0.53296804 -12.31046866 -0.06509159 0 0 Z " fill="#F25B3B" transform="translate(286.75,30.6875)"/>
<path d="M0 0 C0.02465622 4.25414623 0.04283899 8.50825498 0.05493164 12.76245117 C0.05997101 14.21070073 0.06680253 15.65894517 0.07543945 17.10717773 C0.08752247 19.18474588 0.09323211 21.26224697 0.09765625 23.33984375 C0.10289307 24.59144287 0.10812988 25.84304199 0.11352539 27.13256836 C0 30 0 30 -1 31 C-3.11035344 31.19571826 -5.22146053 31.38530109 -7.33496094 31.54345703 C-40.47037579 34.11148204 -65.64282617 51.0332407 -86.97753906 75.86523438 C-93.43066562 83.55324238 -99.35169219 91.65357706 -105.31201172 99.72460938 C-109.13253124 104.8746299 -113.06775063 109.93505686 -117 115 C-117.8894954 116.16002401 -118.7788122 117.32018499 -119.66796875 118.48046875 C-127.19760318 128.250336 -135.26516048 137.27922625 -144 146 C-144.64839844 146.69480469 -145.29679687 147.38960937 -145.96484375 148.10546875 C-161.99833536 165.02794604 -187.33149504 179.22164724 -211.02539062 180.07275391 C-215.68638982 180.15826738 -220.33902828 180.08725005 -225 180 C-225.02465622 175.74585377 -225.04283899 171.49174502 -225.05493164 167.23754883 C-225.05997101 165.78929927 -225.06680253 164.34105483 -225.07543945 162.89282227 C-225.08752247 160.81525412 -225.09323211 158.73775303 -225.09765625 156.66015625 C-225.10289307 155.40855713 -225.10812988 154.15695801 -225.11352539 152.86743164 C-225 150 -225 150 -224 149 C-222.21163167 148.80459633 -220.42240106 148.61513005 -218.63037109 148.45678711 C-196.12087084 146.39296954 -179.77767839 136.64509285 -164 121 C-163.34773438 120.39671875 -162.69546875 119.7934375 -162.0234375 119.171875 C-156.55639753 114.04166688 -152.13642843 107.96757004 -147.57714844 102.04345703 C-145.92748293 99.90604212 -144.26599215 97.77827862 -142.6015625 95.65234375 C-136.92160649 88.39032834 -131.30393041 81.0932093 -125.8125 73.6875 C-120.49163535 66.53440105 -114.86697701 59.71018853 -109 53 C-108.24074219 52.12859375 -107.48148437 51.2571875 -106.69921875 50.359375 C-78.37351297 18.36088677 -43.48796466 -0.93746511 0 0 Z " fill="#FF903F" transform="translate(287,31)"/>
<path d="M0 0 C74.25 0 148.5 0 225 0 C225 9.9 225 19.8 225 30 C150.75 30 76.5 30 0 30 C0 20.1 0 10.2 0 0 Z " fill="#3B4A51" transform="translate(287,451)"/>
</svg>
