<?xml version="1.0" encoding="UTF-8"?>
<svg version="1.1" xmlns="http://www.w3.org/2000/svg" width="512" height="512">
<path d="M0 0 C1.88280437 -0.00668677 1.88280437 -0.00668677 3.80364519 -0.01350862 C5.19918733 -0.01341932 6.59472946 -0.01322947 7.99027157 -0.01294994 C9.47081328 -0.0162495 10.9513541 -0.01997526 12.43189377 -0.02409142 C16.50618755 -0.03410923 20.58046661 -0.03782787 24.65477097 -0.04048073 C29.04691483 -0.04438446 33.43904702 -0.05396279 37.83118343 -0.0626936 C48.44145018 -0.08245658 59.05171787 -0.09252423 69.66199842 -0.10142139 C74.65899604 -0.10580476 79.6559926 -0.11117146 84.65298939 -0.11641026 C101.26511986 -0.13342274 117.87724967 -0.14791665 134.48938751 -0.155159 C138.80038676 -0.15706888 143.11138599 -0.15898922 147.42238522 -0.16094494 C148.49385911 -0.16142868 149.56533301 -0.16191242 150.66927581 -0.16241082 C168.02424685 -0.17071011 185.37914893 -0.19604524 202.73408986 -0.22852562 C220.55343654 -0.26160314 238.37274819 -0.27960841 256.19212574 -0.28280324 C266.19645394 -0.28496774 276.20068162 -0.29370768 286.2049799 -0.31926441 C294.72566813 -0.34098089 303.24623141 -0.34901717 311.76694418 -0.33929763 C316.11262923 -0.33475562 320.45805653 -0.33663332 324.80370617 -0.35605907 C328.78699595 -0.37371083 332.76984032 -0.37267694 336.75313496 -0.35716178 C338.18927702 -0.35478874 339.62545009 -0.35909348 341.06154484 -0.37099043 C354.84875097 -0.47807382 365.77191903 2.7262384 376.07643795 12.09906483 C383.73081674 20.01097412 388.01805741 30.12062272 388.06446934 41.11141109 C388.07578134 42.95856486 388.07578134 42.95856486 388.08732188 44.84303486 C388.09068731 46.21175398 388.09394215 47.58047338 388.09709835 48.949193 C388.10397755 50.40157476 388.11126633 51.85395463 388.11893022 53.30633247 C388.13866793 57.30273481 388.15204934 61.299137 388.16427875 65.29556847 C388.17555127 68.72210974 388.19048201 72.14863127 388.20540185 75.57515831 C388.34634434 108.05690015 388.41180472 140.53908901 388.46472263 173.02107906 C388.47173152 177.24889744 388.47885851 181.4767156 388.48610592 185.70453358 C388.48790121 186.75533548 388.4896965 187.80613739 388.4915462 188.88878177 C388.52161373 205.9115259 388.58638346 222.93396146 388.66479237 239.95654418 C388.74462834 257.43348451 388.79040518 274.910265 388.80374849 292.3873843 C388.81215584 302.20017292 388.83590449 312.01241432 388.89841747 321.82502079 C388.95162782 330.18189924 388.97437205 338.53815345 388.95730729 346.89519639 C388.94956156 351.15814284 388.95634116 355.41974727 389.00258923 359.6824789 C389.04464105 363.58920339 389.0447355 367.49365358 389.01215903 371.40044783 C389.00767856 372.80968673 389.01827834 374.21907606 389.04590912 375.62805118 C389.18409786 383.12597595 388.73503034 388.01426787 383.64000988 393.74554729 C382.09004461 395.23448929 380.5152806 396.6980654 378.9162817 398.13422108 C377.35207654 399.72496324 375.79486812 401.3226436 374.24761105 402.92987537 C372.57474849 404.6085805 370.89923752 406.28464947 369.22145748 407.95843983 C367.83683064 409.34569515 367.83683064 409.34569515 366.42423153 410.76097584 C363.9248884 413.2648228 361.42245963 415.76556317 358.91926718 418.2655611 C356.28866053 420.89361259 353.66052094 423.5241295 351.03197384 426.15424061 C346.6276904 430.56033435 342.22132241 434.96433511 337.81374264 439.36713123 C332.72039302 444.4550167 327.6306876 449.54652641 322.54281342 454.63988686 C318.16059722 459.02663852 313.7764387 463.41144184 309.39064491 467.7946167 C306.77672591 470.40697835 304.16348351 473.02000719 301.55199718 475.63480091 C298.64909897 478.54112018 295.74213803 481.44334207 292.83473873 484.34515858 C291.9713438 485.21057774 291.10794888 486.07599689 290.21839046 486.96764088 C289.03269718 488.14910442 289.03269718 488.14910442 287.8230505 489.35443592 C287.13694258 490.04016682 286.45083466 490.72589771 285.74393559 491.43240833 C282.42405141 494.52370546 280.39807713 495.38582092 275.95754147 495.40887928 C274.94962048 495.41841129 273.94169949 495.42794331 272.90323544 495.43776417 C271.81570477 495.43685276 270.7281741 495.43594135 269.60768795 495.43500233 C268.4894212 495.43928745 267.37115444 495.44357258 266.21900082 495.44798756 C263.85272048 495.45373368 261.48642247 495.45422905 259.12013912 495.44989491 C255.49654194 495.44673656 251.87376217 495.47018596 248.25026608 495.4955492 C245.95274107 495.49782228 243.65521386 495.49852565 241.35768795 495.49750233 C240.27218151 495.50671207 239.18667507 495.51592182 238.0682745 495.52541065 C237.05720135 495.51918186 236.0461282 495.51295307 235.00441647 495.50653553 C233.67229877 495.50747967 233.67229877 495.50747967 232.31326962 495.50844288 C229.33727712 495.0438259 228.01666675 494.28847205 225.9162817 492.13422108 C225.5862817 490.48422108 225.2562817 488.83422108 224.9162817 487.13422108 C216.3362817 487.13422108 207.7562817 487.13422108 198.9162817 487.13422108 C198.5862817 489.11422108 198.2562817 491.09422108 197.9162817 493.13422108 C193.24631048 501.61641369 187.11992456 507.56197892 178.19362545 511.26312733 C169.50760878 513.57180637 157.73433861 513.85290628 149.76393795 509.36859608 C149.15421139 508.96125233 148.54448483 508.55390858 147.9162817 508.13422108 C147.31686764 507.76812733 146.71745358 507.40203358 146.09987545 507.02484608 C142.60964503 504.66402216 139.91508608 502.22451733 137.47606564 498.79201221 C132.5755583 492.33264869 127.87036872 488.0769301 119.66756344 486.75516224 C112.58048917 486.06001647 105.48409834 485.99021807 98.36903143 486.01880336 C95.49126466 486.02168657 92.6148286 485.97974149 89.73741806 485.93789417 C82.93860062 485.83922153 76.14199758 485.80951538 69.34255123 485.82684803 C62.37214812 485.8436584 55.40883249 485.75570916 48.43999588 485.61376637 C42.41479522 485.49411216 36.39104006 485.43444644 30.364663 485.42254192 C26.7836535 485.41527861 23.20604444 485.38823963 19.62591076 485.30555248 C1.8537209 484.58083281 1.8537209 484.58083281 -13.49061108 492.32940102 C-15.9988386 494.85157702 -18.28170674 497.4858261 -20.49747944 500.26657009 C-25.93556464 506.66941737 -32.54376547 511.371172 -41.03391361 512.36176014 C-52.98842724 513.23728647 -61.95423721 511.83139016 -71.3962183 504.00922108 C-77.70794655 498.00513996 -81.64377113 490.79583628 -82.32199955 482.06781483 C-82.5419384 471.70753764 -81.40205357 463.5790645 -74.4587183 455.57172108 C-73.22206856 454.29186061 -71.9825926 453.01442089 -70.71994877 451.76019764 C-68.72116252 449.77393735 -66.74946207 447.76196856 -64.77512455 445.75140858 C-52.3327698 433.15349225 -52.3327698 433.15349225 -47.21262455 428.77093983 C-46.60830097 428.23290226 -46.00397739 427.69486469 -45.38134098 427.14052296 C-43.73917174 425.70656809 -42.05109707 424.32451353 -40.33550358 422.97926807 C-34.49803726 417.96026355 -31.16576602 414.0968443 -30.53342533 406.11859608 C-30.36667029 403.03761836 -30.33950233 399.96918288 -30.3415308 396.88422108 C-30.31371295 395.21906642 -30.28387699 393.55394441 -30.25214481 391.88885975 C-30.20006925 388.40837655 -30.19132013 384.93092764 -30.21018314 381.45013905 C-30.22446783 377.91557128 -30.16938394 374.39369957 -30.04612064 370.86127186 C-28.65323077 347.82086637 -28.65323077 347.82086637 -38.62470341 328.02167225 C-41.82865182 325.05246827 -45.12506523 322.37270102 -48.68941593 319.84886646 C-55.61052673 314.89241198 -61.70544403 308.76823973 -67.7712183 302.82172108 C-68.87046635 301.77854725 -68.87046635 301.77854725 -69.99192142 300.7142992 C-77.90318801 292.93143911 -82.15998001 284.699788 -82.3962183 273.57172108 C-82.25937538 262.56726977 -79.1979287 255.19024149 -71.49387455 247.29828358 C-64.28972531 240.82972818 -56.73321599 238.55824889 -47.0837183 238.13422108 C-41.2862911 238.62342463 -36.4903923 239.97155148 -31.0837183 242.13422108 C-31.0837183 232.89422108 -31.0837183 223.65422108 -31.0837183 214.13422108 C-34.0537183 213.14422108 -34.0537183 213.14422108 -37.0837183 212.13422108 C-39.55123951 208.43293926 -39.33957624 206.58634232 -39.35114384 202.16583729 C-39.35567495 201.45233002 -39.36020606 200.73882276 -39.36487448 200.00369406 C-39.37756157 197.60638251 -39.37589532 195.20929691 -39.37424564 192.81195545 C-39.38022854 191.09538956 -39.38703353 189.37882637 -39.39460087 187.66226673 C-39.41230048 182.99241891 -39.41695814 178.32264435 -39.41823244 173.65276623 C-39.41965329 170.73312968 -39.4239218 167.8135118 -39.42922688 164.89387989 C-39.44774594 154.70152065 -39.45589585 144.50921377 -39.45432377 134.31683826 C-39.45312447 124.82897333 -39.47418037 115.34133667 -39.5058111 105.85352945 C-39.53201645 97.70133667 -39.54268916 89.54921818 -39.54141295 81.39698362 C-39.54090422 76.53125369 -39.54653712 71.66572619 -39.56776905 66.80003834 C-39.58722115 62.21662555 -39.58722847 57.63360666 -39.57273579 53.05017948 C-39.57065464 51.37450678 -39.5753069 49.698809 -39.5874567 48.02317905 C-39.6766733 34.85815015 -38.03211698 24.31762877 -29.0837183 14.13422108 C-28.58227299 13.5283617 -28.08082767 12.92250233 -27.56418705 12.29828358 C-20.46158288 4.38345947 -10.53132968 0.0173426 0 0 Z " fill="#FEDFB1" transform="translate(103.08371829986572,-0.13422107696533203)"/>
<path d="M0 0 C0.72316406 0.67417969 1.44632813 1.34835938 2.19140625 2.04296875 C3.05121094 2.83960938 3.91101563 3.63625 4.796875 4.45703125 C5.50142822 5.11880371 5.50142822 5.11880371 6.22021484 5.79394531 C7.88501421 7.35327029 9.56283367 8.89777163 11.2421875 10.44140625 C18.26748628 16.92189348 25.15131544 23.51482778 31.83496094 30.34838867 C34.68190486 33.24087328 37.58860703 35.9909211 40.6640625 38.640625 C45.62432383 42.92629554 50.1666096 47.59263896 54.75390625 52.26953125 C57.97378237 55.52714029 61.21825072 58.68401558 64.69140625 61.671875 C69.27076045 65.61607904 73.50623574 69.87244753 77.75390625 74.16796875 C78.52863281 74.94720703 79.30335938 75.72644531 80.1015625 76.52929688 C81.98801382 78.42739295 83.8720687 80.32780024 85.75390625 82.23046875 C88.55819191 80.95541633 90.56994996 79.65069751 92.70703125 77.4375 C93.24457031 76.88900391 93.78210938 76.34050781 94.3359375 75.77539062 C94.88636719 75.20369141 95.43679687 74.63199219 96.00390625 74.04296875 C99.42999791 70.50542592 102.87569625 67.0778434 106.61328125 63.8671875 C111.22937027 59.88434257 115.48151264 55.5757701 119.75390625 51.23046875 C124.61036971 46.29113049 129.50412401 41.51895734 134.7578125 37.00390625 C138.42186113 33.74856754 141.82095668 30.22594927 145.25390625 26.73046875 C150.0079149 21.88986613 154.81773038 17.23508661 159.96337891 12.81152344 C162.34813398 10.70575934 164.51277911 8.4218894 166.69140625 6.10546875 C170.98093665 1.76314413 175.18732375 -1.29090453 180.75390625 -3.76953125 C181.53507813 -4.135625 182.31625 -4.50171875 183.12109375 -4.87890625 C190.43525216 -7.35313195 199.58955162 -6.39646128 206.75390625 -3.76953125 C216.00926213 1.07147936 223.67209053 8.58567066 227.12890625 18.5703125 C229.30697219 27.84070565 227.84776754 36.70737336 223.75390625 45.23046875 C219.67208826 51.63534905 214.43361493 56.59906494 208.73046875 61.54296875 C204.14846116 65.59173922 199.91946042 70.02164356 195.63867188 74.38330078 C192.45091724 77.61165868 189.23291011 80.73153533 185.79296875 83.69140625 C181.38741701 87.48707415 177.32661712 91.58357371 173.25390625 95.73046875 C169.20184032 99.8563428 165.16476568 103.93538783 160.77734375 107.70703125 C156.24123026 111.60884822 152.07067954 115.84015558 147.87890625 120.10546875 C146.38382464 121.62597691 144.88653981 123.14432286 143.38671875 124.66015625 C142.73590332 125.32257324 142.08508789 125.98499023 141.41455078 126.66748047 C139.75390625 128.23046875 139.75390625 128.23046875 137.75390625 129.23046875 C137.42390625 130.22046875 137.09390625 131.21046875 136.75390625 132.23046875 C137.32141602 132.47128174 137.88892578 132.71209473 138.47363281 132.96020508 C141.21391261 134.48672283 143.04429916 136.31247842 145.23828125 138.5546875 C146.51832031 139.85116211 146.51832031 139.85116211 147.82421875 141.17382812 C148.70851562 142.07939453 149.5928125 142.98496094 150.50390625 143.91796875 C155.78981768 149.30975526 161.06461054 154.59191564 166.80175781 159.50317383 C171.21739452 163.41020605 175.26918183 167.7095927 179.3984375 171.9140625 C182.75718749 175.30965436 186.13243049 178.61464644 189.75390625 181.73046875 C194.91951369 186.17482127 199.62682918 191.05553963 204.3984375 195.9140625 C207.85684352 199.41040351 211.33953072 202.78703413 215.078125 205.984375 C222.02436564 211.96980165 227.25754952 220.02994892 228 229.3046875 C228.24638746 241.78348764 226.31147498 249.78057234 217.75390625 259.23046875 C208.28663698 267.2449193 198.73917268 268.03274106 186.81494141 267.42578125 C182.53209385 267.01992031 179.29213777 265.5942767 175.75390625 263.23046875 C175.15449219 262.864375 174.55507812 262.49828125 173.9375 262.12109375 C170.44726958 259.76026983 167.75271063 257.320765 165.31369019 253.88825989 C160.41318285 247.42889637 155.70799327 243.17317778 147.50518799 241.85140991 C140.41811372 241.15626414 133.32172289 241.08646574 126.20665598 241.11505103 C123.32888921 241.11793424 120.45245315 241.07598916 117.57504261 241.03414184 C110.77622517 240.9354692 103.97962213 240.90576305 97.18017578 240.9230957 C90.20977267 240.93990607 83.24645704 240.85195683 76.27762043 240.71001405 C70.25241977 240.59035983 64.22866461 240.53069411 58.20228755 240.51878959 C54.62127805 240.51152628 51.04366899 240.48448731 47.46353531 240.40180016 C29.69134545 239.67708049 29.69134545 239.67708049 14.34701347 247.42564869 C11.83878595 249.94782469 9.55591781 252.58207378 7.34014511 255.36281776 C1.90205991 261.76566505 -4.70614092 266.46741967 -13.19628906 267.45800781 C-25.15080269 268.33353414 -34.11661266 266.92763783 -43.55859375 259.10546875 C-49.870322 253.10138764 -53.80614658 245.89208395 -54.484375 237.1640625 C-54.70431385 226.80378531 -53.56442902 218.67531218 -46.62109375 210.66796875 C-45.38444401 209.38810829 -44.14496805 208.11066856 -42.88232422 206.85644531 C-40.88353797 204.87018502 -38.91183752 202.85821624 -36.9375 200.84765625 C-24.49514525 188.24973992 -24.49514525 188.24973992 -19.375 183.8671875 C-18.77067642 183.32914993 -18.16635284 182.79111237 -17.54371643 182.23677063 C-15.90154719 180.80281576 -14.21347252 179.4207612 -12.49787903 178.07551575 C-6.66041271 173.05651123 -3.32814147 169.19309197 -2.69580078 161.21484375 C-2.52904574 158.13386603 -2.50187778 155.06543056 -2.50390625 151.98046875 C-2.4760884 150.3153141 -2.44625244 148.65019208 -2.41452026 146.98510742 C-2.3624447 143.50462422 -2.35369558 140.02717531 -2.37255859 136.54638672 C-2.38684328 133.01181895 -2.33175939 129.48994724 -2.20849609 125.95751953 C-0.81560622 102.91711404 -0.81560622 102.91711404 -10.78707886 83.11791992 C-13.99102727 80.14871595 -17.28744068 77.46894869 -20.85179138 74.94511414 C-27.77290218 69.98865965 -33.86781948 63.8644874 -39.93359375 57.91796875 C-40.66642578 57.22251953 -41.39925781 56.52707031 -42.15429688 55.81054688 C-50.06556346 48.02768678 -54.32235546 39.79603567 -54.55859375 28.66796875 C-54.42170414 17.65976274 -51.35520816 10.29897133 -43.6640625 2.39453125 C-31.70342754 -8.31014043 -13.0285438 -10.26422668 0 0 Z " fill="#020101" transform="translate(75.24609375,244.76953125)"/>
<path d="M0 0 C1.88280437 -0.00668677 1.88280437 -0.00668677 3.80364519 -0.01350862 C5.19918733 -0.01341932 6.59472946 -0.01322947 7.99027157 -0.01294994 C9.47081328 -0.0162495 10.9513541 -0.01997526 12.43189377 -0.02409142 C16.50618755 -0.03410923 20.58046661 -0.03782787 24.65477097 -0.04048073 C29.04691483 -0.04438446 33.43904702 -0.05396279 37.83118343 -0.0626936 C48.44145018 -0.08245658 59.05171787 -0.09252423 69.66199842 -0.10142139 C74.65899604 -0.10580476 79.6559926 -0.11117146 84.65298939 -0.11641026 C101.26511986 -0.13342274 117.87724967 -0.14791665 134.48938751 -0.155159 C138.80038676 -0.15706888 143.11138599 -0.15898922 147.42238522 -0.16094494 C148.49385911 -0.16142868 149.56533301 -0.16191242 150.66927581 -0.16241082 C168.02424685 -0.17071011 185.37914893 -0.19604524 202.73408986 -0.22852562 C220.55343654 -0.26160314 238.37274819 -0.27960841 256.19212574 -0.28280324 C266.19645394 -0.28496774 276.20068162 -0.29370768 286.2049799 -0.31926441 C294.72566813 -0.34098089 303.24623141 -0.34901717 311.76694418 -0.33929763 C316.11262923 -0.33475562 320.45805653 -0.33663332 324.80370617 -0.35605907 C328.78699595 -0.37371083 332.76984032 -0.37267694 336.75313496 -0.35716178 C338.18927702 -0.35478874 339.62545009 -0.35909348 341.06154484 -0.37099043 C354.84875097 -0.47807382 365.77191903 2.7262384 376.07643795 12.09906483 C383.73081674 20.01097412 388.01805741 30.12062272 388.06446934 41.11141109 C388.07578134 42.95856486 388.07578134 42.95856486 388.08732188 44.84303486 C388.09068731 46.21175398 388.09394215 47.58047338 388.09709835 48.949193 C388.10397755 50.40157476 388.11126633 51.85395463 388.11893022 53.30633247 C388.13866793 57.30273481 388.15204934 61.299137 388.16427875 65.29556847 C388.17555127 68.72210974 388.19048201 72.14863127 388.20540185 75.57515831 C388.34634434 108.05690015 388.41180472 140.53908901 388.46472263 173.02107906 C388.47173152 177.24889744 388.47885851 181.4767156 388.48610592 185.70453358 C388.48790121 186.75533548 388.4896965 187.80613739 388.4915462 188.88878177 C388.52161373 205.9115259 388.58638346 222.93396146 388.66479237 239.95654418 C388.74462834 257.43348451 388.79040518 274.910265 388.80374849 292.3873843 C388.81215584 302.20017292 388.83590449 312.01241432 388.89841747 321.82502079 C388.95162782 330.18189924 388.97437205 338.53815345 388.95730729 346.89519639 C388.94956156 351.15814284 388.95634116 355.41974727 389.00258923 359.6824789 C389.04464105 363.58920339 389.0447355 367.49365358 389.01215903 371.40044783 C389.00767856 372.80968673 389.01827834 374.21907606 389.04590912 375.62805118 C389.18409786 383.12597595 388.73503034 388.01426787 383.64000988 393.74554729 C382.09004461 395.23448929 380.5152806 396.6980654 378.9162817 398.13422108 C377.35207654 399.72496324 375.79486812 401.3226436 374.24761105 402.92987537 C372.57474849 404.6085805 370.89923752 406.28464947 369.22145748 407.95843983 C367.83683064 409.34569515 367.83683064 409.34569515 366.42423153 410.76097584 C363.9248884 413.2648228 361.42245963 415.76556317 358.91926718 418.2655611 C356.28866053 420.89361259 353.66052094 423.5241295 351.03197384 426.15424061 C346.6276904 430.56033435 342.22132241 434.96433511 337.81374264 439.36713123 C332.72039302 444.4550167 327.6306876 449.54652641 322.54281342 454.63988686 C318.16059722 459.02663852 313.7764387 463.41144184 309.39064491 467.7946167 C306.77672591 470.40697835 304.16348351 473.02000719 301.55199718 475.63480091 C298.64909897 478.54112018 295.74213803 481.44334207 292.83473873 484.34515858 C291.9713438 485.21057774 291.10794888 486.07599689 290.21839046 486.96764088 C289.03269718 488.14910442 289.03269718 488.14910442 287.8230505 489.35443592 C287.13694258 490.04016682 286.45083466 490.72589771 285.74393559 491.43240833 C282.42405141 494.52370546 280.39807713 495.38582092 275.95754147 495.40887928 C274.94962048 495.41841129 273.94169949 495.42794331 272.90323544 495.43776417 C271.81570477 495.43685276 270.7281741 495.43594135 269.60768795 495.43500233 C268.4894212 495.43928745 267.37115444 495.44357258 266.21900082 495.44798756 C263.85272048 495.45373368 261.48642247 495.45422905 259.12013912 495.44989491 C255.49654194 495.44673656 251.87376217 495.47018596 248.25026608 495.4955492 C245.95274107 495.49782228 243.65521386 495.49852565 241.35768795 495.49750233 C240.27218151 495.50671207 239.18667507 495.51592182 238.0682745 495.52541065 C237.05720135 495.51918186 236.0461282 495.51295307 235.00441647 495.50653553 C233.67229877 495.50747967 233.67229877 495.50747967 232.31326962 495.50844288 C229.39870266 495.05341576 228.03821393 494.15808747 225.9162817 492.13422108 C224.91482709 488.84372736 224.75052365 486.78218435 225.6037817 483.44672108 C227.17195066 480.68375671 228.13430884 479.69526628 230.9162817 478.13422108 C233.82058972 477.87734118 236.50219002 477.78434817 239.4006567 477.84125233 C240.21625057 477.84549717 241.03184444 477.84974201 241.87215328 477.85411549 C244.47053554 477.87087392 247.06813489 477.9085201 249.6662817 477.94672108 C251.43059339 477.96177162 253.19491728 477.97545938 254.95925045 477.9877367 C259.27856135 478.02076807 263.5972889 478.07253022 267.9162817 478.13422108 C267.90739925 477.32148731 267.89851681 476.50875355 267.8893652 475.67139149 C267.80878881 467.96390324 267.74810073 460.25662291 267.70903301 452.54882145 C267.68827176 448.5873572 267.66016789 444.62624469 267.61452389 440.6649828 C267.57065156 436.83293483 267.54705872 433.00122243 267.53677273 429.16894245 C267.52945473 427.71627752 267.51516727 426.26362828 267.49336147 424.81110859 C267.28544547 410.37024937 270.15465816 399.0879721 279.9162817 388.13422108 C288.11819904 380.43329345 296.52253447 376.00041937 307.79616451 376.02069569 C308.82116558 376.02047665 308.82116558 376.02047665 309.86687374 376.02025318 C312.11775074 376.02094793 314.36854422 376.02871976 316.6194067 376.03656483 C318.1831066 376.03843056 319.74680708 376.03985373 321.31050777 376.04085255 C325.42044859 376.04466546 329.53035391 376.05448528 333.64028072 376.06555653 C337.83644283 376.075797 342.03261069 376.08035582 346.2287817 376.08539295 C354.45796463 376.09610865 362.68711875 376.11317035 370.9162817 376.13422108 C370.88028927 333.22816769 370.82336128 290.32218737 370.73836075 247.41620168 C370.72834331 242.35061013 370.71849917 237.28501825 370.70876217 232.21942616 C370.7068208 231.21095916 370.70487942 230.20249216 370.70287922 229.16346555 C370.67185921 212.8351031 370.65487856 196.5067547 370.64308748 180.17836834 C370.63067593 163.42359091 370.60317443 146.66888724 370.56166863 129.91415638 C370.53653337 119.57581056 370.52316445 109.23758707 370.52485213 98.89921027 C370.52488189 91.80953048 370.51025243 84.71997528 370.48411742 77.63034404 C370.46947162 73.54013798 370.46126835 69.45018741 370.47047901 65.3599596 C370.47877562 61.61218591 370.46858507 57.86492522 370.44394508 54.11722755 C370.43558821 52.12565164 370.44678919 50.13402299 370.45878005 48.14246565 C370.37535684 39.4317799 368.85814978 32.88189164 363.6662817 25.82172108 C358.149287 20.43011262 351.73978817 18.01401003 344.07775688 17.99720669 C342.85179548 17.99213215 341.62583408 17.9870576 340.36272234 17.98182929 C338.99499098 17.98122759 337.62725958 17.98072852 336.25952816 17.98032093 C334.81213499 17.97630656 333.36474295 17.97186838 331.91735226 17.96704137 C327.93008327 17.95506694 323.94282638 17.9494254 319.95554292 17.94486022 C315.65883265 17.93890735 311.36213687 17.92729664 307.06543636 17.91656971 C296.68316457 17.89203737 286.30088798 17.87741677 275.91859612 17.86450964 C272.98637611 17.86079813 270.05415657 17.85682486 267.12193704 17.85275698 C248.91553166 17.82751946 230.70912554 17.80546503 212.50270653 17.79302883 C208.28468924 17.7900991 204.06667198 17.78713744 199.84865475 17.78412342 C198.80027796 17.78337737 197.75190117 17.78263132 196.67175538 17.78186266 C179.69108552 17.76921078 162.71052041 17.73599058 145.72989952 17.69432159 C128.29818426 17.65189619 110.86652261 17.62833304 93.43475586 17.62310827 C83.64671619 17.6196947 73.85884018 17.607946 64.07085133 17.57500553 C55.73417941 17.54699547 47.39770469 17.53600986 39.06098937 17.54720099 C34.8085375 17.55238532 30.55649852 17.5495158 26.30410671 17.52473545 C22.40709722 17.502216 18.51079657 17.50300317 14.61377443 17.52193932 C13.20789838 17.52473562 11.80197399 17.51916129 10.39617556 17.50412638 C1.0212949 17.41003538 -6.85481082 18.31854697 -13.98979002 24.88965857 C-19.37331213 30.58300424 -21.45780514 36.64186364 -21.46225834 44.39621449 C-21.46678847 45.09287153 -21.4713186 45.78952858 -21.475986 46.50729644 C-21.48754074 48.82339942 -21.47799167 51.1389171 -21.46848392 53.45502186 C-21.47259214 55.1228011 -21.47805449 56.79057747 -21.48476505 58.45834827 C-21.49646557 62.04054892 -21.49898324 65.6225956 -21.49440861 69.20481205 C-21.48758873 74.86925819 -21.50348334 80.53350228 -21.52280521 86.19791126 C-21.56384239 99.24098105 -21.57520972 112.28404504 -21.58633518 125.32716846 C-21.59684186 137.28912095 -21.61360055 149.25097616 -21.65443087 161.21286857 C-21.67279384 166.8439579 -21.67667735 172.47481556 -21.66949558 178.10592771 C-21.66797473 181.60683135 -21.67875078 185.10761881 -21.69287395 188.60849094 C-21.69687926 190.23184998 -21.69574706 191.85523105 -21.68910122 193.47858143 C-21.68072505 195.69473704 -21.69070282 197.91008786 -21.70517826 200.12619495 C-21.70589077 201.36613272 -21.70660328 202.60607048 -21.70733738 203.88358212 C-22.11665028 207.41864028 -22.96453124 209.30544894 -25.0837183 212.13422108 C-27.64182222 213.54706508 -30.17068468 214.02065251 -33.0837183 214.13422108 C-36.12820001 212.83869694 -37.600582 212.10049368 -39.0837183 209.13422108 C-39.18700509 206.85332163 -39.22327685 204.56931595 -39.23088932 202.2860918 C-39.23456601 201.57343896 -39.2382427 200.86078612 -39.2420308 200.12653774 C-39.25308898 197.72617825 -39.25691517 195.32586202 -39.26072025 192.92548084 C-39.26698359 191.20906403 -39.27363028 189.49264858 -39.28063297 187.77623463 C-39.30170154 182.12604185 -39.31204198 176.47584872 -39.32199955 170.82562733 C-39.32604689 168.88000378 -39.3301638 166.93438038 -39.33434963 164.98875713 C-39.35341207 155.84295461 -39.36763757 146.69716018 -39.3759616 137.55134159 C-39.38572067 127.00309216 -39.41200095 116.45505332 -39.45246249 105.90687805 C-39.48267206 97.75046825 -39.4974353 89.5941186 -39.50074261 81.43765396 C-39.50308875 76.56854222 -39.51199142 71.69965518 -39.53720379 66.8306036 C-39.56057243 62.2431177 -39.56468255 57.65600297 -39.55444241 53.06847286 C-39.55394897 51.39118175 -39.56021236 49.71387184 -39.57399845 48.03663731 C-39.67615469 34.86305076 -38.03839971 24.32477861 -29.0837183 14.13422108 C-28.58227299 13.5283617 -28.08082767 12.92250233 -27.56418705 12.29828358 C-20.46158288 4.38345947 -10.53132968 0.0173426 0 0 Z " fill="#000000" transform="translate(103.08371829986572,-0.13422107696533203)"/>
<path d="M0 0 C5.18289373 2.99175167 9.19742989 7.23187524 13.296875 11.5390625 C15.40038635 13.64868871 17.51161466 15.58525457 19.765625 17.5234375 C24.99650589 22.0489346 29.785369 26.98620678 34.62890625 31.91796875 C38.61976202 35.9525999 42.70089509 39.77409238 47.00195312 43.47460938 C51.19678107 47.19829409 55.05854427 51.27093039 58.984375 55.2734375 C62.21155864 58.5384397 65.46402565 61.7009429 68.9453125 64.6953125 C73.39587123 68.52840241 77.49524674 72.67125163 81.609375 76.859375 C89.56039141 85.87534755 89.56039141 85.87534755 99.859375 90.984375 C105.36390117 90.55935509 108.29807406 87.01947128 111.984375 83.234375 C113.02077665 82.19525759 114.0586459 81.15760272 115.09765625 80.12109375 C116.761539 78.46105535 118.42159296 76.79855328 120.06518555 75.1184082 C122.89905646 72.23535187 125.79423366 69.49654184 128.859375 66.859375 C133.28996348 63.03083778 137.38329205 58.91015891 141.484375 54.734375 C146.16764724 49.96579726 150.90403852 45.38461534 155.97070312 41.02539062 C159.63927054 37.762465 163.04550099 34.23588788 166.484375 30.734375 C171.20432039 25.9284561 175.97881609 21.30997823 181.08691406 16.91796875 C184.66680585 13.74157481 187.9368497 10.24981837 191.2265625 6.77734375 C195.62486486 2.26161098 199.44931087 -0.52419032 205.921875 -1.140625 C210.89916171 -0.90361135 215.03545607 0.37763467 218.71875 3.88671875 C222.31026829 7.93145244 224.11581956 11.02944864 224.296875 16.546875 C224.35294922 17.65482422 224.35294922 17.65482422 224.41015625 18.78515625 C223.37325656 24.7497077 218.34728471 29.15908802 214.1875 33.26171875 C213.63503601 33.81372452 213.08257202 34.36573029 212.5133667 34.9344635 C211.34917206 36.09565319 210.18256419 37.25442795 209.01367188 38.41088867 C207.24816183 40.15823005 205.49069864 41.91335211 203.734375 43.66992188 C198.5679411 48.8195971 193.38255454 53.86629494 187.83105469 58.60375977 C184.20977835 61.80134102 180.86789215 65.2892273 177.484375 68.734375 C172.80110276 73.50295274 168.06471148 78.08413466 162.99804688 82.44335938 C159.32947946 85.706285 155.92324901 89.23286212 152.484375 92.734375 C147.73247286 97.57283273 142.94281693 102.2615162 137.77734375 106.66015625 C133.66489108 110.27087178 130.45384505 113.24815554 129.171875 118.671875 C131.01859692 126.76904034 138.71827877 131.92599613 144.64990234 137.30810547 C149.80722058 142.0030939 154.7270826 146.91374951 159.60742188 151.89477539 C162.61103463 154.94102488 165.65894669 157.86125445 168.90234375 160.65234375 C174.09107354 165.12944768 178.82996126 170.03161129 183.62890625 174.91796875 C186.97392654 178.2996803 190.33391097 181.59319781 193.94140625 184.6953125 C198.58240557 188.68896948 202.86793958 193.00854004 207.171875 197.359375 C207.95240234 198.14441406 208.73292969 198.92945313 209.53710938 199.73828125 C211.03283645 201.24288881 212.52729519 202.74875867 214.02026367 204.25610352 C215.64627828 205.89384079 217.28136061 207.52137046 218.921875 209.14453125 C222.42347517 212.69255415 223.84613371 215.0297009 224.421875 220.046875 C224.1764881 225.94731458 221.72867265 230.53480293 217.546875 234.609375 C212.60259806 237.74477013 208.89648568 238.83560659 202.984375 238.234375 C195.57158316 235.29632969 190.93682821 230.63251018 185.484375 224.921875 C180.46091577 219.73311735 175.45119734 214.68057705 169.96289062 209.98364258 C165.53701731 206.07058948 161.47725155 201.76355167 157.33984375 197.55078125 C153.98109376 194.15518939 150.60585076 190.85019731 146.984375 187.734375 C141.81876756 183.29002248 137.11145207 178.40930412 132.33984375 173.55078125 C128.31727513 169.48408939 124.20421473 165.62523726 119.86816406 161.89550781 C116.97986665 159.34859548 114.29599852 156.61578095 111.609375 153.859375 C106.82965673 148.71447894 106.82965673 148.71447894 100.23828125 146.85546875 C96.35005377 146.91765937 94.28244378 147.99208873 91.4206543 150.73950195 C90.92605713 151.25343506 90.43145996 151.76736816 89.921875 152.296875 C89.38022705 152.82692139 88.8385791 153.35696777 88.28051758 153.90307617 C86.49449581 155.66067185 84.73921482 157.44567974 82.984375 159.234375 C81.68881596 160.53256462 80.3919135 161.82941478 79.09375 163.125 C77.17488075 165.04008404 75.25954931 166.95749851 73.36108398 168.89282227 C70.34878312 171.95162591 67.28839737 174.88093565 64.03515625 177.68359375 C59.80578822 181.33291082 55.89422351 185.24816226 51.984375 189.234375 C48.10153793 193.19304873 44.22096838 197.08495838 40.015625 200.703125 C35.61234318 204.49579548 31.55450576 208.59010706 27.484375 212.734375 C22.73782447 217.56738365 17.95613249 222.24995363 12.78955078 226.63574219 C10.87453253 228.33164962 9.11829754 230.12812981 7.359375 231.984375 C3.23203345 236.12101237 -0.48033976 238.33968129 -6.390625 238.734375 C-12.91690819 238.4922532 -17.09123108 235.20687877 -21.515625 230.671875 C-23.71647719 225.6282554 -23.97426547 220.64787413 -23.015625 215.234375 C-19.82965657 209.12793551 -14.62778036 204.5878586 -9.765625 199.796875 C-8.53392578 198.56614258 -8.53392578 198.56614258 -7.27734375 197.31054688 C-3.59908465 193.65851942 0.10071074 190.07952146 4.03125 186.69921875 C8.5872728 182.77850929 12.7723919 178.51823495 16.984375 174.234375 C21.85089889 169.28480463 26.75483569 164.50107314 32.01953125 159.9765625 C35.50011983 156.89039449 38.72836169 153.55398233 41.984375 150.234375 C46.53682253 145.59301248 51.15540522 141.13447567 56.07861328 136.88671875 C58.93452214 134.41057333 61.69908798 131.85553934 64.421875 129.234375 C65.21368164 128.51121094 65.21368164 128.51121094 66.02148438 127.7734375 C68.74966577 125.12580575 69.97317914 123.27474927 70.99609375 119.5859375 C70.98343596 115.96580842 70.84978377 115.09978377 68.359375 112.609375 C67.71613281 111.94808594 67.07289063 111.28679687 66.41015625 110.60546875 C65.60964844 109.82300781 64.80914062 109.04054688 63.984375 108.234375 C62.95512114 107.18546466 61.92791951 106.13453816 60.90234375 105.08203125 C56.43728291 100.53348694 51.97226123 96.05245129 47.13671875 91.89453125 C41.70095407 87.18891478 36.73272082 82.02962092 31.6953125 76.90625 C27.58925529 72.7578623 23.40627331 68.81137523 18.98046875 65.0078125 C14.55640392 61.07723435 10.48457056 56.771004 6.33984375 52.55078125 C2.3261654 48.49307718 -1.77564708 44.63693985 -6.10058594 40.91357422 C-9.14785496 38.2415808 -12.02402844 35.41007512 -14.890625 32.546875 C-15.4578125 31.99193359 -16.025 31.43699219 -16.609375 30.86523438 C-21.30431565 26.1869819 -23.30377672 23.18564965 -23.390625 16.359375 C-23.29554895 11.14920732 -22.65622553 8.17015936 -19.015625 4.234375 C-13.533453 -0.71295095 -7.15344473 -2.71719994 0 0 Z " fill="#E71D62" transform="translate(62.015625,256.765625)"/>
<path d="M0 0 C8.23807769 -0.59913292 14.30496023 1.66077018 20.8125 6.75 C25.4153332 10.94701496 28.81701272 17.25790705 29.1241985 23.53986138 C29.12381878 24.56548599 29.12343906 25.59111061 29.12304783 26.64781475 C29.12503888 27.8311756 29.12702993 29.01453645 29.12908131 30.23375672 C29.12616847 31.54015872 29.12325563 32.84656072 29.12025452 34.19255066 C29.12069036 35.58932255 29.12156552 36.98609436 29.12284368 38.38286573 C29.12508601 42.22983002 29.12107092 46.07676663 29.11606562 49.92372739 C29.11175757 54.06890767 29.1132078 58.21408631 29.1139679 62.35926819 C29.1144929 69.5439866 29.1113485 76.72869596 29.10573006 83.91341209 C29.09761195 94.301377 29.09499952 104.6893375 29.09374207 115.07730523 C29.09155204 131.93003866 29.08489328 148.78276725 29.07543945 165.63549805 C29.06626407 182.0088702 29.05918385 198.38224103 29.05493164 214.75561523 C29.05466892 215.76443157 29.05440619 216.7732479 29.05413551 217.81263443 C29.0528305 222.8734386 29.05156678 227.93424279 29.05032361 232.99504697 C29.03995252 274.99670227 29.02151504 316.99834864 29 359 C7.22 359 -14.56 359 -37 359 C-37 358.67 -37 358.34 -37 358 C-20.83 358 -4.66 358 12 358 C11.505 347.605 11.505 347.605 11 337 C9.02 338.98 9.02 338.98 7 341 C1.51404494 341.87078652 1.51404494 341.87078652 -1 341 C-4.05157381 338.3337038 -5.69552473 336.62876733 -6.44506836 332.61914062 C-6.60062221 329.87485395 -6.58388294 327.18466639 -6.5 324.4375 C-6.50386719 323.03854492 -6.50386719 323.03854492 -6.5078125 321.61132812 C-6.43721435 316.65886777 -6.31569306 312.94911556 -3 309 C0 307 0 307 3.375 307.1875 C7 308 7 308 12 311 C11.505 298.625 11.505 298.625 11 286 C8.525 287.98 8.525 287.98 6 290 C2.5 290.625 2.5 290.625 -1 290 C-4.13992386 287.31412595 -5.70996216 285.57946412 -6.46181107 281.48510742 C-6.65223151 278.32390731 -6.67537568 275.19814456 -6.64697266 272.03125 C-6.66011505 270.23022827 -6.66011505 270.23022827 -6.67352295 268.39282227 C-6.69172027 265.11154449 -6.68751065 261.83128029 -6.67162752 258.55001831 C-6.65893123 255.10949645 -6.67071894 251.66904026 -6.67855835 248.22851562 C-6.68764417 242.45170002 -6.67569543 236.67520447 -6.65185547 230.8984375 C-6.62464574 224.2282776 -6.63346069 217.55888193 -6.6609875 210.88874054 C-6.6837084 205.15262582 -6.68686426 199.4167406 -6.67379415 193.6805954 C-6.6660158 190.25869731 -6.66491282 186.83715796 -6.68147659 183.4152832 C-6.69417494 179.59924656 -6.6748182 175.78467734 -6.64697266 171.96875 C-6.65709381 170.84025635 -6.66721497 169.7117627 -6.67764282 168.54907227 C-6.5622141 160.0106451 -6.5622141 160.0106451 -3.59066772 156.29736328 C-0.11026839 153.21100004 -0.11026839 153.21100004 3.0625 153.375 C7.40673427 154.06456099 8.18785045 154.85590406 11 158 C11.09363381 140.32743399 11.16407218 122.65494591 11.20724869 104.98218822 C11.2278333 96.77555717 11.25587493 88.56908066 11.30175781 80.36254883 C11.34175176 73.20586088 11.3674626 66.04928491 11.37635398 58.8924883 C11.38154761 55.10647511 11.39366765 51.32078214 11.42292023 47.53487206 C11.45028856 43.96352414 11.45840242 40.39262508 11.45243073 36.82118225 C11.45403735 34.90166972 11.47544724 32.98220487 11.49768066 31.06282043 C11.44952202 20.83440091 9.20867197 12.21146939 3 4 C2.4225 3.21625 1.845 2.4325 1.25 1.625 C0.8375 1.08875 0.425 0.5525 0 0 Z " fill="#D6BC95" transform="translate(445,17)"/>
<path d="M0 0 C1.06655146 -0.00638882 2.13310292 -0.01277764 3.23197412 -0.01936007 C6.81205226 -0.03464173 10.39102942 -0.01412636 13.97106934 0.00622559 C16.53509387 0.00272537 19.09911623 -0.00293207 21.66313171 -0.0105896 C27.908074 -0.02337855 34.15260654 -0.0128818 40.39751375 0.00852364 C47.66945508 0.03253449 54.94132192 0.03081922 62.21329409 0.02821773 C75.18812133 0.02452737 88.1627954 0.04535462 101.13757324 0.07946777 C113.72843294 0.11255926 126.31913187 0.12672609 138.91003418 0.1204834 C152.61975242 0.11371942 166.32940332 0.11617982 180.03911161 0.1358428 C180.76407665 0.13688229 181.48904168 0.13792177 182.23597535 0.13899276 C183.69203852 0.14108366 185.14810165 0.14319463 186.60416475 0.14532593 C191.6733968 0.15222168 196.74260811 0.15289081 201.81184387 0.15144348 C208.63430134 0.14985348 215.45653887 0.16474801 222.27895546 0.19067001 C224.78598916 0.19784474 227.29304335 0.19990919 229.80008507 0.19655228 C233.21613634 0.19285007 236.63162138 0.20754199 240.04760742 0.22705078 C241.04517012 0.22172286 242.04273282 0.21639493 243.07052469 0.21090555 C247.99943306 0.25963644 251.57357503 0.30772029 255.52380371 3.62145996 C257.09080813 6.75546881 257.37544932 10.25301091 256.52380371 13.62145996 C254.36832259 16.03574581 252.57711194 17.44301254 249.33809936 17.99175358 C246.54006381 18.13917125 243.76684745 18.15424577 240.96495056 18.12939453 C239.88952643 18.13563449 238.8141023 18.14187446 237.70608956 18.14830351 C234.09619625 18.16428068 230.48697373 18.15161022 226.8770752 18.13903809 C224.29172369 18.14445704 221.70637526 18.15157842 219.12103271 18.16027832 C212.82437569 18.17806738 206.52790936 18.17422211 200.23124485 18.16262776 C195.11458191 18.15359599 189.99797242 18.15236831 184.88130379 18.15672302 C183.78917229 18.15764242 183.78917229 18.15764242 182.67497753 18.15858039 C181.19591711 18.15985928 179.7168567 18.16115614 178.23779631 18.16247076 C164.36813276 18.17387747 150.49857494 18.16076103 136.62892873 18.13926929 C124.72477488 18.12139443 112.82077702 18.12450538 100.91662598 18.14294434 C87.09521559 18.16434298 73.27389786 18.1727828 59.45247322 18.16049528 C57.97914479 18.15922107 56.50581633 18.15796359 55.03248787 18.15672302 C54.30756466 18.15610592 53.58264144 18.15548882 52.83575086 18.15485302 C47.72395308 18.15139737 42.61221402 18.15723299 37.50042534 18.16664124 C30.62295617 18.17902093 23.74578715 18.17022688 16.86834717 18.14706421 C14.33992568 18.1417618 11.81147945 18.14331687 9.2830677 18.15211487 C5.84026374 18.16299285 2.39841573 18.14939947 -1.04432678 18.12939453 C-2.05258422 18.13831742 -3.06084166 18.1472403 -4.09965235 18.15643358 C-10.80346938 18.08050915 -10.80346938 18.08050915 -14.09303188 15.8358078 C-15.75756031 13.17101618 -15.99978686 10.83522134 -16.10510254 7.71911621 C-13.6855822 -0.35096096 -7.01663087 -0.08804772 0 0 Z " fill="#030202" transform="translate(182.4761962890625,50.3785400390625)"/>
<path d="M0 0 C4.02654194 1.8472003 6.71593076 4.52506629 9.75 7.6875 C13.00778016 11.06162945 16.30143225 14.3034855 19.859375 17.36328125 C25.06638543 21.86075271 29.82653431 26.7778373 34.64453125 31.68359375 C37.9835136 35.05920113 41.33698671 38.34826081 44.9375 41.4453125 C49.68396781 45.53008061 54.08469977 49.93812664 58.5 54.375 C59.32242188 55.19355469 60.14484375 56.01210938 60.9921875 56.85546875 C61.76820313 57.63277344 62.54421875 58.41007812 63.34375 59.2109375 C64.04693359 59.91524902 64.75011719 60.61956055 65.47460938 61.34521484 C67 63 67 63 67 64 C50.51034867 64.04670923 34.02071879 64.08198355 17.5310173 64.10362434 C9.87465962 64.11393936 2.21834303 64.128004 -5.43798828 64.15087891 C-12.1108127 64.17080588 -18.78360737 64.1837148 -25.45646071 64.18817699 C-28.99007714 64.19078555 -32.52360842 64.19692145 -36.05719757 64.21146011 C-40.00071312 64.22755395 -43.94414518 64.22798013 -47.88769531 64.22705078 C-49.64743935 64.23783661 -49.64743935 64.23783661 -51.44273376 64.24884033 C-52.51682999 64.246091 -53.59092621 64.24334167 -54.6975708 64.24050903 C-55.6304253 64.24235262 -56.5632798 64.24419621 -57.52440262 64.24609566 C-60.12714081 63.98736111 -61.76333915 63.32029377 -64 62 C-61.50434749 59.47483195 -59.00267549 56.95570627 -56.5 54.4375 C-55.80390625 53.73302734 -55.1078125 53.02855469 -54.390625 52.30273438 C-51.01952158 48.91602399 -47.62313146 45.62104866 -44 42.50390625 C-39.60723154 38.7207046 -35.5602171 34.6341737 -31.5 30.5 C-26.80765893 25.72218823 -22.06309314 21.12704586 -16.98632812 16.75927734 C-13.50808991 13.67862535 -10.26309644 10.36776369 -7 7.0625 C-6.32066406 6.37865234 -5.64132813 5.69480469 -4.94140625 4.99023438 C-3.29191641 3.32912841 -1.6448332 1.66571487 0 0 Z " fill="#FDDEB1" transform="translate(161,423)"/>
<path d="M0 0 C0.81489149 -0.00297112 1.62978299 -0.00594224 2.46936816 -0.0090034 C5.21540343 -0.0177142 7.96139522 -0.01920065 10.70744324 -0.02069092 C12.6700449 -0.02531742 14.63264566 -0.03034185 16.59524536 -0.03573608 C21.93826711 -0.04887846 27.28127629 -0.05530864 32.62431169 -0.05974674 C35.96015166 -0.06267455 39.29598817 -0.0667788 42.6318264 -0.07125092 C53.06226899 -0.08493079 63.49270371 -0.094595 73.92315465 -0.09845281 C85.9758121 -0.10293469 98.0283562 -0.12048659 110.08097917 -0.1494534 C119.3888786 -0.17104939 128.6967461 -0.18115598 138.00467032 -0.18249393 C143.56771075 -0.18354346 149.13064471 -0.18948283 154.69365883 -0.20731354 C159.9262036 -0.22375818 165.15856146 -0.22596728 170.39112282 -0.21717453 C172.31281026 -0.21640221 174.23450759 -0.22077238 176.15616989 -0.23063278 C178.77759596 -0.24329601 181.39835439 -0.23750625 184.01977539 -0.22705078 C185.16316721 -0.23913539 185.16316721 -0.23913539 186.32965785 -0.25146413 C190.79784728 -0.20972238 193.66473658 0.35616522 197.20036316 3.14044189 C199.20036316 6.14044189 199.20036316 6.14044189 199.07536316 9.57794189 C198.08756462 13.59969308 197.49430439 14.7158357 194.20036316 17.14044189 C191.33880364 17.53324874 188.8622436 17.68112701 186.00163269 17.64837646 C185.16799257 17.65461643 184.33435246 17.66085639 183.47545052 17.66728544 C180.67773917 17.68326001 177.8808937 17.6705939 175.08317566 17.65802002 C173.07924388 17.66343916 171.07531609 17.67056064 169.07139587 17.67926025 C163.62515781 17.69752126 158.17922228 17.69041454 152.73297882 17.67774391 C147.03866753 17.66763066 141.34438248 17.67700493 135.65007019 17.68328857 C126.08670898 17.69056986 116.52347125 17.68096462 106.96012878 17.66192627 C95.89693112 17.64015667 84.8340283 17.6472077 73.77083778 17.66923189 C64.27945236 17.68737215 54.7881558 17.68995093 45.29675865 17.67947721 C39.62478679 17.67323474 33.9529536 17.6724274 28.2809906 17.68562317 C22.94902465 17.697161 17.61743955 17.68919362 12.28551483 17.66604614 C10.32632836 17.66074801 8.36710994 17.66229162 6.4079361 17.6710968 C3.73788629 17.68199233 1.0690647 17.66836173 -1.60090637 17.64837646 C-2.38027998 17.65729935 -3.15965359 17.66622224 -3.96264458 17.67541552 C-7.50336152 17.62384079 -9.43225009 17.42299604 -12.27885437 15.23369598 C-14.38524504 12.33439187 -14.3664168 10.51970479 -14.19807434 7.04278564 C-13.59068107 4.14278051 -12.13463892 2.85735519 -9.79963684 1.14044189 C-6.69460579 -0.41207363 -3.40815913 -0.00384043 0 0 Z " fill="#060504" transform="translate(180.7996368408203,101.85955810546875)"/>
<path d="M0 0 C4.95170091 2.84264311 8.55208681 6.46876044 10.375 11.9375 C10.61328125 13.98828125 10.61328125 13.98828125 10.6875 16.25 C10.74357422 17.35794922 10.74357422 17.35794922 10.80078125 18.48828125 C9.76388156 24.4528327 4.73790971 28.86221302 0.578125 32.96484375 C0.02566101 33.51684952 -0.52680298 34.06885529 -1.0960083 34.6375885 C-2.26020294 35.79877819 -3.42681081 36.95755295 -4.59570312 38.11401367 C-6.36121317 39.86135505 -8.11867636 41.61647711 -9.875 43.37304688 C-15.0414339 48.5227221 -20.22682046 53.56941994 -25.77832031 58.30688477 C-29.39959665 61.50446602 -32.74148285 64.9923523 -36.125 68.4375 C-40.80827224 73.20607774 -45.54466352 77.78725966 -50.61132812 82.14648438 C-54.27989554 85.40941 -57.68612599 88.93598712 -61.125 92.4375 C-65.87690214 97.27595773 -70.66655807 101.9646412 -75.83203125 106.36328125 C-79.94448392 109.97399678 -83.15552995 112.95128054 -84.4375 118.375 C-82.59077808 126.47216534 -74.89109623 131.62912113 -68.95947266 137.01123047 C-63.80215442 141.7062189 -58.8822924 146.61687451 -54.00195312 151.59790039 C-50.99834037 154.64414988 -47.95042831 157.56437945 -44.70703125 160.35546875 C-39.51830146 164.83257268 -34.77941374 169.73473629 -29.98046875 174.62109375 C-26.63544846 178.0028053 -23.27546403 181.29632281 -19.66796875 184.3984375 C-15.02696943 188.39209448 -10.74143542 192.71166504 -6.4375 197.0625 C-5.65697266 197.84753906 -4.87644531 198.63257813 -4.07226562 199.44140625 C-2.57653855 200.94601381 -1.08207981 202.45188367 0.41088867 203.95922852 C2.03690328 205.59696579 3.67198561 207.22449546 5.3125 208.84765625 C8.81410017 212.39567915 10.23675871 214.7328259 10.8125 219.75 C10.5671131 225.65043958 8.11929765 230.23792793 3.9375 234.3125 C-1.03119978 237.46338279 -4.6857284 238.37744604 -10.625 237.9375 C-12.11 236.9475 -12.11 236.9475 -13.625 235.9375 C-13.00625 235.40125 -12.3875 234.865 -11.75 234.3125 C-7.45181097 229.50864167 -7.35628688 224.2810272 -7.06640625 218.109375 C-8.64534447 209.1436559 -14.0052784 202.83126313 -20.4375 196.75 C-21.11103516 196.09064453 -21.78457031 195.43128906 -22.47851562 194.75195312 C-25.76860326 191.55631777 -29.13118863 188.47441789 -32.60546875 185.48046875 C-37.76628438 181.01062513 -42.48861641 176.12190515 -47.26953125 171.25390625 C-50.62828124 167.85831439 -54.00352424 164.55332231 -57.625 161.4375 C-62.79060744 156.99314748 -67.49792293 152.11242912 -72.26953125 147.25390625 C-76.25946709 143.22020512 -80.33846514 139.39643797 -84.63867188 135.69677734 C-88.11691009 132.61612535 -91.36190356 129.30526369 -94.625 126 C-95.30433594 125.31615234 -95.98367187 124.63230469 -96.68359375 123.92773438 C-98.33308359 122.26662841 -99.9801668 120.60321487 -101.625 118.9375 C-97.08434794 113.49444706 -92.27421611 108.43489646 -87.25 103.4375 C-86.53328125 102.71691406 -85.8165625 101.99632812 -85.078125 101.25390625 C-81.68233369 97.86424452 -78.25410512 94.56814724 -74.6171875 91.4375 C-70.22813018 87.65476161 -66.18304618 83.56946324 -62.125 79.4375 C-57.44172776 74.66892226 -52.70533648 70.08774034 -47.63867188 65.72851562 C-43.97010446 62.46559 -40.56387401 58.93901288 -37.125 55.4375 C-31.80999594 50.02568348 -26.38372613 44.87470156 -20.625 39.9375 C-13.95660334 34.04321241 -8.51172422 28.01116856 -7.18359375 18.9140625 C-6.91950431 12.14996511 -8.02749572 7.65118326 -11.625 1.9375 C-12.615 0.9475 -12.615 0.9475 -13.625 -0.0625 C-9.25630178 -2.24684911 -4.48869556 -1.31565215 0 0 Z " fill="#AB1355" transform="translate(275.625,257.0625)"/>
<path d="M0 0 C1.08081848 0.00015106 2.16163696 0.00030212 3.27520752 0.00045776 C4.43574646 0.01078033 5.5962854 0.02110291 6.79199219 0.03173828 C8.58138214 0.03598312 8.58138214 0.03598312 10.40692139 0.04031372 C14.21767195 0.05151025 18.02818764 0.07661426 21.83886719 0.10205078 C24.42219713 0.11208125 27.00553075 0.12120698 29.58886719 0.12939453 C35.92228068 0.15144789 42.25555715 0.18492043 48.58886719 0.22705078 C47.30457153 3.04435673 45.96492183 5.10164896 43.78027344 7.28961182 C43.20825195 7.86727295 42.63623047 8.44493408 42.046875 9.0401001 C41.42135742 9.66156921 40.79583984 10.28303833 40.15136719 10.92333984 C39.49104492 11.58716675 38.83072266 12.25099365 38.15039062 12.93493652 C35.96821864 15.12590554 33.77881883 17.3094848 31.58886719 19.49267578 C30.07164701 21.01124287 28.55472385 22.53010676 27.03808594 24.04925537 C23.86034021 27.22994935 20.67900531 30.40699792 17.49511719 33.58154297 C13.40575872 37.65948776 9.32546905 41.74637018 5.24780273 45.83600235 C2.1185514 48.97246373 -1.01542683 52.10416685 -4.15087891 55.23442841 C-5.65790829 56.74011993 -7.16344324 58.24730869 -8.66748047 59.75598907 C-10.76474305 61.8583049 -12.86826461 63.95414582 -14.97363281 66.04833984 C-15.59915039 66.67790588 -16.22466797 67.30747192 -16.86914062 67.95611572 C-21.18260278 72.22705078 -21.18260278 72.22705078 -23.41113281 72.22705078 C-23.56436027 65.04145914 -23.6687965 57.8562949 -23.74072266 50.66943359 C-23.77073384 48.22916927 -23.81155654 45.78901134 -23.86376953 43.34912109 C-24.42103069 16.62243908 -24.42103069 16.62243908 -17.41113281 8.22705078 C-14.89036146 5.85503308 -12.42652296 3.92397075 -9.41113281 2.22705078 C-8.82293762 1.87933624 -8.23474243 1.5316217 -7.62872314 1.17337036 C-4.93359199 0.02326822 -2.92725685 -0.01367877 0 0 Z " fill="#8E542C" transform="translate(411.4111328125,392.77294921875)"/>
<path d="M0 0 C1.81486656 -0.01908669 1.81486656 -0.01908669 3.66639709 -0.03855896 C5.00404553 -0.03237674 6.34169207 -0.02577072 7.67933655 -0.01878357 C9.09052432 -0.02584223 10.50170451 -0.03458703 11.91287231 -0.04489136 C15.74355147 -0.06740225 19.57381779 -0.06444175 23.40453792 -0.05556989 C26.60291334 -0.05046114 29.80121111 -0.05775166 32.99957854 -0.06504196 C40.54524394 -0.08204656 48.09070715 -0.07846982 55.6363678 -0.06175232 C63.41980528 -0.04483095 71.20268195 -0.06066407 78.98605818 -0.0929752 C85.66985567 -0.11967005 92.35347857 -0.12694741 99.03732401 -0.11846012 C103.02875212 -0.11353043 107.01984279 -0.11574829 111.01122856 -0.13624763 C114.76498834 -0.1546034 118.51794152 -0.14864857 122.27165794 -0.12404823 C123.64829353 -0.11903979 125.02499056 -0.1225312 126.401577 -0.13519669 C138.10187843 -0.23432046 138.10187843 -0.23432046 141.40835571 2.86660767 C143.48417892 6.1434948 143.80028329 7.70424985 143.08583069 11.5146637 C141.28589294 14.21457031 140.00205769 16.0565502 137.08583069 17.5146637 C135.22212737 17.61889858 133.35468721 17.65855133 131.48809814 17.66856384 C130.29776474 17.67716431 129.10743134 17.68576477 127.88102722 17.69462585 C125.91188858 17.70101578 125.91188858 17.70101578 123.90296936 17.70753479 C122.51178787 17.7154351 121.12060843 17.723704 119.72943115 17.73231506 C115.15424051 17.75854258 110.57904068 17.773843 106.00379944 17.7881012 C104.42950751 17.7934605 102.85521565 17.79883801 101.28092384 17.80423355 C94.73299929 17.82586298 88.18507721 17.84460025 81.63712597 17.85585594 C72.24922146 17.87209893 62.86173059 17.90528402 53.47398204 17.96225679 C46.87519197 18.00094021 40.27651262 18.02048669 33.67761213 18.02577651 C29.73527734 18.0294321 25.79338366 18.04147463 21.85117149 18.07387924 C18.14183914 18.10393246 14.4332154 18.11028212 10.72378731 18.09849548 C8.71486409 18.09816921 6.70598478 18.12265306 4.69721985 18.14787292 C-5.1191174 18.07975689 -5.1191174 18.07975689 -8.22305298 15.10929871 C-10.8583716 11.06599912 -10.59385338 9.2724522 -9.91416931 4.5146637 C-6.95198029 0.57711361 -4.83264051 0.01289772 0 0 Z " fill="#050403" transform="translate(176.91416931152344,153.48533630371094)"/>
<path d="M0 0 C4.36887924 0.6934729 5.2943714 1.23164848 7.9375 4.625 C8.44365788 7.1050415 8.44365788 7.1050415 8.4521637 9.93847656 C8.46488815 11.0152063 8.47761261 12.09193604 8.49072266 13.20129395 C8.48419678 14.37752319 8.4776709 15.55375244 8.47094727 16.765625 C8.47956284 18.00824097 8.48817841 19.25085693 8.49705505 20.53112793 C8.51587027 23.93634151 8.51660939 27.34058242 8.50773358 30.74577332 C8.5026231 33.5888446 8.50991661 36.4318286 8.51720566 39.2748909 C8.53420532 45.98151532 8.53063784 52.68791221 8.51391602 59.39453125 C8.49698795 66.31346175 8.51283777 73.23176168 8.5451389 80.15062332 C8.57182644 86.09216607 8.57911334 92.03351243 8.57062382 97.9751091 C8.56569281 101.52330268 8.56791904 105.0711167 8.58841133 108.6192627 C8.61016185 112.57455185 8.59137913 116.52907933 8.56860352 120.484375 C8.58614182 122.24871887 8.58614182 122.24871887 8.60403442 124.04870605 C8.51114474 131.9527197 8.51114474 131.9527197 5.61680603 135.34472656 C2.01163927 137.06741117 -0.11632735 137.32967369 -4.0625 136.625 C-7.20242386 133.93912595 -8.77246216 132.20446412 -9.52431107 128.11010742 C-9.71473151 124.94890731 -9.73787568 121.82314456 -9.70947266 118.65625 C-9.71823425 117.45556885 -9.72699585 116.2548877 -9.73602295 115.01782227 C-9.75422027 111.73654449 -9.75001065 108.45628029 -9.73412752 105.17501831 C-9.72143123 101.73449645 -9.73321894 98.29404026 -9.74105835 94.85351562 C-9.75014417 89.07670002 -9.73819543 83.30020447 -9.71435547 77.5234375 C-9.68714574 70.8532776 -9.69596069 64.18388193 -9.7234875 57.51374054 C-9.7462084 51.77762582 -9.74936426 46.0417406 -9.73629415 40.3055954 C-9.7285158 36.88369731 -9.72741282 33.46215796 -9.74397659 30.0402832 C-9.75667494 26.22424656 -9.7373182 22.40967734 -9.70947266 18.59375 C-9.71959381 17.46525635 -9.72971497 16.3367627 -9.74014282 15.17407227 C-9.6247141 6.6356451 -9.6247141 6.6356451 -6.65316772 2.92236328 C-3.17276839 -0.16399996 -3.17276839 -0.16399996 0 0 Z " fill="#070604" transform="translate(448.0625,170.375)"/>
<path d="M0 0 C5.00925243 3.75693932 9.06251258 6.81601813 13.3125 11.15234375 C13.77052002 11.61556534 14.22854004 12.07878693 14.70043945 12.55604553 C16.13860778 14.01172522 17.56979725 15.47399715 19 16.9375 C27.38666066 25.50482385 27.38666066 25.50482385 36.34375 33.46704102 C38.16904742 35.15646355 39.56492826 36.97400029 41 39 C39.83687329 40.19096751 38.66923328 41.37752704 37.5 42.5625 C36.8503125 43.22378906 36.200625 43.88507813 35.53125 44.56640625 C33.48246785 46.53614588 31.40342662 48.39135445 29.25 50.2421875 C23.99829121 54.80194817 19.19704852 59.78439264 14.35546875 64.77148438 C13.65035156 65.48755859 12.94523437 66.20363281 12.21875 66.94140625 C11.59935547 67.57763916 10.97996094 68.21387207 10.34179688 68.86938477 C7.09828518 71.82039879 3.50805718 74.36895711 0 77 C0 51.59 0 26.18 0 0 Z " fill="#FCDDB0" transform="translate(72,337)"/>
<path d="M0 0 C1.08023438 -0.01095703 2.16046875 -0.02191406 3.2734375 -0.03320312 C7.91943068 0.00981533 11.1032799 0.06225907 15.20703125 2.3515625 C17.34281431 4.98522963 17.63479165 7.1046159 17.76171875 10.46484375 C16.48682813 13.97569637 14.24480561 15.92685228 11 17.5625 C7.29165214 18.25367603 3.69916704 18.2168691 -0.0625 18.125 C-1.04283203 18.13595703 -2.02316406 18.14691406 -3.03320312 18.15820312 C-7.51213553 18.11259282 -10.24280226 18.02591639 -14.12109375 15.65234375 C-16.36118836 13.16076243 -16.93120575 12.07845691 -17.375 8.75 C-17 5.5625 -17 5.5625 -15.2265625 2.8984375 C-10.35284536 -0.6299921 -5.86408489 -0.12945772 0 0 Z " fill="#070605" transform="translate(132,153.4375)"/>
<path d="M0 0 C0.99451172 -0.03738281 1.98902344 -0.07476562 3.01367188 -0.11328125 C11.28809934 -0.21237619 11.28809934 -0.21237619 14.98046875 2.6796875 C17.3125 5.375 17.3125 5.375 17.9375 8.875 C17.16953197 13.17562099 16.66932909 14.53938796 13.3125 17.375 C9.13936787 18.11676857 5.03943325 18.02585962 0.8125 17.9375 C-0.32832031 17.94845703 -1.46914062 17.95941406 -2.64453125 17.97070312 C-11.03086792 17.89679299 -11.03086792 17.89679299 -13.97851562 15.55444336 C-16.41344955 12.4492069 -16.75632449 10.29799596 -16.6875 6.375 C-14.3125 3.5 -14.3125 3.5 -11.6875 1.375 C-9.26684781 -1.04565219 -3.24515649 0.0453868 0 0 Z " fill="#070605" transform="translate(131.6875,101.625)"/>
<path d="M0 0 C1.00675781 -0.01224609 2.01351562 -0.02449219 3.05078125 -0.03710938 C4.02144531 -0.03904297 4.99210937 -0.04097656 5.9921875 -0.04296875 C6.88019043 -0.04707764 7.76819336 -0.05118652 8.68310547 -0.05541992 C11.33654599 0.20854462 12.89623808 0.73835236 15.125 2.1875 C17.62531654 5.93797482 17.66103554 7.74606266 17.125 12.1875 C15.3515625 14.87890625 15.3515625 14.87890625 12.125 17.1875 C8.09149949 17.90658951 4.14867212 17.83983266 0.0625 17.75 C-1.02611328 17.76095703 -2.11472656 17.77191406 -3.23632812 17.78320312 C-11.22154571 17.70949342 -11.22154571 17.70949342 -14.15405273 15.36694336 C-16.58484438 12.28853834 -16.875 10.08086946 -16.875 6.1875 C-12.37849844 -0.94488178 -7.7337277 0.00491342 0 0 Z " fill="#050403" transform="translate(131.875,50.8125)"/>
<path d="M0 0 C3.96282859 0.97332632 5.08348534 1.72207844 7.5625 4.875 C8.08007812 7.56054688 8.08007812 7.56054688 8.09375 10.59375 C8.09890625 11.69074219 8.1040625 12.78773438 8.109375 13.91796875 C8.09390625 15.05878906 8.0784375 16.19960938 8.0625 17.375 C8.07796875 18.51582031 8.0934375 19.65664063 8.109375 20.83203125 C8.10421875 21.92902344 8.0990625 23.02601563 8.09375 24.15625 C8.08923828 25.15720703 8.08472656 26.15816406 8.08007812 27.18945312 C7.42130452 30.60761807 6.30916298 31.78773007 3.5625 33.875 C-1.92345506 34.74578652 -1.92345506 34.74578652 -4.4375 33.875 C-7.48907381 31.2087038 -9.13302473 29.50376733 -9.88256836 25.49414062 C-10.03812221 22.74985395 -10.02138294 20.05966639 -9.9375 17.3125 C-9.94007813 16.37986328 -9.94265625 15.44722656 -9.9453125 14.48632812 C-9.87471435 9.53386777 -9.75319306 5.82411556 -6.4375 1.875 C-3.4375 -0.125 -3.4375 -0.125 0 0 Z " fill="#070605" transform="translate(448.4375,324.125)"/>
<path d="M0 0 C0.33 0 0.66 0 1 0 C1 2.64 1 5.28 1 8 C-10.55 8 -22.1 8 -34 8 C-34 7.67 -34 7.34 -34 7 C-33.18321777 7.00112793 -32.36643555 7.00225586 -31.52490234 7.00341797 C-27.80743735 6.99127801 -24.09201105 6.93359328 -20.375 6.875 C-19.08980469 6.87757813 -17.80460937 6.88015625 -16.48046875 6.8828125 C-8.5800397 6.94755127 -8.5800397 6.94755127 -2.1640625 2.9453125 C-1.44992187 1.97335937 -0.73578125 1.00140625 0 0 Z " fill="#D7BC95" transform="translate(370,470)"/>
<path d="M0 0 C0.33 0 0.66 0 1 0 C1 2.31 1 4.62 1 7 C-1.31 7 -3.62 7 -6 7 C-5.02433888 5.83040013 -4.044375 4.66438823 -3.0625 3.5 C-2.51722656 2.8503125 -1.97195313 2.200625 -1.41015625 1.53125 C-0.71212891 0.77328125 -0.71212891 0.77328125 0 0 Z " fill="#E0C59C" transform="translate(370,470)"/>
</svg>
