<?xml version="1.0" encoding="UTF-8"?>
<svg version="1.1" xmlns="http://www.w3.org/2000/svg" width="512" height="512">
<path d="M0 0 C1.69793701 0.57234375 1.69793701 0.57234375 3.43017578 1.15625 C18.76833436 6.36096901 33.97093562 11.95951185 49 18 C48 20 48 20 46.35115051 20.75372314 C45.27398018 21.11007843 45.27398018 21.11007843 44.17504883 21.47363281 C43.35536621 21.74916489 42.53568359 22.02469696 41.69116211 22.30857849 C40.78889893 22.60377884 39.88663574 22.89897919 38.95703125 23.203125 C38.01827148 23.5173793 37.07951172 23.83163361 36.11230469 24.15541077 C34.07905707 24.83595156 32.04480124 25.51348572 30.00967407 26.18838501 C24.6144734 27.97985015 19.22877811 29.79931531 13.84375 31.62109375 C12.75439651 31.98949875 11.66504303 32.35790375 10.54267883 32.73747253 C-14.91468749 41.37859759 -40.06778882 50.9511673 -65 61 C-65.70860168 61.28490295 -66.41720337 61.56980591 -67.14727783 61.86334229 C-98.02708734 74.28149848 -128.47094276 87.53732327 -158.625 101.625 C-159.33524323 101.95516113 -160.04548645 102.28532227 -160.7772522 102.62548828 C-177.40140383 110.36843695 -190.96108352 117.34484251 -198.31201172 135.06811523 C-201.8939716 145.12632977 -201.69121267 156.13864149 -202.125 166.6875 C-202.18853668 168.14762009 -202.18853668 168.14762009 -202.25335693 169.63723755 C-203.59695542 201.39747675 -203.17977323 233.21947641 -203 265 C-199.52714164 265.91422212 -199.52714164 265.91422212 -196.10302734 265.3190918 C-195.22831787 264.76475464 -195.22831787 264.76475464 -194.3359375 264.19921875 C-193.36527344 263.59883789 -193.36527344 263.59883789 -192.375 262.98632812 C-191.715 262.55771484 -191.055 262.12910156 -190.375 261.6875 C-189.70726562 261.27048828 -189.03953125 260.85347656 -188.3515625 260.42382812 C-185.53710448 258.65916294 -182.76413897 256.84275931 -180 255 C-175.96579674 255.07802213 -173.78573567 255.23983981 -170.83984375 258.08984375 C-170.21207031 259.02957031 -169.58429688 259.96929687 -168.9375 260.9375 C-168.19113281 262.00742187 -167.44476563 263.07734375 -166.67578125 264.1796875 C-166.26150879 264.78006836 -165.84723633 265.38044922 -165.42041016 265.99902344 C-162.61607161 269.94958354 -159.6058051 273.74450649 -156.625 277.5625 C-156.017771 278.34810303 -155.41054199 279.13370605 -154.78491211 279.94311523 C-154.20878174 280.68505127 -153.63265137 281.4269873 -153.0390625 282.19140625 C-152.52553223 282.85342041 -152.01200195 283.51543457 -151.48291016 284.19750977 C-150.05589674 285.93205702 -148.71439463 287.54597302 -147 289 C-144.3727086 288.92466753 -144.3727086 288.92466753 -142 288 C-140.80096211 285.60192421 -140.8854666 284.15002423 -140.90234375 281.47338867 C-140.90723061 280.04558075 -140.90723061 280.04558075 -140.91221619 278.58892822 C-140.92055984 277.5425116 -140.9289035 276.49609497 -140.9375 275.41796875 C-140.9461898 273.14510146 -140.95472769 270.87223359 -140.96313477 268.59936523 C-140.96934845 267.3917453 -140.97556213 266.18412537 -140.98196411 264.93991089 C-141.08452951 243.6009282 -140.96943508 222.27282407 -140.5625 200.9375 C-140.54276123 199.83296478 -140.52302246 198.72842957 -140.50268555 197.59042358 C-139.68345504 152.52473897 -139.68345504 152.52473897 -124.1015625 136.703125 C-117.08022029 131.01296663 -109.01240032 127.63041032 -100.75 124.125 C-99.4230539 123.55717256 -98.09623434 122.98904931 -96.76953125 122.4206543 C-93.23385348 120.90910021 -89.6937468 119.40821203 -86.15209961 117.91070557 C-84.04119056 117.01743064 -81.93157961 116.12115508 -79.82226562 115.22412109 C-40.69120708 98.60041601 -1.03106833 83.31305853 39 69 C39.80072937 68.71360657 40.60145874 68.42721313 41.42645264 68.13214111 C52.17435968 64.29195223 62.94300885 60.5143255 73.73028564 56.78625488 C76.05960746 55.9793513 78.38712552 55.16740774 80.71435547 54.35449219 C84.55648221 53.01374205 88.40350816 51.68806871 92.25463867 50.37341309 C93.69273876 49.8803479 95.1293153 49.38281302 96.56420898 48.88049316 C98.53730547 48.19109096 100.515563 47.51925363 102.49609375 46.8515625 C103.61169678 46.46822754 104.7272998 46.08489258 105.87670898 45.68994141 C112.23476488 44.28543379 117.02203924 46.70676854 122.64453125 49.5 C123.37258469 49.85457275 124.10063812 50.20914551 124.85075378 50.57446289 C126.39308736 51.32741784 127.93360947 52.08409328 129.47241211 52.84423828 C131.76356697 53.97583214 134.0598253 55.09639762 136.35742188 56.21484375 C144.02410355 59.96080243 151.64167033 63.79969621 159.203125 67.75390625 C159.88546707 68.10690796 160.56780914 68.45990967 161.27082825 68.8236084 C183.5767279 80.60651581 200.34667453 101.24589097 207.875 125.25 C210.83544252 135.06293535 212.28071623 144.80213373 212.58984375 155.0390625 C212.62665756 156.07020172 212.66347137 157.10134094 212.70140076 158.16372681 C213.1129264 170.23109611 213.357278 182.30262035 213.5625 194.375 C213.59376984 196.16502441 213.59376984 196.16502441 213.62567139 197.99121094 C213.92887403 215.6605863 214.10432605 233.32804489 214.125 251 C214.1275882 251.9963446 214.13017639 252.99268921 214.13284302 254.01922607 C214.16322116 268.70240031 213.71656439 283.33465645 213 298 C211.7217457 297.04584036 210.44411557 296.09084451 209.16674805 295.13549805 C208.45520065 294.60377487 207.74365326 294.0720517 207.01054382 293.5242157 C205.42741542 292.3240284 203.87382261 291.08487781 202.33203125 289.83203125 C175.10595389 268.00895839 138.35260143 258.15060163 103.82250977 261.51342773 C66.62932657 265.6346621 33.77919156 283.0539855 9.1796875 311.2578125 C-16.44380493 343.49381911 -25.55036553 381.66634493 -21.57421875 422.3671875 C-18.58403356 445.27445415 -8.45987325 468.08535934 6 486 C6.82371094 487.02480469 7.64742188 488.04960937 8.49609375 489.10546875 C10.6464371 491.75230323 12.81336752 494.38312734 15 497 C14 499 14 499 12.11743164 499.83789062 C11.30653076 500.10794922 10.49562988 500.37800781 9.66015625 500.65625 C8.31147461 501.10677734 8.31147461 501.10677734 6.93554688 501.56640625 C5.98744141 501.87449219 5.03933594 502.18257813 4.0625 502.5 C3.14919922 502.80808594 2.23589844 503.11617188 1.29492188 503.43359375 C-19.10989838 510.16299661 -42.53700755 510.94237694 -63 504 C-64.05219727 503.6503418 -65.10439453 503.30068359 -66.18847656 502.94042969 C-206.09783746 455.97222563 -206.09783746 455.97222563 -244 421 C-244.763125 420.32839844 -245.52625 419.65679687 -246.3125 418.96484375 C-265.58123961 401.06766373 -274.51407903 375.35317645 -275.52734375 349.63671875 C-275.56866928 348.63130539 -275.60999481 347.62589203 -275.65257263 346.5900116 C-276.10854179 335.00078161 -276.35926992 323.40854473 -276.5625 311.8125 C-276.58334656 310.64614014 -276.60419312 309.47978027 -276.62567139 308.27807617 C-277.30010902 269.58083475 -277.25413069 230.88407007 -276.5625 192.1875 C-276.5429425 191.07157471 -276.52338501 189.95564941 -276.50323486 188.8059082 C-276.29572214 177.34301619 -276.00317636 165.88541538 -275.54296875 154.4296875 C-275.50796768 153.49710617 -275.47296661 152.56452484 -275.43690491 151.60368347 C-274.42727267 128.33161385 -265.72001378 106.20813901 -250 89 C-249.30261719 88.22140625 -248.60523438 87.4428125 -247.88671875 86.640625 C-238.04260972 76.20263005 -225.66241098 69.40040989 -213 63 C-211.94720352 62.46308029 -211.94720352 62.46308029 -210.87313843 61.91531372 C-164.27564384 38.17210882 -115.6719287 17.90671334 -66.125 1.1875 C-65.21766113 0.88005859 -64.31032227 0.57261719 -63.37548828 0.25585938 C-43.34861887 -6.31133113 -20.02413514 -6.82443663 0 0 Z " fill="#F88734" transform="translate(282,4)"/>
<path d="M0 0 C20.75028172 -0.59087904 39.74950465 5.08878902 57.70703125 15.12109375 C58.69316406 15.66507812 59.67929687 16.2090625 60.6953125 16.76953125 C84.55990186 30.92941785 100.7006382 55.41457257 107.703125 81.88671875 C114.5067256 111.96579509 109.18569151 139.99069974 93.8359375 166.33203125 C80.45066098 187.53698075 59.62416371 203.57820461 35.70703125 211.12109375 C34.46566406 211.51425781 33.22429687 211.90742188 31.9453125 212.3125 C5.65682921 219.74466446 -25.14310477 216.47989518 -49.02832031 203.15283203 C-73.29567825 189.08043852 -91.58485354 167.95041403 -100.29296875 141.12109375 C-100.50324707 140.48494141 -100.71352539 139.84878906 -100.93017578 139.19335938 C-109.20962497 112.84071825 -105.67315242 82.57000992 -93.29296875 58.12109375 C-79.50416575 32.92373588 -57.74591121 13.88567888 -30.29296875 5.12109375 C-20.24999053 2.22394752 -10.43544158 0.55110509 0 0 Z M27.19873047 74.47119141 C25.01859905 76.88253807 22.71377971 79.156706 20.39453125 81.43359375 C17.60799229 84.18486006 14.93034609 86.95028218 12.39453125 89.93359375 C8.66316841 94.3030994 4.5733951 98.2876147 0.48535156 102.31884766 C-3.16101994 105.9323785 -6.60032522 109.63445044 -9.828125 113.6328125 C-11.49843688 115.32984937 -13.15587406 116.1054475 -15.29296875 117.12109375 C-17.48374965 114.95765963 -19.67105245 112.79094178 -21.85546875 110.62109375 C-22.50153076 109.98123535 -23.14759277 109.34137695 -23.81323242 108.68212891 C-27.09595227 105.40728726 -30.20871864 102.12392841 -33.10546875 98.49609375 C-36.51868424 94.52823074 -40.18445504 92.32113612 -45.29296875 91.12109375 C-51.27445111 90.68141358 -56.16991682 91.75126094 -60.8203125 95.62109375 C-65.88957674 100.78448226 -66.7440858 105.16224325 -66.921875 112.1796875 C-65.02555487 121.0488121 -57.68029269 127.06965334 -51.41796875 133.12109375 C-45.45315494 138.93612642 -39.71108155 144.79372214 -34.29296875 151.12109375 C-28.12002371 157.90532068 -23.37266313 162.95407671 -13.85546875 163.62109375 C-2.95868831 163.08999017 4.74910885 152.54749873 11.70703125 145.12109375 C13.4241649 143.19582269 15.10177795 141.24529264 16.76953125 139.27734375 C20.01138734 135.66947165 23.5011424 132.30785829 26.94921875 128.8984375 C29.81277242 126.05467798 32.59580315 123.20234291 35.20703125 120.12109375 C38.3458591 116.41727689 41.75786383 113.03204995 45.20703125 109.62109375 C49.32515255 105.54420593 53.34167967 101.45184788 57.08203125 97.01953125 C58.29795019 95.59901056 59.5551955 94.21368273 60.83203125 92.84765625 C66.91043252 86.42874706 66.91043252 86.42874706 68.7265625 78 C68.37797843 72.41323373 66.99204512 68.64908584 63.70703125 64.12109375 C48.67773403 52.46572039 37.56876567 62.74266511 27.19873047 74.47119141 Z " fill="#FEA147" transform="translate(396.29296875,296.87890625)"/>
</svg>
