<?xml version="1.0" encoding="UTF-8"?>
<svg version="1.1" xmlns="http://www.w3.org/2000/svg" width="512" height="512">
<path d="M0 0 C1.11785814 -0.00445784 2.23571628 -0.00891569 3.38744891 -0.01350862 C5.2220028 -0.01323207 5.2220028 -0.01323207 7.09361839 -0.01294994 C8.39686605 -0.01662663 9.7001137 -0.02030332 11.04285371 -0.02409142 C14.65882539 -0.03409131 18.27478046 -0.03782496 21.890764 -0.04048073 C25.79140726 -0.04438972 29.69203745 -0.05396759 33.59267235 -0.0626936 C43.01155748 -0.08244042 52.43044366 -0.09252161 61.84934431 -0.10142139 C66.2869747 -0.1058069 70.7246039 -0.111173 75.16223335 -0.11641026 C89.9171893 -0.13342018 104.67214452 -0.14791411 119.42710876 -0.155159 C123.25461516 -0.15706883 127.08212154 -0.15898917 130.90962791 -0.16094494 C132.33655362 -0.16167055 132.33655362 -0.16167055 133.79230611 -0.16241082 C149.20079327 -0.17071028 164.60920278 -0.19604685 180.01765604 -0.22852562 C195.84369268 -0.26161217 211.66968987 -0.27960917 227.49576128 -0.28280324 C236.37889954 -0.28496677 245.26192454 -0.29369259 254.14502907 -0.31926441 C261.71049466 -0.34099315 269.27581946 -0.34901112 276.84131272 -0.33929763 C280.6989279 -0.33475931 284.55625272 -0.33661162 288.4138279 -0.35605907 C292.60286752 -0.37699452 296.79126595 -0.36668515 300.98033714 -0.35352612 C302.18998874 -0.36449536 303.39964034 -0.37546461 304.64594805 -0.38676625 C314.6608929 -0.3109508 325.04262125 1.83266671 332.4179287 9.13422108 C338.43180129 16.65156182 340.71641833 23.35891058 340.72432518 32.89008045 C340.7326487 33.74938663 340.74097221 34.60869282 340.74954796 35.49403858 C340.77355718 38.32206271 340.78240741 41.14985599 340.78902245 43.97797108 C340.7979932 45.95042456 340.80711513 47.92287736 340.81638145 49.89532948 C340.83284754 54.02429322 340.84056767 58.15317608 340.84346581 62.2821703 C340.84885793 67.56838187 340.88658255 72.85383234 340.93220997 78.13982868 C340.9619688 82.21137738 340.96918905 86.28274214 340.97019196 90.35439014 C340.97439385 92.30322742 340.9868269 94.25206526 341.0077095 96.20079517 C341.03460956 98.9272201 341.02980377 101.6518712 341.01729393 104.3783617 C341.03954536 105.58018841 341.03954536 105.58018841 341.06224632 106.80629444 C340.98577589 112.66817304 339.38292578 114.88273395 335.4179287 119.13422108 C334.9199195 121.93642165 334.69501104 124.1480685 334.71089745 126.93890858 C334.69577614 127.66288837 334.68065483 128.38686817 334.6650753 129.13278675 C334.62238826 131.42525303 334.61337985 133.71639794 334.6054287 136.00922108 C334.58226924 137.57175574 334.55690088 139.13425932 334.52925682 140.69672108 C334.46659366 144.50933687 334.43411003 148.32113619 334.4179287 152.13422108 C335.30963768 152.12044422 336.20134666 152.10666737 337.12007713 152.09247303 C344.4122713 152.02772925 351.45814827 152.22267353 358.6679287 153.32172108 C359.55778465 153.45554188 360.44764061 153.58936268 361.3644619 153.72723866 C387.44475751 157.89108555 411.54934285 168.63891195 431.4179287 186.13422108 C432.26999901 186.86511951 433.12206932 187.59601795 433.99995995 188.34906483 C444.05673852 197.13909095 452.21343565 206.91133751 459.4179287 218.13422108 C460.0985537 219.19125233 460.7791787 220.24828358 461.4804287 221.33734608 C480.20066022 252.19647772 486.13544829 292.46652746 477.6757412 327.58734608 C467.28134779 366.36452844 443.00554584 398.14465791 408.4179287 418.51703358 C389.52358736 429.26578435 367.0026956 436.24380379 345.15620995 436.15375233 C343.82070091 436.14952259 343.82070091 436.14952259 342.4582119 436.14520741 C341.78491844 436.14158192 341.11162498 436.13795643 340.4179287 436.13422108 C340.42681114 436.76569553 340.43569359 437.39716999 340.4448452 438.04778004 C340.53369168 444.65063853 340.59381733 451.25332578 340.63765526 457.85663319 C340.65770682 460.31731539 340.68495517 462.77795033 340.71968651 465.23846912 C340.76848749 468.78587006 340.79096297 472.33263814 340.8085537 475.88031483 C340.82919884 476.97129978 340.84984398 478.06228474 340.87111473 479.18632984 C340.87311574 486.07704943 339.8041898 491.12056672 336.4179287 497.13422108 C336.04992149 497.78978489 335.68191429 498.4453487 335.30275536 499.12077808 C331.34920316 505.78010604 323.98214076 509.70165969 316.67317832 511.71600854 C311.67540647 512.64279323 306.5600935 512.41063532 301.49500084 512.39491749 C300.18933877 512.39874304 298.8836767 512.40256858 297.53844911 512.40651006 C293.9250367 512.41677998 290.31172362 512.41461081 286.6983031 512.41032946 C282.79702874 512.40786038 278.89577818 512.41687871 274.99451256 512.42436695 C267.35529864 512.43711132 259.71611987 512.43890793 252.07689711 512.43656669 C245.86623777 512.43478293 239.65558909 512.43653442 233.44493103 512.44079113 C232.56065109 512.44138632 231.67637115 512.44198151 230.76529485 512.44259473 C228.9688029 512.4438065 227.17231095 512.44502063 225.37581901 512.44623711 C208.53066408 512.45711183 191.68552918 512.45495059 174.84037314 512.44885226 C159.43781601 512.44368427 144.03532215 512.45493555 128.63277753 512.47395048 C112.81006802 512.49333405 96.98738842 512.5015839 81.16466695 512.49782723 C72.28441271 512.49591583 63.40421229 512.49839669 54.52396774 512.51254177 C46.96328888 512.52446321 39.40269698 512.52585197 31.8420169 512.5137516 C27.98659055 512.50786801 24.13132322 512.50674897 20.27590752 512.51875401 C16.09108186 512.53163298 11.90663366 512.5211359 7.72180748 512.50844288 C6.51060728 512.51581716 5.29940708 512.52319145 4.05150384 512.5307892 C-6.16533308 512.46564776 -14.55930678 510.87212278 -22.5351963 504.23968983 C-28.99689654 497.59301726 -31.73316686 490.63499768 -31.72187901 481.52090263 C-31.72630614 480.34092987 -31.72630614 480.34092987 -31.73082271 479.13711926 C-31.73954236 476.47908441 -31.74109696 473.82109293 -31.74270058 471.16304493 C-31.74742962 469.24685005 -31.75258026 467.33065617 -31.75811821 465.41446346 C-31.77205047 460.13127776 -31.77961531 454.84809897 -31.78609121 449.56489956 C-31.79245491 445.03759289 -31.80252608 440.51029761 -31.81265187 435.98299802 C-31.84600442 421.0639162 -31.86750348 406.14482746 -31.88585171 391.22572055 C-31.89064551 387.34146419 -31.89562898 383.4572081 -31.90065694 379.57295203 C-31.93162884 355.45964224 -31.95832289 331.34633126 -31.97507572 307.23300743 C-31.97901293 301.64547247 -31.98302478 296.05793757 -31.9871006 290.47040272 C-31.98760227 289.77622379 -31.98810394 289.08204486 -31.98862081 288.36683021 C-32.00503243 265.86885938 -32.04347931 243.37099743 -32.09438771 220.87308014 C-32.14811594 197.08559103 -32.17979742 173.29818125 -32.18727261 149.51062912 C-32.19193604 136.54453556 -32.20669976 123.57862215 -32.24701691 110.61258602 C-32.28131361 99.56919497 -32.2952576 88.52601656 -32.28259277 77.4825753 C-32.27676501 71.84862904 -32.28063877 66.2151325 -32.31076241 60.58125401 C-32.33813526 55.41966566 -32.33761785 50.25884633 -32.31525195 45.0972408 C-32.31203091 43.23372626 -32.31888629 41.37016014 -32.33704918 39.50673134 C-32.44209814 28.02991468 -31.90309073 18.18975445 -23.80708402 9.15297705 C-17.10164089 2.78807027 -9.12519822 0.01692665 0 0 Z " fill="#FEDD54" transform="translate(31.58207130432129,-0.13422107696533203)"/>
<path d="M0 0 C1.11785814 -0.00445784 2.23571628 -0.00891569 3.38744891 -0.01350862 C5.2220028 -0.01323207 5.2220028 -0.01323207 7.09361839 -0.01294994 C8.39686605 -0.01662663 9.7001137 -0.02030332 11.04285371 -0.02409142 C14.65882539 -0.03409131 18.27478046 -0.03782496 21.890764 -0.04048073 C25.79140726 -0.04438972 29.69203745 -0.05396759 33.59267235 -0.0626936 C43.01155748 -0.08244042 52.43044366 -0.09252161 61.84934431 -0.10142139 C66.2869747 -0.1058069 70.7246039 -0.111173 75.16223335 -0.11641026 C89.9171893 -0.13342018 104.67214452 -0.14791411 119.42710876 -0.155159 C123.25461516 -0.15706883 127.08212154 -0.15898917 130.90962791 -0.16094494 C132.33655362 -0.16167055 132.33655362 -0.16167055 133.79230611 -0.16241082 C149.20079327 -0.17071028 164.60920278 -0.19604685 180.01765604 -0.22852562 C195.84369268 -0.26161217 211.66968987 -0.27960917 227.49576128 -0.28280324 C236.37889954 -0.28496677 245.26192454 -0.29369259 254.14502907 -0.31926441 C261.71049466 -0.34099315 269.27581946 -0.34901112 276.84131272 -0.33929763 C280.6989279 -0.33475931 284.55625272 -0.33661162 288.4138279 -0.35605907 C292.60286752 -0.37699452 296.79126595 -0.36668515 300.98033714 -0.35352612 C302.18998874 -0.36449536 303.39964034 -0.37546461 304.64594805 -0.38676625 C314.6608929 -0.3109508 325.04262125 1.83266671 332.4179287 9.13422108 C338.43180129 16.65156182 340.71641833 23.35891058 340.72432518 32.89008045 C340.7326487 33.74938663 340.74097221 34.60869282 340.74954796 35.49403858 C340.77355718 38.32206271 340.78240741 41.14985599 340.78902245 43.97797108 C340.7979932 45.95042456 340.80711513 47.92287736 340.81638145 49.89532948 C340.83284754 54.02429322 340.84056767 58.15317608 340.84346581 62.2821703 C340.84885793 67.56838187 340.88658255 72.85383234 340.93220997 78.13982868 C340.9619688 82.21137738 340.96918905 86.28274214 340.97019196 90.35439014 C340.97439385 92.30322742 340.9868269 94.25206526 341.0077095 96.20079517 C341.03460956 98.9272201 341.02980377 101.6518712 341.01729393 104.3783617 C341.03954536 105.58018841 341.03954536 105.58018841 341.06224632 106.80629444 C341.00950543 110.84917388 340.61712791 113.39709102 338.06796837 116.61896229 C333.9498414 120.52764152 330.29224397 120.47076757 324.8632412 120.42328358 C321.40457126 120.01443122 319.73590562 118.66950834 317.4179287 116.13422108 C314.92050888 112.38809135 315.12529841 109.45252158 315.13081932 105.11444569 C315.12398628 104.29792027 315.11715324 103.48139484 315.11011314 102.64012623 C315.09652357 100.86734681 315.08747129 99.09452817 315.08240318 97.32170391 C315.07412672 94.5189627 315.05363494 91.71654928 315.02986717 88.91389942 C314.97340271 81.9546341 314.93820166 74.99528936 314.90224266 68.03589344 C314.8710499 62.15398267 314.83190183 56.27223117 314.78198814 50.39044857 C314.7618597 47.62394212 314.75358877 44.85755749 314.74568748 42.09099293 C314.73272051 40.40219135 314.71920101 38.7133939 314.70503807 37.02460194 C314.70601997 36.25104359 314.70700188 35.47748524 314.70801353 34.68048573 C314.80438978 30.44748378 314.80438978 30.44748378 312.4179287 27.13422108 C310.0293341 26.83289294 310.0293341 26.83289294 307.20550919 26.88812542 C306.09345737 26.88414368 304.98140556 26.88016193 303.83565521 26.87605953 C302.60450926 26.88188486 301.3733633 26.88771019 300.1049099 26.89371204 C298.15921608 26.89114399 298.15921608 26.89114399 296.17421532 26.88852406 C292.55449162 26.88402007 288.93488535 26.89208936 285.31517658 26.90207562 C281.35911762 26.91077916 277.4030645 26.90788837 273.4469986 26.90643978 C265.75980396 26.90537434 258.07265586 26.91462957 250.3854732 26.92744244 C241.49793092 26.94181406 232.61041681 26.94343037 223.72286034 26.94501209 C200.24620905 26.9555228 176.76956818 26.98344488 153.2929287 27.00922108 C74.6498037 27.07109608 74.6498037 27.07109608 -5.5820713 27.13422108 C-5.5820713 178.27422108 -5.5820713 329.41422108 -5.5820713 485.13422108 C46.8466787 485.17547108 99.2754287 485.21672108 153.2929287 485.25922108 C178.16837059 485.28653309 178.16837059 485.28653309 203.54634666 485.31439686 C218.35019451 485.32108375 218.35019451 485.32108375 233.1540432 485.32510853 C239.77230296 485.32697957 246.39052927 485.33434101 253.00877953 485.3453722 C260.63298764 485.35806143 268.25716347 485.36390273 275.88138223 485.36111098 C279.78535772 485.35990092 283.68926095 485.36188087 287.59322333 485.37265134 C291.7638346 485.38408811 295.93428668 485.38023477 300.1049099 485.37473011 C301.33605585 485.38055544 302.56720181 485.38638077 303.83565521 485.39238262 C305.50373293 485.38641001 305.50373293 485.38641001 307.20550919 485.38031673 C308.17075827 485.38107617 309.13600734 485.38183562 310.1305064 485.38261807 C312.61541797 485.35448936 312.61541797 485.35448936 314.4179287 483.13422108 C314.74862294 480.91225781 314.74862294 480.91225781 314.73677635 478.31732655 C314.75664604 477.31644001 314.77651573 476.31555347 314.79698753 475.28433704 C314.80853874 474.20097065 314.82008995 473.11760426 314.8319912 472.00140858 C314.85135735 470.89443623 314.8707235 469.78746387 314.8906765 468.64694691 C314.95059624 465.10111739 314.99690743 461.55525563 315.0429287 458.00922108 C315.08109704 455.60946711 315.12014809 453.209727 315.1601162 450.81000233 C315.25630786 444.91819806 315.34131884 439.02631072 315.4179287 433.13422108 C314.80916389 433.07005497 314.20039909 433.00588886 313.57318687 432.93977833 C312.76970314 432.85320469 311.96621941 432.76663105 311.13838768 432.67743397 C310.34399788 432.59264286 309.54960808 432.50785175 308.73114586 432.42049122 C286.18894746 429.63080142 264.3026816 416.77534412 247.4179287 402.13422108 C246.58906151 401.42652576 245.76019432 400.71883045 244.90620995 399.98968983 C220.9777918 379.06606539 205.73262875 351.21855445 199.4179287 320.13422108 C199.11242088 318.7981078 199.11242088 318.7981078 198.8007412 317.43500233 C195.42014167 300.09206367 196.32566113 281.25851667 200.4179287 264.13422108 C200.85298729 262.23349842 200.85298729 262.23349842 201.29683495 260.29437733 C210.12870714 224.48649382 232.85413614 192.8611343 264.41597557 173.62860584 C286.03407039 160.78706596 309.21683579 153.246034 334.4179287 152.13422108 C335.44402245 152.08136951 336.4701162 152.02851795 337.5273037 151.97406483 C371.63678229 151.05326904 405.8850282 163.65119231 431.4179287 186.13422108 C432.26999901 186.86511951 433.12206932 187.59601795 433.99995995 188.34906483 C444.05673852 197.13909095 452.21343565 206.91133751 459.4179287 218.13422108 C460.0985537 219.19125233 460.7791787 220.24828358 461.4804287 221.33734608 C480.20066022 252.19647772 486.13544829 292.46652746 477.6757412 327.58734608 C467.28134779 366.36452844 443.00554584 398.14465791 408.4179287 418.51703358 C389.52358736 429.26578435 367.0026956 436.24380379 345.15620995 436.15375233 C343.82070091 436.14952259 343.82070091 436.14952259 342.4582119 436.14520741 C341.78491844 436.14158192 341.11162498 436.13795643 340.4179287 436.13422108 C340.42681114 436.76569553 340.43569359 437.39716999 340.4448452 438.04778004 C340.53369168 444.65063853 340.59381733 451.25332578 340.63765526 457.85663319 C340.65770682 460.31731539 340.68495517 462.77795033 340.71968651 465.23846912 C340.76848749 468.78587006 340.79096297 472.33263814 340.8085537 475.88031483 C340.82919884 476.97129978 340.84984398 478.06228474 340.87111473 479.18632984 C340.87311574 486.07704943 339.8041898 491.12056672 336.4179287 497.13422108 C336.04992149 497.78978489 335.68191429 498.4453487 335.30275536 499.12077808 C331.34920316 505.78010604 323.98214076 509.70165969 316.67317832 511.71600854 C311.67540647 512.64279323 306.5600935 512.41063532 301.49500084 512.39491749 C300.18933877 512.39874304 298.8836767 512.40256858 297.53844911 512.40651006 C293.9250367 512.41677998 290.31172362 512.41461081 286.6983031 512.41032946 C282.79702874 512.40786038 278.89577818 512.41687871 274.99451256 512.42436695 C267.35529864 512.43711132 259.71611987 512.43890793 252.07689711 512.43656669 C245.86623777 512.43478293 239.65558909 512.43653442 233.44493103 512.44079113 C232.56065109 512.44138632 231.67637115 512.44198151 230.76529485 512.44259473 C228.9688029 512.4438065 227.17231095 512.44502063 225.37581901 512.44623711 C208.53066408 512.45711183 191.68552918 512.45495059 174.84037314 512.44885226 C159.43781601 512.44368427 144.03532215 512.45493555 128.63277753 512.47395048 C112.81006802 512.49333405 96.98738842 512.5015839 81.16466695 512.49782723 C72.28441271 512.49591583 63.40421229 512.49839669 54.52396774 512.51254177 C46.96328888 512.52446321 39.40269698 512.52585197 31.8420169 512.5137516 C27.98659055 512.50786801 24.13132322 512.50674897 20.27590752 512.51875401 C16.09108186 512.53163298 11.90663366 512.5211359 7.72180748 512.50844288 C6.51060728 512.51581716 5.29940708 512.52319145 4.05150384 512.5307892 C-6.16533308 512.46564776 -14.55930678 510.87212278 -22.5351963 504.23968983 C-28.99689654 497.59301726 -31.73316686 490.63499768 -31.72187901 481.52090263 C-31.72630614 480.34092987 -31.72630614 480.34092987 -31.73082271 479.13711926 C-31.73954236 476.47908441 -31.74109696 473.82109293 -31.74270058 471.16304493 C-31.74742962 469.24685005 -31.75258026 467.33065617 -31.75811821 465.41446346 C-31.77205047 460.13127776 -31.77961531 454.84809897 -31.78609121 449.56489956 C-31.79245491 445.03759289 -31.80252608 440.51029761 -31.81265187 435.98299802 C-31.84600442 421.0639162 -31.86750348 406.14482746 -31.88585171 391.22572055 C-31.89064551 387.34146419 -31.89562898 383.4572081 -31.90065694 379.57295203 C-31.93162884 355.45964224 -31.95832289 331.34633126 -31.97507572 307.23300743 C-31.97901293 301.64547247 -31.98302478 296.05793757 -31.9871006 290.47040272 C-31.98760227 289.77622379 -31.98810394 289.08204486 -31.98862081 288.36683021 C-32.00503243 265.86885938 -32.04347931 243.37099743 -32.09438771 220.87308014 C-32.14811594 197.08559103 -32.17979742 173.29818125 -32.18727261 149.51062912 C-32.19193604 136.54453556 -32.20669976 123.57862215 -32.24701691 110.61258602 C-32.28131361 99.56919497 -32.2952576 88.52601656 -32.28259277 77.4825753 C-32.27676501 71.84862904 -32.28063877 66.2151325 -32.31076241 60.58125401 C-32.33813526 55.41966566 -32.33761785 50.25884633 -32.31525195 45.0972408 C-32.31203091 43.23372626 -32.31888629 41.37016014 -32.33704918 39.50673134 C-32.44209814 28.02991468 -31.90309073 18.18975445 -23.80708402 9.15297705 C-17.10164089 2.78807027 -9.12519822 0.01692665 0 0 Z " fill="#010100" transform="translate(31.58207130432129,-0.13422107696533203)"/>
<path d="M0 0 C22.02761299 19.88393206 36.80239766 48.78516761 38.39233398 78.57397461 C39.22121738 109.40325653 30.83993468 137.8723766 10.97827148 161.75366211 C10.22030273 162.6753418 9.46233398 163.59702148 8.68139648 164.54663086 C-9.48278195 185.58977222 -37.14472012 200.5123371 -65.02172852 202.75366211 C-69.43919206 202.91707058 -73.85157177 202.93872003 -78.27172852 202.94116211 C-79.99842773 202.95953125 -79.99842773 202.95953125 -81.76000977 202.97827148 C-112.70573658 203.0306036 -139.9896475 190.00464679 -162.02172852 168.75366211 C-184.2724982 145.95306108 -195.45317959 115.57876192 -195.45996094 84.03417969 C-195.03465677 57.4198816 -184.7096113 32.25073553 -168.02172852 11.75366211 C-167.41329102 11.00342773 -166.80485352 10.25319336 -166.17797852 9.48022461 C-148.97448507 -10.92937443 -121.6506197 -26.17597114 -94.99438477 -29.03540039 C-59.35915974 -30.92753623 -27.41937325 -23.94058764 0 0 Z " fill="#8AF658" transform="translate(449.021728515625,207.246337890625)"/>
<path d="M0 0 C1.37719867 -0.00807831 1.37719867 -0.00807831 2.78221953 -0.01631981 C5.85988289 -0.03063152 8.93711809 -0.02348764 12.01480103 -0.01637268 C14.22090501 -0.02207459 16.42700605 -0.02903815 18.63310242 -0.03717041 C24.62692926 -0.05513753 30.62060999 -0.05392661 36.6144557 -0.04822803 C41.6170233 -0.04514103 46.61956264 -0.05122324 51.62212622 -0.05726677 C64.09875312 -0.07212622 76.57530936 -0.0684887 89.05193122 -0.05640347 C99.88161522 -0.04647362 110.71112831 -0.05940722 121.54078595 -0.08333766 C132.6659606 -0.10773546 143.7910733 -0.1169351 154.91627848 -0.11068493 C161.1601041 -0.10731209 167.40378855 -0.10975221 173.64759445 -0.12693596 C179.51962596 -0.14239059 185.39133099 -0.13846568 191.26334953 -0.11963081 C193.41801452 -0.11594074 195.57270362 -0.11906554 197.72734642 -0.1295166 C200.66992656 -0.14269932 203.61142161 -0.13120257 206.55395508 -0.11352539 C207.40561796 -0.1231304 208.25728083 -0.1327354 209.13475168 -0.14263147 C214.85356668 -0.07199864 218.21112576 1.06767839 222.90396118 4.38768005 C225.60724742 8.39900802 226.60507258 11.58005906 225.90396118 16.38768005 C223.56566876 20.80445463 221.4328968 23.30210268 216.90396118 25.38768005 C213.84296472 25.82178329 210.81284267 25.80111607 207.7252655 25.78208923 C206.79826039 25.78818034 205.87125527 25.79427144 204.91615909 25.80054712 C201.80853451 25.8172021 198.70131854 25.8123977 195.59365845 25.80760193 C193.36622694 25.81494076 191.13879925 25.82352644 188.91137695 25.83326721 C182.85977668 25.85551049 176.80831245 25.8584125 170.75667691 25.8565197 C165.70679223 25.85640014 160.65693653 25.86495836 155.6070599 25.87329721 C143.0138956 25.89364177 130.42081594 25.89467764 117.8276475 25.88749009 C106.89379293 25.88191402 95.96017262 25.90274357 85.0263728 25.93585056 C73.79610673 25.96959102 62.56594969 25.98428092 51.3356213 25.98013353 C45.0319856 25.97806357 38.72858324 25.98358389 32.4249897 26.00802612 C26.49792033 26.03024874 20.57133942 26.02845237 14.64426804 26.0080986 C12.46821528 26.00468074 10.29212993 26.00981086 8.11612129 26.02408218 C5.1467214 26.04221416 2.17898929 26.02957007 -0.7903595 26.00914001 C-1.65271711 26.02165786 -2.51507473 26.03417571 -3.40356439 26.04707289 C-9.34872119 25.95929756 -11.94094623 24.66557336 -16.09603882 20.38768005 C-18.64245219 16.91529819 -18.53133674 13.59555999 -18.09603882 9.38768005 C-13.78115468 1.07753282 -8.67699586 -0.06091304 0 0 Z " fill="#030201" transform="translate(75.09603881835938,64.61231994628906)"/>
<path d="M0 0 C0.72453635 -0.00623996 1.44907269 -0.01247993 2.19556469 -0.01890898 C4.60621397 -0.03477386 7.01584291 -0.02226121 9.42649841 -0.00964355 C11.16162197 -0.01506755 12.89674093 -0.02219176 14.6318512 -0.03088379 C19.3322182 -0.04908578 24.03223318 -0.0420629 28.73260617 -0.02936745 C33.65588391 -0.01922521 38.57913194 -0.02863638 43.50241089 -0.03491211 C51.76834005 -0.04218426 60.03412614 -0.03261143 68.30003357 -0.0135498 C77.85285893 0.00822529 87.40534287 0.00116119 96.95815998 -0.02085543 C105.16557535 -0.03901314 113.372888 -0.04156614 121.58031696 -0.03110075 C126.47989717 -0.0248688 131.37931693 -0.02402216 136.2788868 -0.0372467 C140.88453389 -0.04881023 145.4897411 -0.04077033 150.09534073 -0.01766968 C151.78439161 -0.01238558 153.47347957 -0.01389127 155.16251564 -0.02272034 C157.47049531 -0.0336716 159.77707047 -0.01991925 162.08496094 0 C164.0209155 0.00226215 164.0209155 0.00226215 165.99598026 0.00457001 C171.02891955 0.73193067 175.33482338 3.47136596 178.47898865 7.50793457 C179.93353345 12.08060535 179.93671041 15.55728167 177.85398865 19.88293457 C174.52497479 23.56237094 172.07342804 25.32878022 167.06938267 25.89104462 C165.75440265 25.89477333 164.43942263 25.89850204 163.08459473 25.90234375 C162.34951657 25.90843485 161.61443842 25.91452596 160.85708517 25.92080164 C158.39894517 25.93742381 155.94132361 25.93265709 153.48313904 25.92785645 C151.7187547 25.93519721 149.95437517 25.94378346 148.19000244 25.95352173 C143.40074969 25.97574479 138.61166895 25.97866804 133.82237172 25.97677422 C129.82377768 25.97665456 125.82522014 25.98521661 121.82663625 25.99355173 C112.39342753 26.01278836 102.96030731 26.01566854 93.52708435 26.00891113 C83.79590168 26.00226859 74.06509789 26.02514272 64.33399206 26.06222486 C55.97800576 26.09291136 47.6221414 26.10428308 39.26609987 26.10038805 C34.27588677 26.09831961 29.28596854 26.10381463 24.29580879 26.12828064 C19.60314379 26.15052809 14.91109537 26.14868671 10.21842766 26.12835312 C8.49711504 26.12493961 6.77576108 26.13004689 5.05450439 26.1443367 C2.70240562 26.16251506 0.35240182 26.14979361 -1.99963379 26.12939453 C-3.31499084 26.13010704 -4.63034788 26.13081955 -5.98556423 26.13155365 C-11.04751407 25.23867408 -13.83360728 22.80894013 -16.89601135 18.63293457 C-18.12244326 14.46306608 -18.05535147 10.85950075 -16.45851135 6.82043457 C-11.88779194 1.36505978 -6.90242671 0.0080631 0 0 Z " fill="#040301" transform="translate(74.52101135253906,139.4920654296875)"/>
<path d="M0 0 C25.40913396 7.54152378 44.28828114 30.78490242 56.6484375 52.95703125 C70.60171214 79.41159001 73.08677551 110.7473656 64.78125 139.42578125 C59.95446167 154.66471578 52.20719285 168.72706574 42 181 C41.24203125 181.92167969 40.4840625 182.84335937 39.703125 183.79296875 C21.76642397 204.57257828 -5.26306644 219.31129313 -32.75 221.6875 C-34.49936205 221.80188137 -36.24921543 221.90997739 -38 222 C-35.660177 220.440118 -33.47280528 219.18094978 -30.97265625 217.93359375 C-6.41479756 205.49487098 13.49547489 188.18720915 27 164 C27.59425781 162.9584375 28.18851562 161.916875 28.80078125 160.84375 C32.62494014 153.72114808 35.34362889 146.49594771 37.8125 138.8125 C38.10261963 137.91023682 38.39273926 137.00797363 38.69165039 136.07836914 C42.08539388 125.07647524 43.33094562 114.71766425 43.26074219 103.21240234 C43.25005039 101.1347919 43.26068256 99.05805263 43.2734375 96.98046875 C43.31072114 62.7911143 29.86845538 33.26772205 7.08984375 8.30859375 C4.64054972 5.60292502 2.30662349 2.82747396 0 0 Z " fill="#49CF0B" transform="translate(418,188)"/>
<path d="M0 0 C3.56528674 2.19985778 5.46306026 4.13817995 7 8 C7.24050903 10.68292236 7.24050903 10.68292236 7.22705078 13.77832031 C7.22689972 14.9392218 7.22674866 16.10012329 7.22659302 17.29620361 C7.21627045 18.54423767 7.20594788 19.79227173 7.1953125 21.078125 C7.1924826 22.35983582 7.18965271 23.64154663 7.18673706 24.96209717 C7.17911788 28.36189639 7.15948434 31.76152346 7.1373291 35.16125488 C7.11683358 38.63352124 7.10772744 42.10581553 7.09765625 45.578125 C7.07623666 52.38548717 7.04212156 59.19273531 7 66 C8.07328804 65.99000725 8.07328804 65.99000725 9.16825867 65.97981262 C15.92136886 65.91962615 22.67440386 65.87398743 29.42772198 65.84456348 C32.8994411 65.82892757 36.37093803 65.80772788 39.8425293 65.77368164 C43.83644712 65.73475937 47.83013263 65.72027371 51.82421875 65.70703125 C53.06709152 65.69154739 54.30996429 65.67606354 55.59049988 65.66011047 C56.75132584 65.65988388 57.91215179 65.65965729 59.1081543 65.65942383 C60.63704536 65.64943108 60.63704536 65.64943108 62.19682312 65.63923645 C66.31833695 66.16966747 68.95526261 67.89569425 71.78125 70.8828125 C74.00034025 74.73777056 73.72508433 78.70370592 73 83 C71.34557299 86.33608738 69.1086492 88.43669558 65.76010132 90.13809204 C62.40734942 91.18506939 59.53953191 91.26873345 56.02587891 91.29052734 C55.00289452 91.30060318 55.00289452 91.30060318 53.95924377 91.31088257 C51.71494163 91.32980918 49.47093938 91.33378397 47.2265625 91.3359375 C45.65863932 91.34236904 44.09071733 91.34909766 42.52279663 91.35610962 C39.23945332 91.36806894 35.95621511 91.37179182 32.67285156 91.37060547 C28.4774917 91.37040233 24.28280959 91.3977048 20.08761024 91.43214989 C16.84983255 91.4544501 13.61221719 91.45844207 10.37437057 91.45738602 C8.82828816 91.45973726 7.28220095 91.46853391 5.73619461 91.48405075 C-9.70751573 91.62454754 -9.70751573 91.62454754 -15 87 C-17.77940633 82.44619084 -18.38142809 79.01173872 -18.40405273 73.71289062 C-18.41091599 73.00964157 -18.41777924 72.30639252 -18.42485046 71.58183289 C-18.44304945 69.2730959 -18.43929163 66.96504284 -18.43359375 64.65625 C-18.43815843 63.04251893 -18.44346486 61.4287898 -18.44947815 59.81506348 C-18.45839532 56.4392912 -18.4560016 53.06375569 -18.44604492 49.68798828 C-18.43454856 45.37034058 -18.4547834 41.05350994 -18.48396206 36.73596954 C-18.50234027 33.40556687 -18.50202856 30.0753595 -18.49632454 26.74491882 C-18.49617157 25.15336459 -18.50219604 23.56179692 -18.51461601 21.97029114 C-18.52955831 19.74204748 -18.51882798 17.5153072 -18.50170898 15.28710938 C-18.50154282 14.02169312 -18.50137665 12.75627686 -18.50120544 11.45251465 C-17.77755752 6.46772231 -15.5402192 3.36419415 -11.8125 0.0625 C-7.69271475 -1.49386332 -4.2187977 -1.13317978 0 0 Z " fill="#010301" transform="translate(376,216)"/>
<path d="M0 0 C0.9354364 -0.01007584 1.8708728 -0.02015167 2.83465576 -0.03053284 C5.92854755 -0.05904023 9.02195182 -0.06489107 12.1159668 -0.06811523 C14.26824647 -0.07775531 16.42052416 -0.08784771 18.57279968 -0.09837341 C23.08617712 -0.1163424 27.59938228 -0.12189373 32.11279297 -0.12011719 C37.89009403 -0.11981251 43.66628736 -0.16074857 49.443326 -0.21243382 C53.88981679 -0.24582949 58.33604091 -0.25187374 62.78264427 -0.25028801 C64.91207888 -0.25382381 67.0415207 -0.26706936 69.17083168 -0.29028511 C72.1537332 -0.31975937 75.13424557 -0.31102773 78.1171875 -0.29296875 C78.99275803 -0.30982727 79.86832855 -0.32668579 80.77043152 -0.34405518 C86.42143136 -0.25733827 89.35164392 1.01869242 93.45833111 4.92002964 C95.77454297 7.63244316 95.90267376 9.81981533 96.01831055 13.26000977 C95.43289448 18.05525611 92.74514517 20.61709153 89.1638031 23.57141113 C84.81020282 25.95091423 81.61152959 26.001051 76.73730469 25.95336914 C75.40686378 25.96388306 75.40686378 25.96388306 74.04954529 25.97460938 C71.12865537 25.99215965 68.20874093 25.98057611 65.2878418 25.96704102 C63.250522 25.96973702 61.21320346 25.97362035 59.17588806 25.9786377 C54.9097771 25.98452894 50.64400159 25.97598259 46.37792969 25.95727539 C40.91923556 25.93450075 35.46132879 25.94760212 30.00266361 25.97156525 C25.7963624 25.9860456 21.59024666 25.98140669 17.38393974 25.97105408 C15.37176863 25.96839223 13.35958049 25.97163741 11.34742928 25.98097229 C8.53032208 25.99117302 5.71447472 25.97558692 2.89746094 25.95336914 C1.65894882 25.96551453 1.65894882 25.96551453 0.39541626 25.97790527 C-5.26662787 25.895506 -8.59367373 24.70669352 -13.24731445 21.43579102 C-16.22766186 17.10948026 -16.81447885 13.63479796 -16.24731445 8.43579102 C-12.65867133 0.54077615 -7.94855815 -0.01225726 0 0 Z " fill="#050401" transform="translate(73.247314453125,215.564208984375)"/>
</svg>
