<?xml version="1.0" encoding="UTF-8"?>
<svg version="1.1" xmlns="http://www.w3.org/2000/svg" width="512" height="512">
<path d="M0 0 C1.01823853 0.00215515 2.03647705 0.0043103 3.08557129 0.00653076 C17.70747424 0.05622604 32.00633932 0.36188758 46.375 3.3125 C47.89383789 3.61051514 47.89383789 3.61051514 49.44335938 3.91455078 C82.96021771 10.61691835 116.43239122 23.30721197 144.375 43.3125 C145.30570312 43.96992187 146.23640625 44.62734375 147.1953125 45.3046875 C156.87601112 52.23488122 165.90710985 59.6783011 174.6171875 67.77734375 C176.76621096 69.75286249 178.93507074 71.64654364 181.1875 73.5 C184.2918954 76.12564527 186.89503031 79.05276759 189.51953125 82.15234375 C190.75466556 83.59030012 192.02350174 84.99998982 193.32421875 86.37890625 C205.11091538 98.90635645 215.07216651 113.27411717 223.375 128.3125 C223.83084473 129.12605957 224.28668945 129.93961914 224.75634766 130.77783203 C237.71530893 154.06980361 246.71303853 178.27134207 252.375 204.3125 C252.59945801 205.30540039 252.82391602 206.29830078 253.05517578 207.32128906 C259.94493801 239.12100514 259.40797287 276.60102036 252.375 308.3125 C252.18776367 309.19808594 252.00052734 310.08367187 251.80761719 310.99609375 C242.47417432 354.39096111 221.63482271 395.31288667 191.5390625 427.9609375 C190.09538883 429.52969481 188.67327663 431.11856886 187.2734375 432.7265625 C153.08711181 471.88544465 102.67521538 497.63764976 52.375 508.3125 C51.42318848 508.52422852 50.47137695 508.73595703 49.49072266 508.95410156 C17.66689378 515.76925039 -19.90354708 515.49781101 -51.625 508.3125 C-53.08317139 507.99104004 -53.08317139 507.99104004 -54.57080078 507.66308594 C-61.33504441 506.13218975 -67.98849207 504.32317627 -74.625 502.3125 C-75.54667969 502.0345459 -76.46835938 501.7565918 -77.41796875 501.47021484 C-113.17715613 490.4295034 -145.8837932 471.36325579 -173.08203125 445.703125 C-175.31582661 443.60315148 -177.59731158 441.60413078 -179.9375 439.625 C-183.19582529 436.79575459 -186.00907281 433.74604029 -188.79296875 430.453125 C-190.75859951 428.15639652 -192.81386063 425.96124011 -194.875 423.75 C-223.82290598 391.52035171 -242.39450344 350.18187971 -251.375 308.125 C-251.57383789 307.20017822 -251.77267578 306.27535645 -251.97753906 305.32250977 C-255.26941369 289.11581484 -256.0003085 273.18212105 -255.9375 256.6875 C-255.93534485 255.66959381 -255.9331897 254.65168762 -255.93096924 253.60293579 C-255.88129854 238.99386477 -255.63040191 224.66174147 -252.625 210.3125 C-252.42632324 209.33764648 -252.22764648 208.36279297 -252.02294922 207.35839844 C-241.77138226 158.35053302 -219.43217348 114.34635801 -184.625 78.3125 C-184.02606934 77.69165527 -183.42713867 77.07081055 -182.81005859 76.43115234 C-175.14623497 68.52999741 -167.40501606 60.98483045 -158.625 54.3125 C-158.08472168 53.89581055 -157.54444336 53.47912109 -156.98779297 53.04980469 C-125.1187531 28.55165293 -88.56685217 12.06060062 -49.1875 4 C-48.46860596 3.85264404 -47.74971191 3.70528809 -47.0090332 3.5534668 C-31.36274321 0.57960898 -15.88931915 -0.06049808 0 0 Z " fill="#8BD76A" transform="translate(255.625,-0.3125)"/>
<path d="M0 0 C13.53 0 27.06 0 41 0 C41.495 6.435 41.495 6.435 42 13 C43.32835216 17.05496976 44.04960083 18.42236161 47.67228699 20.62417603 C51.39676625 22.16404074 54.03717068 22.38032682 58.0559082 22.38818359 C58.73483124 22.39344055 59.41375427 22.39869751 60.11325073 22.40411377 C62.34266641 22.417244 64.57135914 22.40859812 66.80078125 22.3984375 C68.36248409 22.40046096 69.924186 22.40337466 71.48588562 22.40713501 C74.75492369 22.41154951 78.02371528 22.40515831 81.29272461 22.39111328 C85.46199707 22.37406436 89.63068824 22.38384053 93.79993916 22.40183067 C97.02494089 22.41272877 100.24980741 22.409194 103.47481346 22.4014473 C105.01084654 22.39945967 106.54689228 22.40185348 108.08291054 22.40888596 C120.13311765 23.02633469 120.13311765 23.02633469 131 19 C133.60633906 11.9894349 133.60633906 11.9894349 134 0 C147.53 0 161.06 0 175 0 C175 80.19 175 160.38 175 243 C117.25 243 59.5 243 0 243 C0 162.81 0 82.62 0 0 Z " fill="#D0D1D0" transform="translate(207,160)"/>
<path d="M0 0 C6.20855744 4.19210288 11.94998852 9.96934799 13.5234375 17.5078125 C13.7753793 19.67995934 13.94435828 21.81479784 14 24 C15.8253125 23.9071875 15.8253125 23.9071875 17.6875 23.8125 C21.61857111 23.82639071 23.89690046 24.42886038 27 27 C30.18018283 31.15870063 30.37627347 34.75433897 30.1875 39.8125 C30.17396484 40.50537109 30.16042969 41.19824219 30.14648438 41.91210938 C30.11138845 43.60841265 30.05758943 45.30431136 30 47 C31.96791504 46.9685791 31.96791504 46.9685791 33.97558594 46.93652344 C38.84331344 46.8641203 43.71099335 46.81819887 48.57910156 46.78027344 C50.68595382 46.76015874 52.79275025 46.73286333 54.89941406 46.69824219 C57.92787447 46.64971832 60.95559678 46.62702984 63.984375 46.609375 C64.92617615 46.58872986 65.86797729 46.56808472 66.83831787 46.54681396 C67.71892883 46.54651184 68.59953979 46.54620972 69.50683594 46.54589844 C70.66599518 46.53257477 70.66599518 46.53257477 71.84857178 46.51898193 C75.07899737 47.24124311 76.03090254 48.31635988 78 51 C78.61104324 54.28093101 78.543546 57.53321861 78.5146637 60.8624115 C78.52160922 61.87502235 78.52855475 62.88763321 78.53571075 63.93092924 C78.55405126 67.33430185 78.54369652 70.73698295 78.53344727 74.14038086 C78.54050215 76.57618229 78.54924534 79.01197934 78.55955505 81.44776917 C78.57976315 87.38327208 78.5810643 93.31859837 78.57292951 99.25411361 C78.56663233 104.07807927 78.56776393 108.901989 78.57420158 113.72595406 C78.57510324 114.41225807 78.57600489 115.09856208 78.57693387 115.80566319 C78.57878506 117.19984441 78.58064762 118.59402562 78.58252143 119.98820681 C78.59910529 133.06577405 78.5903759 146.14323344 78.57353585 159.22079421 C78.5588398 171.18679704 78.57346478 183.15254875 78.60230602 195.11851924 C78.63169475 207.40306225 78.64267376 219.68748935 78.63312382 231.97206599 C78.63210126 233.36145403 78.63110665 234.75084209 78.6301403 236.14023018 C78.62966391 236.82384601 78.62918752 237.50746185 78.6286967 238.21179331 C78.62653178 243.02958083 78.63634075 247.8472587 78.65091133 252.6650219 C78.67025086 259.15016318 78.66336352 265.63495119 78.63871193 272.12007713 C78.63369001 274.50295018 78.63722933 276.8858586 78.64986038 279.26870346 C78.66571722 282.51654679 78.65090807 285.76283584 78.62818909 289.01060486 C78.64002482 289.95826735 78.65186054 290.90592984 78.66405493 291.88230938 C78.60212655 296.2264086 78.39849013 298.40877035 75.92093563 302.08465481 C72.23711626 304.50024577 70.03021994 304.62859072 65.63684082 304.63491821 C64.90514065 304.64271817 64.17344049 304.65051812 63.41956758 304.65855443 C60.97255591 304.67846726 58.52710078 304.66271417 56.08007812 304.64697266 C54.32391961 304.65374915 52.5677682 304.66265246 50.81163025 304.67352295 C46.04503651 304.69631923 41.27898381 304.68747863 36.5123806 304.67162752 C31.52455561 304.65897024 26.536777 304.67070816 21.5489502 304.67855835 C13.17268556 304.68765541 4.79664133 304.6756655 -3.57958984 304.65185547 C-13.26424113 304.6246441 -22.94836613 304.63345822 -32.63300467 304.6609875 C-40.94738569 304.68367593 -49.26160825 304.68687994 -57.57601023 304.67379415 C-62.54212986 304.66599819 -67.50800209 304.66496206 -72.47410583 304.68147659 C-77.14301125 304.69591822 -81.81123803 304.68590537 -86.48007011 304.65700531 C-88.19372366 304.65039283 -89.9074343 304.65229498 -91.62106514 304.66331863 C-93.96042841 304.67698034 -96.29761629 304.65985444 -98.63684082 304.63491821 C-99.94574532 304.63303308 -101.25464981 304.63114796 -102.60321808 304.6292057 C-106 304 -106 304 -108.92093563 302.08465481 C-111.87216475 297.70599139 -111.69280733 294.18445475 -111.62818909 289.01060486 C-111.63528347 287.99643401 -111.64237786 286.98226317 -111.64968723 285.93735987 C-111.66730771 282.53459746 -111.64914089 279.13297113 -111.63110352 275.73022461 C-111.63624072 273.29265319 -111.64352048 270.85508547 -111.65278625 268.41752625 C-111.66940585 262.4817724 -111.66264972 256.54631902 -111.64469803 250.61059444 C-111.63067316 245.78711604 -111.62677896 240.96372701 -111.6301403 236.14023018 C-111.63061775 235.45377293 -111.63109519 234.76731569 -111.6315871 234.06005671 C-111.63261342 232.66555128 -111.63366878 231.27104587 -111.63475286 229.87654049 C-111.64332015 217.54612712 -111.62664338 205.21587273 -111.59692383 192.88549805 C-111.56808001 180.91830774 -111.56100577 168.9513464 -111.57641602 156.98413086 C-111.59317228 143.95377701 -111.59721879 130.92353186 -111.57970566 117.89317518 C-111.57786125 116.50410149 -111.57602653 115.11502778 -111.57420158 113.72595406 C-111.57328949 113.0424925 -111.5723774 112.35903094 -111.57143768 111.65485842 C-111.56582916 106.83611458 -111.56914231 102.01742376 -111.57574654 97.19868279 C-111.58427956 90.71519344 -111.57133941 84.23196027 -111.54389763 77.7485218 C-111.53699485 75.36523547 -111.53693595 72.98191834 -111.54411316 70.59863281 C-111.55276343 67.35285297 -111.536926 64.1081048 -111.5146637 60.8624115 C-111.52290446 59.91251829 -111.53114523 58.96262507 -111.53963572 57.98394722 C-111.45877492 51.62525436 -111.45877492 51.62525436 -109.10229778 48.41366291 C-106.66724715 46.77624466 -105.42020483 46.51241144 -102.50683594 46.54589844 C-101.18591949 46.54635162 -101.18591949 46.54635162 -99.83831787 46.54681396 C-98.42561615 46.57778168 -98.42561615 46.57778168 -96.984375 46.609375 C-96.01340881 46.61503479 -95.04244263 46.62069458 -94.04205322 46.62652588 C-90.94419831 46.64889689 -87.84750467 46.69909527 -84.75 46.75 C-82.64845422 46.77006403 -80.54689028 46.78831497 -78.4453125 46.8046875 C-73.2964283 46.8487642 -68.14841097 46.91779742 -63 47 C-63.05800781 45.90300781 -63.11601562 44.80601562 -63.17578125 43.67578125 C-63.22269688 42.22139686 -63.26819511 40.76696626 -63.3125 39.3125 C-63.35439453 38.59126953 -63.39628906 37.87003906 -63.43945312 37.12695312 C-63.53454853 32.96177447 -63.3827904 31.47512176 -60.66796875 28.10546875 C-56.29891849 24.65756525 -53.51941779 23.62483975 -48 23 C-47.85304688 22.3709375 -47.70609375 21.741875 -47.5546875 21.09375 C-44.49650381 9.42343981 -38.00642793 3.12142819 -27.8125 -2.875 C-18.31351643 -5.67797876 -8.73413196 -4.61914311 0 0 Z M-104 54 C-104 134.19 -104 214.38 -104 297 C-46.25 297 11.5 297 71 297 C71 216.81 71 136.62 71 54 C57.47 54 43.94 54 30 54 C29.67 58.29 29.34 62.58 29 67 C27 73 27 73 25.40544128 74.22817993 C17.66693186 76.61308566 9.81769022 76.43514196 1.80078125 76.3984375 C0.23617925 76.40046209 -1.32842183 76.40337673 -2.89302063 76.40713501 C-6.15671865 76.41153635 -9.42016887 76.40519587 -12.68383789 76.39111328 C-16.85668124 76.3739797 -21.02894736 76.38390248 -25.20176983 76.40183067 C-28.42664409 76.41269164 -31.65138231 76.40921235 -34.87626076 76.4014473 C-36.41477338 76.39945389 -37.95329856 76.40187423 -39.49179649 76.40888596 C-41.64289307 76.41654375 -43.79306383 76.40483918 -45.9440918 76.38818359 C-47.77534859 76.38460342 -47.77534859 76.38460342 -49.64360046 76.38095093 C-53.38673263 75.95610589 -55.79362106 74.94878912 -59 73 C-63.48270494 67.12611077 -62.39209523 61.90276207 -63 54 C-76.53 54 -90.06 54 -104 54 Z " fill="#020302" transform="translate(311,106)"/>
<path d="M0 0 C2.6875 -0.3125 2.6875 -0.3125 5 0 C6.60805291 3.18555235 8.21057391 6.37386285 9.8125 9.5625 C10.24498047 10.41908203 10.67746094 11.27566406 11.12304688 12.15820312 C12.10299773 14.11125204 13.05811832 16.07686338 13.99458313 18.0511322 C15.40292711 20.93653791 16.99717835 23.62594813 18.70219421 26.34535217 C29.1667925 44.05068163 28.54209918 61.45940341 28.27999115 81.36362219 C28.22907434 86.03842629 28.23804171 90.71318551 28.23876953 95.38821411 C28.23138465 103.2168587 28.18216459 111.04431139 28.10449219 118.87255859 C28.01518457 127.90206863 27.98217857 136.93039184 27.9810791 145.96031654 C27.97950361 155.62867062 27.9398382 165.2965857 27.88761902 174.9647851 C27.87504368 177.7325746 27.8692432 180.50031011 27.86486816 183.26812363 C27.85592072 187.61734619 27.82114553 191.96564896 27.76676559 196.31453323 C27.75064517 197.90391524 27.74279347 199.49340724 27.74406815 201.08287048 C27.74503303 210.79061603 27.21031922 218.5186936 20.25997925 225.83051872 C14.95934132 230.83776028 9.48288597 233.14549275 2.1875 233.5 C-4.95592651 233.29436945 -10.45666118 231.08637546 -15.84765625 226.390625 C-23.65507367 218.02690512 -23.50912769 208.22041376 -23.65795898 197.41235352 C-23.68990146 195.83237796 -23.72282101 194.25242191 -23.75663757 192.67248535 C-23.8607988 187.49156477 -23.93193949 182.31045915 -23.99609375 177.12890625 C-24.0072828 176.23997515 -24.01847186 175.35104406 -24.02999997 174.43517566 C-24.13382226 166.00527108 -24.2231847 157.57529992 -24.2826376 149.14495945 C-24.35216247 139.42917237 -24.45936263 129.71744076 -24.67358398 120.00366211 C-26.45969268 37.38948437 -26.45969268 37.38948437 -3 5 C-2.46519516 4.04843521 -1.93039032 3.09687042 -1.37937927 2.11647034 C-0.92418411 1.41803513 -0.46898895 0.71959991 0 0 Z " fill="#030402" transform="translate(146,165)"/>
<path d="M0 0 C11.88 0 23.76 0 36 0 C36 39.27 36 78.54 36 119 C24.12 119 12.24 119 0 119 C0 79.73 0 40.46 0 0 Z " fill="#F7A83F" transform="translate(130,216)"/>
<path d="M0 0 C6.71841843 4.01301504 10.25086682 10.0324499 12.328125 17.390625 C12.63363281 18.40962891 12.63363281 18.40962891 12.9453125 19.44921875 C13.4273976 21.09028926 13.88099613 22.73968762 14.328125 24.390625 C15.01519531 24.42800781 15.70226562 24.46539062 16.41015625 24.50390625 C17.31121094 24.56964844 18.21226562 24.63539063 19.140625 24.703125 C20.03394531 24.76113281 20.92726563 24.81914062 21.84765625 24.87890625 C24.8261469 25.49336653 25.56550121 25.93047891 27.328125 28.390625 C27.73217773 31.60522461 27.73217773 31.60522461 27.76171875 35.54296875 C27.7669606 36.23951065 27.77220245 36.93605255 27.77760315 37.65370178 C27.78402025 39.12548491 27.78269029 40.59731934 27.77416992 42.0690918 C27.76566641 44.31717656 27.79440821 46.56271366 27.82617188 48.81054688 C27.82778425 50.24218674 27.82720566 51.67383109 27.82421875 53.10546875 C27.82607178 54.40605225 27.8279248 55.70663574 27.82983398 57.04663086 C27.22837457 61.05548227 26.51667618 61.96991808 23.328125 64.390625 C20.17858887 64.89183044 20.17858887 64.89183044 16.41992188 64.89233398 C15.38992821 64.90043846 15.38992821 64.90043846 14.33912659 64.90870667 C12.0746011 64.92119035 9.811348 64.90470714 7.546875 64.88671875 C5.97033624 64.88687375 4.39379709 64.88836287 2.81726074 64.89112854 C-0.48479077 64.89251236 -3.78640783 64.87995786 -7.08837891 64.85717773 C-11.31875764 64.82879276 -15.5484146 64.83153045 -19.77884674 64.84426785 C-23.03369297 64.85122637 -26.28837267 64.84343383 -29.54319763 64.83101082 C-31.10289369 64.82649798 -32.66260763 64.82615807 -34.2223053 64.83007622 C-36.40313289 64.83299025 -38.58296958 64.81647404 -40.76367188 64.79467773 C-42.00403198 64.78927475 -43.24439209 64.78387177 -44.52233887 64.77830505 C-47.90872049 64.36147141 -49.33957183 63.85345848 -51.671875 61.390625 C-52.06557752 58.69907919 -52.20982679 56.42047194 -52.16796875 53.73046875 C-52.16942398 52.98479141 -52.17087921 52.23911407 -52.17237854 51.47084045 C-52.17072011 49.89645475 -52.15916482 48.32205274 -52.13842773 46.74780273 C-52.10943503 44.33312479 -52.11782513 41.92063695 -52.13085938 39.50585938 C-52.12462302 37.9765518 -52.11623288 36.44725116 -52.10546875 34.91796875 C-52.10840439 34.19399399 -52.11134003 33.47001923 -52.11436462 32.72410583 C-52.07592773 30.69116211 -52.07592773 30.69116211 -51.671875 27.390625 C-48.50178503 25.27723169 -47.23036459 25.08049236 -43.546875 24.828125 C-40.30266525 24.84577621 -40.30266525 24.84577621 -37.671875 23.390625 C-37.3998129 21.87358306 -37.15448419 20.35171517 -36.921875 18.828125 C-35.33931113 10.68257567 -31.41862632 5.11335092 -24.671875 0.390625 C-16.50829961 -4.1621382 -8.3991288 -3.75055437 0 0 Z " fill="#F5A73F" transform="translate(306.671875,111.609375)"/>
<path d="M0 0 C11.88 0 23.76 0 36 0 C36.061875 5.81625 36.12375 11.6325 36.1875 17.625 C36.22846802 20.36224365 36.22846802 20.36224365 36.27026367 23.15478516 C36.27903313 24.61620422 36.28667598 26.07763067 36.29296875 27.5390625 C36.30831665 28.28567139 36.32366455 29.03228027 36.33947754 29.80151367 C36.34227059 35.42672466 35.21651978 39.59709106 31.28125 43.86328125 C30.6934375 44.34152344 30.105625 44.81976563 29.5 45.3125 C28.61828125 46.04919922 28.61828125 46.04919922 27.71875 46.80078125 C23.35348716 49.84654418 18.08974958 49.66355254 13 49 C7.35093703 46.76732094 3.9050675 43.3453242 1 38 C-0.23170492 34.30488524 -0.12423376 30.89698659 -0.09765625 27.05078125 C-0.09664917 26.36576538 -0.09564209 25.68074951 -0.09460449 24.97497559 C-0.08938007 22.42079998 -0.07541879 19.86664828 -0.0625 17.3125 C-0.041875 11.599375 -0.02125 5.88625 0 0 Z " fill="#D0D1D0" transform="translate(130,342)"/>
<path d="M0 0 C4.10269292 3.05690845 6.73007597 5.52199447 7.56640625 10.73828125 C7.85143088 16.79735331 6.92337409 20.58541783 3.1875 25.375 C-0.90189349 28.94527359 -5.15314476 30.09101932 -10.53515625 29.82421875 C-15.88904419 28.76813451 -19.64515065 25.98010536 -22.8125 21.625 C-24.36675389 16.57367486 -24.92871686 12.12261073 -22.8984375 7.125 C-18.02811114 -1.42163722 -8.98424458 -4.60779926 0 0 Z " fill="#050604" transform="translate(248.8125,240.625)"/>
<path d="M0 0 C4.9710149 2.53240382 8.49430567 5.98861134 11 11 C11.59106487 16.68331608 11.27243416 21.14777003 8 26 C2.82316998 30.67177343 -0.39353498 31.3478341 -7.234375 31.28515625 C-12.0473343 30.7889048 -14.71534029 28.46185415 -17.8125 24.9375 C-20.50596651 20.54289675 -20.61642905 15.99992452 -20 11 C-15.60243172 2.36773633 -9.38545652 -1.13954953 0 0 Z " fill="#060705" transform="translate(245,346)"/>
<path d="M0 0 C4.33743835 1.90067523 7.13679206 4.05549906 9.21484375 8.359375 C10.77342001 13.35858188 10.3973526 17.78550985 8.6484375 22.6640625 C6.2777156 26.17927084 3.62312988 28.45796631 -0.1640625 30.3515625 C-5.47542202 30.88096271 -9.83678991 31.01519879 -14.6640625 28.6015625 C-18.41025 25.22999375 -20.80305638 22.45858239 -21.40234375 17.30078125 C-21.58408043 11.76259492 -20.90919256 8.70401095 -17.1640625 4.3515625 C-11.75696384 -0.41183394 -7.09450136 -2.12578922 0 0 Z " fill="#050605" transform="translate(246.1640625,185.6484375)"/>
<path d="M0 0 C4.85901474 2.29698879 7.66907123 5.15884024 10 10 C10.80165291 15.0226009 10.59932381 18.80135239 8.3125 23.375 C3.95069795 28.32623476 0.90464675 30.65313809 -5.7265625 31.09375 C-10.03498592 30.91608305 -13.37719665 29.54292443 -16.5078125 26.56640625 C-20.5280231 21.96039354 -21.36368323 18.19070794 -21.27734375 12.28125 C-20.69073199 7.45616173 -17.8624045 4.79930173 -14.4375 1.625 C-9.56643525 -0.67768515 -5.29813119 -0.77379561 0 0 Z " fill="#040504" transform="translate(246,293)"/>
<path d="M0 0 C0.87798752 0.00404846 1.75597504 0.00809692 2.66056824 0.01226807 C4.04607124 0.00701111 4.04607124 0.00701111 5.45956421 0.00164795 C8.52338601 -0.00717963 11.58697832 -0.00131658 14.65080261 0.00543213 C16.77307683 0.00408577 18.89535074 0.00214549 21.0176239 -0.00036621 C25.46976146 -0.00331887 29.92181888 0.00098473 34.37394714 0.01031494 C40.09087248 0.02170952 45.80761006 0.01515081 51.5245285 0.00317001 C55.90816166 -0.00404475 60.29175004 -0.00176242 64.67538452 0.0034256 C66.78379336 0.00476316 68.89220621 0.00311069 71.00061035 -0.00153351 C73.94336268 -0.00659244 76.88580765 0.00110259 79.82853699 0.01226807 C80.70652451 0.0082196 81.58451202 0.00417114 82.48910522 0 C88.51602495 0.04252947 88.51602495 0.04252947 90.74455261 2.27105713 C90.41455261 3.92105713 90.08455261 5.57105713 89.74455261 7.27105713 C57.73455261 7.27105713 25.72455261 7.27105713 -7.25544739 7.27105713 C-7.58544739 5.62105713 -7.91544739 3.97105713 -8.25544739 2.27105713 C-5.59617326 -0.388217 -3.6172211 0.02552523 0 0 Z " fill="#090B08" transform="translate(273.2554473876953,357.72894287109375)"/>
<path d="M0 0 C32.01 0 64.02 0 97 0 C97.495 2.475 97.495 2.475 98 5 C95.34072587 7.65927413 93.36177371 7.2455319 89.74455261 7.27105713 C88.86656509 7.26700867 87.98857758 7.26296021 87.08398438 7.25878906 C86.1603157 7.2622937 85.23664703 7.26579834 84.2849884 7.26940918 C81.2211666 7.27823676 78.1575743 7.27237371 75.09375 7.265625 C72.97147578 7.26697135 70.84920187 7.26891164 68.72692871 7.27142334 C64.27479115 7.274376 59.82273373 7.2700724 55.37060547 7.26074219 C49.65368013 7.24934761 43.93694255 7.25590632 38.22002411 7.26788712 C33.83639095 7.27510188 29.45280257 7.27281955 25.06916809 7.26763153 C22.96075926 7.26629397 20.8523464 7.26794644 18.74394226 7.27259064 C15.80118994 7.27764956 12.85874496 7.26995454 9.91601562 7.25878906 C9.03802811 7.26283752 8.16004059 7.26688599 7.25544739 7.27105713 C1.22852766 7.22852766 1.22852766 7.22852766 -1 5 C-0.67 3.35 -0.34 1.7 0 0 Z " fill="#0C0E0B" transform="translate(266,305)"/>
<path d="M0 0 C1.3364003 0.00067978 1.3364003 0.00067978 2.69979858 0.00137329 C3.6330748 -0.00198532 4.56635101 -0.00534393 5.52790833 -0.00880432 C8.62957063 -0.01834516 11.73117914 -0.02025899 14.83285522 -0.02133179 C16.97897871 -0.02454215 19.12510197 -0.02790604 21.27122498 -0.03141785 C25.7763927 -0.03741694 30.28154121 -0.03925694 34.78671265 -0.03866577 C40.57203357 -0.03856409 46.35723192 -0.05221859 52.14252377 -0.06943798 C56.5767626 -0.08053248 61.01097156 -0.08258577 65.44522285 -0.08205605 C67.57875555 -0.08323993 69.71228892 -0.08768441 71.84580803 -0.09538841 C74.8245704 -0.10513716 77.80306354 -0.10233061 80.78182983 -0.09628296 C81.67073914 -0.10190247 82.55964844 -0.10752197 83.47549438 -0.11331177 C89.57719628 -0.08167824 89.57719628 -0.08167824 91.80551147 2.14663696 C91.26979719 5.68235125 91.26979719 5.68235125 89.80551147 7.14663696 C86.86369323 7.24723654 83.94531425 7.28278739 81.00302124 7.27603149 C80.0794986 7.27778381 79.15597595 7.27953613 78.20446777 7.28134155 C75.13526561 7.28576209 72.06612053 7.28282113 68.99691772 7.27944946 C66.87321461 7.2801225 64.74951157 7.28109253 62.62580872 7.28234863 C58.16771717 7.28382593 53.70964562 7.28167026 49.2515564 7.27700806 C43.52680397 7.27131421 37.80209845 7.2745874 32.07734776 7.28058052 C27.68943425 7.28418823 23.30153192 7.28304651 18.91361809 7.28045273 C16.80241834 7.27978386 14.69121758 7.28061048 12.580019 7.28293228 C9.6324506 7.28546185 6.6849589 7.2816137 3.73739624 7.27603149 C2.4180584 7.27906784 2.4180584 7.27906784 1.07206726 7.28216553 C-4.96596236 7.26090005 -4.96596236 7.26090005 -7.19448853 6.14663696 C-7.23720953 4.48051791 -7.23512685 2.81280811 -7.19448853 1.14663696 C-5.29922388 -0.74862768 -2.52271251 0.01334502 0 0 Z " fill="#000000" transform="translate(272.1944885253906,250.85336303710938)"/>
<path d="M0 0 C0.87798752 0.00404846 1.75597504 0.00809692 2.66056824 0.01226807 C4.04607124 0.00701111 4.04607124 0.00701111 5.45956421 0.00164795 C8.52338601 -0.00717963 11.58697832 -0.00131658 14.65080261 0.00543213 C16.77307683 0.00408577 18.89535074 0.00214549 21.0176239 -0.00036621 C25.46976146 -0.00331887 29.92181888 0.00098473 34.37394714 0.01031494 C40.09087248 0.02170952 45.80761006 0.01515081 51.5245285 0.00317001 C55.90816166 -0.00404475 60.29175004 -0.00176242 64.67538452 0.0034256 C66.78379336 0.00476316 68.89220621 0.00311069 71.00061035 -0.00153351 C73.94336268 -0.00659244 76.88580765 0.00110259 79.82853699 0.01226807 C80.70652451 0.0082196 81.58451202 0.00417114 82.48910522 0 C88.51602495 0.04252947 88.51602495 0.04252947 90.74455261 2.27105713 C90.20883833 5.80677141 90.20883833 5.80677141 88.74455261 7.27105713 C85.76157048 7.36633933 82.80178916 7.39657888 79.81852722 7.38458252 C78.88203842 7.38472855 77.94554962 7.38487457 76.98068237 7.38502502 C73.86939722 7.3843255 70.75817112 7.37653128 67.64689636 7.36871338 C65.49598219 7.36684934 63.34506758 7.36542537 61.19415283 7.36442566 C55.52073504 7.36059937 49.84734266 7.35076815 44.17393494 7.33972168 C38.38953495 7.32950993 32.60513088 7.32492855 26.82072449 7.31988525 C15.46198933 7.30914598 4.10327308 7.29206824 -7.25544739 7.27105713 C-7.88044739 4.89605713 -7.88044739 4.89605713 -8.25544739 2.27105713 C-5.59617326 -0.388217 -3.6172211 0.02552523 0 0 Z " fill="#090A08" transform="translate(273.2554473876953,196.72894287109375)"/>
<path d="M0 0 C0.66 0 1.32 0 2 0 C3.75342711 3.47744948 5.5021012 6.95726894 7.25 10.4375 C7.74113281 11.41138672 8.23226562 12.38527344 8.73828125 13.38867188 C17 29.85703125 17 29.85703125 17 33 C6.44 33 -4.12 33 -15 33 C-13.63401835 28.90205504 -12.39061386 25.54712642 -10.46875 21.77734375 C-9.98792969 20.82666016 -9.50710937 19.87597656 -9.01171875 18.89648438 C-8.51285156 17.92001953 -8.01398438 16.94355469 -7.5 15.9375 C-6.50856802 13.98922088 -5.51892164 12.04003185 -4.53125 10.08984375 C-4.09361328 9.23253662 -3.65597656 8.37522949 -3.20507812 7.49194336 C-2.01551111 5.03207495 -0.98324028 2.54849721 0 0 Z " fill="#C9CBC8" transform="translate(147,177)"/>
<path d="M0 0 C3.44141855 2.12342847 5.74196809 4.11153775 7 8 C7.51316889 11.93429482 7.17834015 13.67516615 5.25 17.1875 C0.85543237 22.68070953 0.85543237 22.68070953 -3.04296875 23.3515625 C-7.21318274 23.61700326 -10.10645472 23.4017412 -13.4375 20.75 C-16.5885381 17.36839813 -17.78147047 15.67539309 -18.375 11.125 C-17.78361472 6.19678937 -15.46862263 3.30078004 -11.8125 0.0625 C-7.69271475 -1.49386332 -4.2187977 -1.13317978 0 0 Z " fill="#070703" transform="translate(300,131)"/>
<path d="M0 0 C2.4375 1.5625 2.4375 1.5625 4 4 C4.80016627 8.01732963 4.66540643 10.96196597 2.4375 14.4375 C-0.88377478 16.5665223 -3.04580795 17.06817573 -7 17 C-10.4375 15 -10.4375 15 -13 12 C-13.77152986 7.67943279 -13.52747866 5.80880061 -11.125 2.125 C-7.356421 -1.643579 -5.11566802 -1.14661525 0 0 Z " fill="#F6F8F5" transform="translate(245,300)"/>
<path d="M0 0 C4.45850936 0.79616239 5.90783917 1.93313458 8.5 5.625 C9.125 9.125 9.125 9.125 8.5 12.625 C5.90783917 16.31686542 4.45850936 17.45383761 0 18.25 C-4.45850936 17.45383761 -5.90783917 16.31686542 -8.5 12.625 C-9.125 9.125 -9.125 9.125 -8.5 5.625 C-5.90783917 1.93313458 -4.45850936 0.79616239 0 0 Z " fill="#F8FAF8" transform="translate(240.5,245.375)"/>
<path d="M0 0 C3.5 0.625 3.5 0.625 6.4375 2.625 C9.29117716 6.77580314 9.2099846 8.6551078 8.5 13.625 C7.0625 16.125 7.0625 16.125 4.5 17.625 C1.36920307 18.22818106 -1.37459178 18.27875511 -4.5 17.625 C-7.81578076 14.95620085 -8.39008359 13.30892436 -9.0625 9.125 C-8.5 5.625 -8.5 5.625 -6.4375 2.6875 C-3.5 0.625 -3.5 0.625 0 0 Z " fill="#F8F9F7" transform="translate(240.5,191.375)"/>
<path d="M0 0 C3.34265205 1.20706879 3.94704566 1.92056849 6 5 C6.65364121 11.86323268 6.65364121 11.86323268 4.5625 15.5 C0.75043263 17.73145407 -2.69726459 17.90002172 -7 17 C-10.31578076 14.33120085 -10.89008359 12.68392436 -11.5625 8.5 C-11 5 -11 5 -8.875 2.0625 C-5.50089427 -0.35805411 -4.06071623 -0.60478752 0 0 Z " fill="#F9FAF8" transform="translate(243,353)"/>
<path d="M0 0 C2.5625 0.3125 2.5625 0.3125 4.4375 1.4375 C5.5625 3.3125 5.5625 3.3125 5.375 6.4375 C5.106875 7.38625 4.83875 8.335 4.5625 9.3125 C1.77386993 10.70681504 -0.35828868 10.56910094 -3.4375 10.3125 C-5.4375 7.3125 -5.4375 7.3125 -5.1875 4.75 C-4.19253762 1.51637226 -3.41216263 0.43745675 0 0 Z " fill="#ECF0EB" transform="translate(294.4375,136.6875)"/>
</svg>
