<?xml version="1.0" encoding="UTF-8"?>
<svg version="1.1" xmlns="http://www.w3.org/2000/svg" width="512" height="512">
<path d="M0 0 C1.00073296 -0.0131424 1.00073296 -0.0131424 2.02168274 -0.02655029 C4.2215019 -0.04851262 6.41930197 -0.03400615 8.61914062 -0.01708984 C10.15084213 -0.02045897 11.68254103 -0.0253124 13.2142334 -0.03158569 C16.42221566 -0.03895261 19.62950117 -0.02825852 22.83740234 -0.00488281 C26.94705409 0.02360627 31.05507336 0.00720112 35.16466522 -0.02274513 C38.32692743 -0.04082385 41.48880335 -0.03505777 44.65107727 -0.02210617 C46.16612441 -0.01877367 47.68120676 -0.02285385 49.19621277 -0.03450394 C51.31534525 -0.04722389 53.43184471 -0.0278275 55.55078125 0 C56.75561157 0.00397797 57.96044189 0.00795593 59.20178223 0.01205444 C62.27539062 0.64697266 62.27539062 0.64697266 64.66156006 2.89375305 C66.31275738 5.71072091 66.78507991 7.13189699 66.82128906 10.34545898 C66.84100769 11.24601517 66.86072632 12.14657135 66.88104248 13.07441711 C66.88288544 14.51218758 66.88288544 14.51218758 66.88476562 15.97900391 C66.90130188 16.97075119 66.91783813 17.96249847 66.93487549 18.98429871 C66.98334624 22.14275309 67.0047248 25.30072599 67.02539062 28.45947266 C67.05355101 30.60467916 67.08347853 32.74986324 67.11523438 34.89501953 C67.18910462 40.14558319 67.24075261 45.3960115 67.27539062 50.64697266 C67.86408432 50.83545776 68.45277802 51.02394287 69.05931091 51.21813965 C71.7782923 52.09332974 74.49359451 52.97945511 77.20898438 53.86572266 C78.1346521 54.16188477 79.06031982 54.45804688 80.01403809 54.76318359 C86.80020451 56.99001074 93.06045391 59.74976615 99.28820801 63.23999023 C102.59162534 65.14917179 102.59162534 65.14917179 106.28459167 65.40734863 C108.53713404 64.54700103 109.62484175 63.62737207 111.28051758 61.88720703 C111.83822342 61.30990845 112.39592926 60.73260986 112.97053528 60.13781738 C113.56227036 59.51177612 114.15400543 58.88573486 114.76367188 58.24072266 C116.03994153 56.9265096 117.31664797 55.61272061 118.59375 54.29931641 C120.59422755 52.22443788 122.58962878 50.14514681 124.5769043 48.05761719 C126.50086315 46.04281333 128.44324617 44.04727576 130.38867188 42.05322266 C130.97433426 41.4271814 131.55999664 40.80114014 132.16340637 40.15612793 C135.03114666 37.23713571 136.86678314 35.77918158 140.83081055 34.49658203 C148.95683658 34.85136494 154.55702186 42.55897972 160.01367188 47.94384766 C160.9350444 48.85144836 161.85641693 49.75904907 162.80570984 50.69415283 C164.7469436 52.6099837 166.68331622 54.53059848 168.61743164 56.45361328 C171.08830284 58.90788915 173.57943738 61.34047811 176.07577229 63.76881027 C178.46615341 66.10352976 180.83179761 68.46281527 183.20117188 70.81884766 C184.54324455 72.116138 184.54324455 72.116138 185.91242981 73.43963623 C192.70360276 80.2798079 192.70360276 80.2798079 193.50854492 85.02758789 C193.27117245 88.71245376 193.1826859 89.86275246 190.61914062 92.38525391 C189.97074219 93.04477051 189.32234375 93.70428711 188.65429688 94.38378906 C187.86925781 95.13063965 187.08421875 95.87749023 186.27539062 96.64697266 C185.33566406 97.5704248 184.3959375 98.49387695 183.42773438 99.4453125 C181.31756365 101.51521567 179.20171209 103.57905471 177.08007812 105.63720703 C176.53834961 106.1627417 175.99662109 106.68827637 175.43847656 107.22973633 C174.31964309 108.30931537 173.19650398 109.38444811 172.06933594 110.45532227 C170.42628476 112.01991846 168.8028456 113.6027613 167.18164062 115.18994141 C166.67346802 115.66400925 166.16529541 116.13807709 165.64172363 116.62651062 C164.05838324 118.12991768 164.05838324 118.12991768 162.27539062 120.64697266 C162.43322622 125.20770214 164.84188654 128.88498304 166.96289062 132.83447266 C177.27539062 152.66081437 177.27539062 152.66081437 177.27539062 161.64697266 C177.82805099 161.63809021 178.38071136 161.62920776 178.95011902 161.62005615 C184.70890955 161.53147359 190.46750613 161.47119345 196.22680664 161.42724609 C198.37532413 161.4071468 200.52378702 161.37986273 202.67211914 161.34521484 C205.76266968 161.29662353 208.85249617 161.27398686 211.94335938 161.25634766 C212.90187302 161.23570251 213.86038666 161.21505737 214.84794617 161.19378662 C219.1871618 161.19233087 221.59521839 161.22795769 225.35864258 163.54638672 C228.51953481 167.01044439 228.40874769 169.14359268 228.43652344 173.76147461 C228.44613098 175.04653397 228.45573853 176.33159332 228.46563721 177.65559387 C228.47048546 179.06547875 228.47476422 180.47536568 228.47851562 181.88525391 C228.48426766 183.32773338 228.49002539 184.77021283 228.49578857 186.21269226 C228.50630011 189.23986162 228.51214148 192.26700441 228.515625 195.29418945 C228.52110419 199.16797968 228.54511888 203.04141742 228.57359695 206.91509724 C228.59224878 209.89628616 228.59743032 212.8773907 228.59896088 215.85863304 C228.60198319 217.28634756 228.60999757 218.71406074 228.62314606 220.14171791 C228.64025458 222.14250326 228.63647455 224.14343399 228.63183594 226.14428711 C228.63548157 227.28186966 228.6391272 228.41945221 228.6428833 229.59150696 C228.23099066 233.01612987 227.32099481 234.89509789 225.27539062 237.64697266 C222.90148226 238.83392684 221.47294111 238.76773099 218.82568359 238.76049805 C217.90488007 238.76042252 216.98407654 238.76034698 216.03536987 238.76026917 C214.54156296 238.75252724 214.54156296 238.75252724 213.01757812 238.74462891 C211.99938995 238.74321396 210.98120178 238.74179901 209.93215942 238.74034119 C206.67154027 238.73473166 203.41098912 238.72217753 200.15039062 238.70947266 C197.94336036 238.70445888 195.73632903 238.69989576 193.52929688 238.69580078 C188.11130482 238.68475914 182.69335258 238.66801171 177.27539062 238.64697266 C177.10450928 239.39938232 176.93362793 240.15179199 176.75756836 240.92700195 C175.14506555 247.73267303 173.1370654 254.05602713 170.33789062 260.45947266 C170.00337891 261.25289063 169.66886719 262.04630859 169.32421875 262.86376953 C167.73795381 266.56505438 166.08050781 270.04593849 163.95898438 273.47119141 C162.05186676 276.34869975 162.05186676 276.34869975 162.49768066 278.65267944 C163.37335147 280.89817511 164.32000569 282.04884589 166.03515625 283.73144531 C166.90110413 284.59221176 166.90110413 284.59221176 167.7845459 285.47036743 C168.72360779 286.38149796 168.72360779 286.38149796 169.68164062 287.31103516 C170.32153931 287.94431732 170.96143799 288.57759949 171.62072754 289.23007202 C173.66531237 291.25125438 175.71978526 293.26200471 177.77539062 295.27197266 C179.82923432 297.29077766 181.88093619 299.3116947 183.93005371 301.33529663 C185.20564014 302.59387925 186.48429014 303.84936575 187.76623535 305.10147095 C193.01068517 310.25726904 193.01068517 310.25726904 193.77539062 314.27197266 C192.57507155 322.37412638 182.73239729 329.33676537 177.13085938 334.92431641 C176.2798616 335.7762709 175.42886383 336.6282254 174.55207825 337.5059967 C172.76747357 339.29127766 170.98162238 341.07531338 169.19458008 342.8581543 C166.450169 345.59716926 163.7111863 348.34153218 160.97265625 351.08642578 C159.23404486 352.82437707 157.49512367 354.56201851 155.75585938 356.29931641 C154.93506393 357.12213608 154.11426849 357.94495575 153.26860046 358.79270935 C152.51053604 359.54762161 151.75247162 360.30253387 150.97143555 361.08032227 C150.30415939 361.74680283 149.63688324 362.41328339 148.9493866 363.09996033 C146.82039459 365.06745424 145.51226888 365.60185299 142.65039062 366.14697266 C133.62850946 364.81039767 125.08558627 352.56937703 118.77539062 346.20947266 C117.6558343 345.08488936 116.53604433 343.96053861 115.41601562 342.83642578 C112.69977529 340.10927922 109.98670771 337.37901359 107.27539062 334.64697266 C103.91546711 335.72730817 100.68392584 336.82272753 97.53320312 338.41650391 C96.86683838 338.74585938 96.20047363 339.07521484 95.51391602 339.41455078 C94.81645264 339.759375 94.11898926 340.10419922 93.40039062 340.45947266 C74.40410476 349.64697266 74.40410476 349.64697266 66.27539062 349.64697266 C66.28538338 350.49808624 66.28538338 350.49808624 66.295578 351.36639404 C66.36193958 357.27106053 66.40719457 363.17562111 66.44018555 369.08056641 C66.45527354 371.28438622 66.47574638 373.488176 66.50170898 375.69189453 C66.5380912 378.85928762 66.55511695 382.02628377 66.56835938 385.19384766 C66.58384323 386.17939636 66.59932709 387.16494507 66.61528015 388.18035889 C66.61562004 389.56133759 66.61562004 389.56133759 66.6159668 390.97021484 C66.62595955 392.18266876 66.62595955 392.18266876 66.63615417 393.4196167 C66.18049924 396.23283253 65.21646529 397.58475525 63.27539062 399.64697266 C59.97205583 400.74808426 57.51052473 400.78056251 54.03149414 400.79223633 C52.74328262 400.79861618 51.45507111 400.80499603 50.12782288 400.81156921 C48.71998126 400.81309787 47.31213914 400.81421184 45.90429688 400.81494141 C44.4608507 400.81815485 43.01740484 400.82151899 41.57395935 400.82502747 C38.54856613 400.83101479 35.52320146 400.83286775 32.49780273 400.83227539 C28.62290047 400.83217375 24.74818134 400.84583001 20.87332249 400.8630476 C17.89217794 400.87417051 14.91107765 400.87619452 11.92991447 400.87566566 C10.50138657 400.87684518 9.07285751 400.88126541 7.64435005 400.88899803 C5.64581795 400.89880397 3.64723213 400.89465406 1.64868164 400.88989258 C0.51189468 400.8913176 -0.62489227 400.89274261 -1.79612732 400.89421082 C-4.73027657 400.6464942 -6.34213232 400.35078725 -8.72460938 398.64697266 C-10.65523718 395.77489264 -10.97085503 393.47869944 -10.95166016 390.06201172 C-10.95143356 388.71106415 -10.95143356 388.71106415 -10.95120239 387.33282471 C-10.93571854 385.88731232 -10.93571854 385.88731232 -10.91992188 384.41259766 C-10.91709198 383.41943542 -10.91426208 382.42627319 -10.91134644 381.40301514 C-10.90016081 378.23421122 -10.875059 375.065691 -10.84960938 371.89697266 C-10.83957749 369.74723716 -10.830452 367.59749722 -10.82226562 365.44775391 C-10.80022678 360.18073019 -10.76676522 354.9138717 -10.72460938 349.64697266 C-11.4900708 349.46956543 -12.25553223 349.2921582 -13.04418945 349.109375 C-19.39627289 347.58795933 -25.40924362 345.84206833 -31.41210938 343.27197266 C-32.13615967 342.97033203 -32.86020996 342.66869141 -33.60620117 342.35791016 C-38.27984524 340.37524753 -42.69576193 338.16671137 -46.96289062 335.39697266 C-49.31224257 334.39680509 -50.33553222 334.82177921 -52.72460938 335.64697266 C-54.34685777 336.8463179 -54.34685777 336.8463179 -55.80908203 338.40673828 C-56.66984848 339.27268616 -56.66984848 339.27268616 -57.54800415 340.15612793 C-58.1554245 340.78216919 -58.76284485 341.40821045 -59.38867188 342.05322266 C-60.02195404 342.69312134 -60.65523621 343.33302002 -61.30770874 343.99230957 C-63.3288911 346.03689441 -65.33964142 348.09136729 -67.34960938 350.14697266 C-69.36841438 352.20081635 -71.38933142 354.25251822 -73.41293335 356.30163574 C-74.67151597 357.57722217 -75.92700247 358.85587217 -77.17910767 360.13781738 C-82.33490576 365.38226721 -82.33490576 365.38226721 -86.34960938 366.14697266 C-90.01867454 365.60340745 -90.7136904 365.07664428 -93.35571289 362.67626953 C-94.05922882 362.03810303 -94.76274475 361.39993652 -95.48757935 360.74243164 C-102.08686142 354.5607869 -108.51353154 348.20545234 -114.93579102 341.84082031 C-116.7596887 340.03864541 -118.58983117 338.24276964 -120.42602539 336.453125 C-123.09091655 333.85500464 -125.73570723 331.23785109 -128.37695312 328.61572266 C-129.1997728 327.82073364 -130.02259247 327.02574463 -130.87034607 326.20666504 C-134.25183507 322.81274816 -136.44606637 320.51032664 -137.93383789 315.89892578 C-137.5015352 309.17982217 -132.8844892 305.598446 -128.27148438 301.20947266 C-127.00008324 299.9730771 -125.72926693 298.73607992 -124.45898438 297.49853516 C-122.46138021 295.563048 -120.45956332 293.63261512 -118.44726562 291.71240234 C-116.50020164 289.84978704 -114.57235586 287.96895804 -112.64648438 286.08447266 C-111.73416046 285.22801147 -111.73416046 285.22801147 -110.80340576 284.35424805 C-108.91403872 282.55683492 -108.91403872 282.55683492 -106.72460938 279.64697266 C-106.77120066 275.09958037 -109.29694986 271.39807919 -111.41210938 267.45947266 C-121.72460938 247.63313094 -121.72460938 247.63313094 -121.72460938 238.64697266 C-122.29201843 238.6558551 -122.85942749 238.66473755 -123.44403076 238.67388916 C-129.34865243 238.76237059 -135.25308584 238.82270997 -141.15820312 238.86669922 C-143.36205698 238.88681685 -145.56585744 238.91411437 -147.76953125 238.94873047 C-150.93698294 238.99724099 -154.10372905 239.01994002 -157.27148438 239.03759766 C-158.74980743 239.06856537 -158.74980743 239.06856537 -160.25799561 239.10015869 C-167.08226813 239.10239816 -167.08226813 239.10239816 -170.31542969 236.81005859 C-172.76615853 233.04819832 -172.85845334 229.98859669 -172.88574219 225.60253906 C-172.89534973 224.35759674 -172.90495728 223.11265442 -172.91485596 221.82998657 C-172.9197039 220.46950463 -172.92398274 219.10902056 -172.92773438 217.74853516 C-172.93348841 216.35232542 -172.93924611 214.95611571 -172.94500732 213.55990601 C-172.95550786 210.6328698 -172.96135676 207.70586098 -172.96484375 204.77880859 C-172.97032744 201.03395747 -172.99435634 197.28947013 -173.0228157 193.54473305 C-173.04146805 190.66048128 -173.04664905 187.77631671 -173.04817963 184.89200974 C-173.0512007 183.51174302 -173.05921085 182.13147764 -173.07236481 180.75127029 C-173.08947806 178.81765219 -173.08569261 176.88388358 -173.08105469 174.95019531 C-173.08470032 173.85115875 -173.08834595 172.75212219 -173.09210205 171.61978149 C-172.67165062 168.21856614 -171.76432053 166.37975796 -169.72460938 163.64697266 C-166.59886645 161.56314404 -165.82008382 161.38807307 -162.25317383 161.328125 C-160.90211296 161.29832047 -160.90211296 161.29832047 -159.52375793 161.26791382 C-158.55492172 161.25636261 -157.58608551 161.2448114 -156.58789062 161.23291016 C-155.59331345 161.21354401 -154.59873627 161.19417786 -153.57402039 161.17422485 C-150.39513748 161.11441106 -147.2162184 161.06803627 -144.03710938 161.02197266 C-141.88279665 160.98379455 -139.72849921 160.94474292 -137.57421875 160.90478516 C-132.29115129 160.80870815 -127.00799185 160.72366592 -121.72460938 160.64697266 C-121.53612427 160.05827896 -121.34763916 159.46958527 -121.15344238 158.86305237 C-120.2782523 156.14407099 -119.39212692 153.42876877 -118.50585938 150.71337891 C-118.20969727 149.78771118 -117.91353516 148.86204346 -117.60839844 147.9083252 C-115.38157129 141.12215877 -112.62181588 134.86190937 -109.1315918 128.63415527 C-107.22241024 125.33073794 -107.22241024 125.33073794 -106.9642334 121.63777161 C-107.824581 119.38522924 -108.74420996 118.29752153 -110.484375 116.6418457 C-111.06167358 116.08413986 -111.63897217 115.52643402 -112.23376465 114.951828 C-112.85980591 114.36009293 -113.48584717 113.76835785 -114.13085938 113.15869141 C-115.44507243 111.88242175 -116.75886142 110.60571531 -118.07226562 109.32861328 C-120.14714415 107.32813573 -122.22643522 105.3327345 -124.31396484 103.34545898 C-126.3287687 101.42150013 -128.32430627 99.47911711 -130.31835938 97.53369141 C-130.94440063 96.94802902 -131.57044189 96.36236664 -132.2154541 95.75895691 C-135.13444632 92.89121662 -136.59240046 91.05558015 -137.875 87.09155273 C-137.52565693 79.09012197 -130.13539453 73.75115078 -124.79492188 68.41650391 C-123.92696991 67.54426682 -123.05901794 66.67202972 -122.1647644 65.77336121 C-120.33325721 63.93612586 -118.49914358 62.10148561 -116.66259766 60.26928711 C-113.85757212 57.46742642 -111.06614284 54.65249484 -108.27539062 51.83642578 C-106.49104551 50.04980801 -104.70591536 48.26397387 -102.91992188 46.47900391 C-102.08848663 45.63835892 -101.25705139 44.79771393 -100.40042114 43.93159485 C-91.16685341 34.77106385 -91.16685341 34.77106385 -84.78540039 34.54101562 C-80.36718526 36.13745134 -77.91256605 38.95026905 -74.75195312 42.34228516 C-73.427136 43.71082572 -72.10226458 45.07931374 -70.77734375 46.44775391 C-68.71044626 48.61443605 -66.64883017 50.78599177 -64.58959961 52.95996094 C-62.59367055 55.05811761 -60.58005811 57.13805136 -58.56445312 59.21728516 C-57.9528685 59.87552277 -57.34128387 60.53376038 -56.71116638 61.21194458 C-55.11159077 62.85720889 -53.61134008 64.34125462 -51.72460938 65.64697266 C-49.03665804 65.84893923 -49.03665804 65.84893923 -46.72460938 64.64697266 C-46.04551514 64.36305664 -45.3664209 64.07914063 -44.66674805 63.78662109 C-43.66478394 63.27663574 -43.66478394 63.27663574 -42.64257812 62.75634766 C-41.48918945 62.1859375 -41.48918945 62.1859375 -40.3125 61.60400391 C-38.75280019 60.81971222 -37.19536417 60.03089643 -35.640625 59.23681641 C-27.95151719 55.4523831 -19.92066228 53.06458217 -11.72460938 50.64697266 C-11.72096375 50.09431229 -11.71731812 49.54165192 -11.71356201 48.97224426 C-11.67170696 43.21292272 -11.60234088 37.45439589 -11.51708984 31.69555664 C-11.4888881 29.54720005 -11.46766962 27.39873985 -11.45361328 25.25024414 C-11.43217315 22.15929147 -11.38551626 19.06958343 -11.33398438 15.97900391 C-11.33275574 15.02049026 -11.3315271 14.06197662 -11.33026123 13.07441711 C-11.3105426 12.17386093 -11.29082397 11.27330475 -11.27050781 10.34545898 C-11.26162537 9.55714188 -11.25274292 8.76882477 -11.24359131 7.95661926 C-9.78718694 1.4751231 -6.19977657 0.02046969 0 0 Z M-41.72460938 126.64697266 C-42.34464844 127.18451172 -42.9646875 127.72205078 -43.60351562 128.27587891 C-59.74229989 143.21642397 -71.54966021 167.56903938 -72.90161133 189.52099609 C-73.5339015 220.32435957 -67.55417429 246.52109834 -45.83789062 269.47509766 C-45.14050781 270.19181641 -44.443125 270.90853516 -43.72460938 271.64697266 C-42.84869141 272.59830078 -42.84869141 272.59830078 -41.95507812 273.56884766 C-24.3786882 292.17430022 2.39319752 301.20074298 27.46289062 301.95947266 C57.56341625 301.30273392 82.7037157 289.07892832 103.61132812 267.61181641 C118.43252925 251.11725387 128.70904591 228.01758871 129.27539062 205.64697266 C129.33339844 204.53128906 129.33339844 204.53128906 129.39257812 203.39306641 C130.20825853 175.88651058 119.13212767 150.00860029 100.57617188 130.01806641 C84.49725575 113.44777424 61.88747921 100.82064002 38.44555664 99.48583984 C7.12335898 99.03482118 -18.01688388 105.46386352 -41.72460938 126.64697266 Z " fill="#91BFFB" transform="translate(229.724609375,55.35302734375)"/>
<path d="M0 0 C1.00073296 -0.0131424 1.00073296 -0.0131424 2.02168274 -0.02655029 C4.2215019 -0.04851262 6.41930197 -0.03400615 8.61914062 -0.01708984 C10.15084213 -0.02045897 11.68254103 -0.0253124 13.2142334 -0.03158569 C16.42221566 -0.03895261 19.62950117 -0.02825852 22.83740234 -0.00488281 C26.94705409 0.02360627 31.05507336 0.00720112 35.16466522 -0.02274513 C38.32692743 -0.04082385 41.48880335 -0.03505777 44.65107727 -0.02210617 C46.16612441 -0.01877367 47.68120676 -0.02285385 49.19621277 -0.03450394 C51.31534525 -0.04722389 53.43184471 -0.0278275 55.55078125 0 C56.75561157 0.00397797 57.96044189 0.00795593 59.20178223 0.01205444 C62.27539062 0.64697266 62.27539062 0.64697266 64.66156006 2.89375305 C66.31275738 5.71072091 66.78507991 7.13189699 66.82128906 10.34545898 C66.84100769 11.24601517 66.86072632 12.14657135 66.88104248 13.07441711 C66.88288544 14.51218758 66.88288544 14.51218758 66.88476562 15.97900391 C66.90130188 16.97075119 66.91783813 17.96249847 66.93487549 18.98429871 C66.98334624 22.14275309 67.0047248 25.30072599 67.02539062 28.45947266 C67.05355101 30.60467916 67.08347853 32.74986324 67.11523438 34.89501953 C67.18910462 40.14558319 67.24075261 45.3960115 67.27539062 50.64697266 C67.86408432 50.83545776 68.45277802 51.02394287 69.05931091 51.21813965 C71.7782923 52.09332974 74.49359451 52.97945511 77.20898438 53.86572266 C78.1346521 54.16188477 79.06031982 54.45804688 80.01403809 54.76318359 C86.80020451 56.99001074 93.06045391 59.74976615 99.28820801 63.23999023 C102.59162534 65.14917179 102.59162534 65.14917179 106.28459167 65.40734863 C108.53713404 64.54700103 109.62484175 63.62737207 111.28051758 61.88720703 C111.83822342 61.30990845 112.39592926 60.73260986 112.97053528 60.13781738 C113.56227036 59.51177612 114.15400543 58.88573486 114.76367188 58.24072266 C116.03994153 56.9265096 117.31664797 55.61272061 118.59375 54.29931641 C120.59422755 52.22443788 122.58962878 50.14514681 124.5769043 48.05761719 C126.50086315 46.04281333 128.44324617 44.04727576 130.38867188 42.05322266 C130.97433426 41.4271814 131.55999664 40.80114014 132.16340637 40.15612793 C135.03114666 37.23713571 136.86678314 35.77918158 140.83081055 34.49658203 C148.95683658 34.85136494 154.55702186 42.55897972 160.01367188 47.94384766 C160.9350444 48.85144836 161.85641693 49.75904907 162.80570984 50.69415283 C164.7469436 52.6099837 166.68331622 54.53059848 168.61743164 56.45361328 C171.08830284 58.90788915 173.57943738 61.34047811 176.07577229 63.76881027 C178.46615341 66.10352976 180.83179761 68.46281527 183.20117188 70.81884766 C184.54324455 72.116138 184.54324455 72.116138 185.91242981 73.43963623 C192.70360276 80.2798079 192.70360276 80.2798079 193.50854492 85.02758789 C193.27117245 88.71245376 193.1826859 89.86275246 190.61914062 92.38525391 C189.97074219 93.04477051 189.32234375 93.70428711 188.65429688 94.38378906 C187.86925781 95.13063965 187.08421875 95.87749023 186.27539062 96.64697266 C185.33566406 97.5704248 184.3959375 98.49387695 183.42773438 99.4453125 C181.31756365 101.51521567 179.20171209 103.57905471 177.08007812 105.63720703 C176.53834961 106.1627417 175.99662109 106.68827637 175.43847656 107.22973633 C174.31964309 108.30931537 173.19650398 109.38444811 172.06933594 110.45532227 C170.42628476 112.01991846 168.8028456 113.6027613 167.18164062 115.18994141 C166.67346802 115.66400925 166.16529541 116.13807709 165.64172363 116.62651062 C164.05838324 118.12991768 164.05838324 118.12991768 162.27539062 120.64697266 C162.43322622 125.20770214 164.84188654 128.88498304 166.96289062 132.83447266 C177.27539062 152.66081437 177.27539062 152.66081437 177.27539062 161.64697266 C177.82805099 161.63809021 178.38071136 161.62920776 178.95011902 161.62005615 C184.70890955 161.53147359 190.46750613 161.47119345 196.22680664 161.42724609 C198.37532413 161.4071468 200.52378702 161.37986273 202.67211914 161.34521484 C205.76266968 161.29662353 208.85249617 161.27398686 211.94335938 161.25634766 C212.90187302 161.23570251 213.86038666 161.21505737 214.84794617 161.19378662 C219.1871618 161.19233087 221.59521839 161.22795769 225.35864258 163.54638672 C228.51953481 167.01044439 228.40874769 169.14359268 228.43652344 173.76147461 C228.44613098 175.04653397 228.45573853 176.33159332 228.46563721 177.65559387 C228.47048546 179.06547875 228.47476422 180.47536568 228.47851562 181.88525391 C228.48426766 183.32773338 228.49002539 184.77021283 228.49578857 186.21269226 C228.50630011 189.23986162 228.51214148 192.26700441 228.515625 195.29418945 C228.52110419 199.16797968 228.54511888 203.04141742 228.57359695 206.91509724 C228.59224878 209.89628616 228.59743032 212.8773907 228.59896088 215.85863304 C228.60198319 217.28634756 228.60999757 218.71406074 228.62314606 220.14171791 C228.64025458 222.14250326 228.63647455 224.14343399 228.63183594 226.14428711 C228.63548157 227.28186966 228.6391272 228.41945221 228.6428833 229.59150696 C228.23099066 233.01612987 227.32099481 234.89509789 225.27539062 237.64697266 C222.90148226 238.83392684 221.47294111 238.76773099 218.82568359 238.76049805 C217.90488007 238.76042252 216.98407654 238.76034698 216.03536987 238.76026917 C214.54156296 238.75252724 214.54156296 238.75252724 213.01757812 238.74462891 C211.99938995 238.74321396 210.98120178 238.74179901 209.93215942 238.74034119 C206.67154027 238.73473166 203.41098912 238.72217753 200.15039062 238.70947266 C197.94336036 238.70445888 195.73632903 238.69989576 193.52929688 238.69580078 C188.11130482 238.68475914 182.69335258 238.66801171 177.27539062 238.64697266 C177.10450928 239.39938232 176.93362793 240.15179199 176.75756836 240.92700195 C175.14506555 247.73267303 173.1370654 254.05602713 170.33789062 260.45947266 C170.00337891 261.25289063 169.66886719 262.04630859 169.32421875 262.86376953 C167.73795381 266.56505438 166.08050781 270.04593849 163.95898438 273.47119141 C162.05186676 276.34869975 162.05186676 276.34869975 162.49768066 278.65267944 C163.37335147 280.89817511 164.32000569 282.04884589 166.03515625 283.73144531 C166.90110413 284.59221176 166.90110413 284.59221176 167.7845459 285.47036743 C168.72360779 286.38149796 168.72360779 286.38149796 169.68164062 287.31103516 C170.32153931 287.94431732 170.96143799 288.57759949 171.62072754 289.23007202 C173.66531237 291.25125438 175.71978526 293.26200471 177.77539062 295.27197266 C179.82923432 297.29077766 181.88093619 299.3116947 183.93005371 301.33529663 C185.20564014 302.59387925 186.48429014 303.84936575 187.76623535 305.10147095 C193.01068517 310.25726904 193.01068517 310.25726904 193.77539062 314.27197266 C192.57507155 322.37412638 182.73239729 329.33676537 177.13085938 334.92431641 C176.2798616 335.7762709 175.42886383 336.6282254 174.55207825 337.5059967 C172.76747357 339.29127766 170.98162238 341.07531338 169.19458008 342.8581543 C166.450169 345.59716926 163.7111863 348.34153218 160.97265625 351.08642578 C159.23404486 352.82437707 157.49512367 354.56201851 155.75585938 356.29931641 C154.93506393 357.12213608 154.11426849 357.94495575 153.26860046 358.79270935 C152.51053604 359.54762161 151.75247162 360.30253387 150.97143555 361.08032227 C150.30415939 361.74680283 149.63688324 362.41328339 148.9493866 363.09996033 C146.82039459 365.06745424 145.51226888 365.60185299 142.65039062 366.14697266 C133.62850946 364.81039767 125.08558627 352.56937703 118.77539062 346.20947266 C117.6558343 345.08488936 116.53604433 343.96053861 115.41601562 342.83642578 C112.69977529 340.10927922 109.98670771 337.37901359 107.27539062 334.64697266 C103.91546711 335.72730817 100.68392584 336.82272753 97.53320312 338.41650391 C96.86683838 338.74585938 96.20047363 339.07521484 95.51391602 339.41455078 C94.81645264 339.759375 94.11898926 340.10419922 93.40039062 340.45947266 C74.40410476 349.64697266 74.40410476 349.64697266 66.27539062 349.64697266 C66.28538338 350.49808624 66.28538338 350.49808624 66.295578 351.36639404 C66.36193958 357.27106053 66.40719457 363.17562111 66.44018555 369.08056641 C66.45527354 371.28438622 66.47574638 373.488176 66.50170898 375.69189453 C66.5380912 378.85928762 66.55511695 382.02628377 66.56835938 385.19384766 C66.58384323 386.17939636 66.59932709 387.16494507 66.61528015 388.18035889 C66.61562004 389.56133759 66.61562004 389.56133759 66.6159668 390.97021484 C66.62595955 392.18266876 66.62595955 392.18266876 66.63615417 393.4196167 C66.18049924 396.23283253 65.21646529 397.58475525 63.27539062 399.64697266 C59.97205583 400.74808426 57.51052473 400.78056251 54.03149414 400.79223633 C52.74328262 400.79861618 51.45507111 400.80499603 50.12782288 400.81156921 C48.71998126 400.81309787 47.31213914 400.81421184 45.90429688 400.81494141 C44.4608507 400.81815485 43.01740484 400.82151899 41.57395935 400.82502747 C38.54856613 400.83101479 35.52320146 400.83286775 32.49780273 400.83227539 C28.62290047 400.83217375 24.74818134 400.84583001 20.87332249 400.8630476 C17.89217794 400.87417051 14.91107765 400.87619452 11.92991447 400.87566566 C10.50138657 400.87684518 9.07285751 400.88126541 7.64435005 400.88899803 C5.64581795 400.89880397 3.64723213 400.89465406 1.64868164 400.88989258 C0.51189468 400.8913176 -0.62489227 400.89274261 -1.79612732 400.89421082 C-4.73027657 400.6464942 -6.34213232 400.35078725 -8.72460938 398.64697266 C-10.65523718 395.77489264 -10.97085503 393.47869944 -10.95166016 390.06201172 C-10.95143356 388.71106415 -10.95143356 388.71106415 -10.95120239 387.33282471 C-10.93571854 385.88731232 -10.93571854 385.88731232 -10.91992188 384.41259766 C-10.91709198 383.41943542 -10.91426208 382.42627319 -10.91134644 381.40301514 C-10.90016081 378.23421122 -10.875059 375.065691 -10.84960938 371.89697266 C-10.83957749 369.74723716 -10.830452 367.59749722 -10.82226562 365.44775391 C-10.80022678 360.18073019 -10.76676522 354.9138717 -10.72460938 349.64697266 C-11.4900708 349.46956543 -12.25553223 349.2921582 -13.04418945 349.109375 C-19.39627289 347.58795933 -25.40924362 345.84206833 -31.41210938 343.27197266 C-32.13615967 342.97033203 -32.86020996 342.66869141 -33.60620117 342.35791016 C-38.27984524 340.37524753 -42.69576193 338.16671137 -46.96289062 335.39697266 C-49.31224257 334.39680509 -50.33553222 334.82177921 -52.72460938 335.64697266 C-54.34685777 336.8463179 -54.34685777 336.8463179 -55.80908203 338.40673828 C-56.66984848 339.27268616 -56.66984848 339.27268616 -57.54800415 340.15612793 C-58.1554245 340.78216919 -58.76284485 341.40821045 -59.38867188 342.05322266 C-60.02195404 342.69312134 -60.65523621 343.33302002 -61.30770874 343.99230957 C-63.3288911 346.03689441 -65.33964142 348.09136729 -67.34960938 350.14697266 C-69.36841438 352.20081635 -71.38933142 354.25251822 -73.41293335 356.30163574 C-74.67151597 357.57722217 -75.92700247 358.85587217 -77.17910767 360.13781738 C-82.33490576 365.38226721 -82.33490576 365.38226721 -86.34960938 366.14697266 C-90.01867454 365.60340745 -90.7136904 365.07664428 -93.35571289 362.67626953 C-94.05922882 362.03810303 -94.76274475 361.39993652 -95.48757935 360.74243164 C-102.08686142 354.5607869 -108.51353154 348.20545234 -114.93579102 341.84082031 C-116.7596887 340.03864541 -118.58983117 338.24276964 -120.42602539 336.453125 C-123.09091655 333.85500464 -125.73570723 331.23785109 -128.37695312 328.61572266 C-129.1997728 327.82073364 -130.02259247 327.02574463 -130.87034607 326.20666504 C-134.25183507 322.81274816 -136.44606637 320.51032664 -137.93383789 315.89892578 C-137.5015352 309.17982217 -132.8844892 305.598446 -128.27148438 301.20947266 C-127.00008324 299.9730771 -125.72926693 298.73607992 -124.45898438 297.49853516 C-122.46138021 295.563048 -120.45956332 293.63261512 -118.44726562 291.71240234 C-116.50020164 289.84978704 -114.57235586 287.96895804 -112.64648438 286.08447266 C-111.73416046 285.22801147 -111.73416046 285.22801147 -110.80340576 284.35424805 C-108.91403872 282.55683492 -108.91403872 282.55683492 -106.72460938 279.64697266 C-106.77120066 275.09958037 -109.29694986 271.39807919 -111.41210938 267.45947266 C-121.72460938 247.63313094 -121.72460938 247.63313094 -121.72460938 238.64697266 C-122.29201843 238.6558551 -122.85942749 238.66473755 -123.44403076 238.67388916 C-129.34865243 238.76237059 -135.25308584 238.82270997 -141.15820312 238.86669922 C-143.36205698 238.88681685 -145.56585744 238.91411437 -147.76953125 238.94873047 C-150.93698294 238.99724099 -154.10372905 239.01994002 -157.27148438 239.03759766 C-158.74980743 239.06856537 -158.74980743 239.06856537 -160.25799561 239.10015869 C-167.08226813 239.10239816 -167.08226813 239.10239816 -170.31542969 236.81005859 C-172.76615853 233.04819832 -172.85845334 229.98859669 -172.88574219 225.60253906 C-172.89534973 224.35759674 -172.90495728 223.11265442 -172.91485596 221.82998657 C-172.9197039 220.46950463 -172.92398274 219.10902056 -172.92773438 217.74853516 C-172.93348841 216.35232542 -172.93924611 214.95611571 -172.94500732 213.55990601 C-172.95550786 210.6328698 -172.96135676 207.70586098 -172.96484375 204.77880859 C-172.97032744 201.03395747 -172.99435634 197.28947013 -173.0228157 193.54473305 C-173.04146805 190.66048128 -173.04664905 187.77631671 -173.04817963 184.89200974 C-173.0512007 183.51174302 -173.05921085 182.13147764 -173.07236481 180.75127029 C-173.08947806 178.81765219 -173.08569261 176.88388358 -173.08105469 174.95019531 C-173.08470032 173.85115875 -173.08834595 172.75212219 -173.09210205 171.61978149 C-172.67165062 168.21856614 -171.76432053 166.37975796 -169.72460938 163.64697266 C-166.59886645 161.56314404 -165.82008382 161.38807307 -162.25317383 161.328125 C-160.90211296 161.29832047 -160.90211296 161.29832047 -159.52375793 161.26791382 C-158.55492172 161.25636261 -157.58608551 161.2448114 -156.58789062 161.23291016 C-155.59331345 161.21354401 -154.59873627 161.19417786 -153.57402039 161.17422485 C-150.39513748 161.11441106 -147.2162184 161.06803627 -144.03710938 161.02197266 C-141.88279665 160.98379455 -139.72849921 160.94474292 -137.57421875 160.90478516 C-132.29115129 160.80870815 -127.00799185 160.72366592 -121.72460938 160.64697266 C-121.53612427 160.05827896 -121.34763916 159.46958527 -121.15344238 158.86305237 C-120.2782523 156.14407099 -119.39212692 153.42876877 -118.50585938 150.71337891 C-118.20969727 149.78771118 -117.91353516 148.86204346 -117.60839844 147.9083252 C-115.38157129 141.12215877 -112.62181588 134.86190937 -109.1315918 128.63415527 C-107.22241024 125.33073794 -107.22241024 125.33073794 -106.9642334 121.63777161 C-107.824581 119.38522924 -108.74420996 118.29752153 -110.484375 116.6418457 C-111.06167358 116.08413986 -111.63897217 115.52643402 -112.23376465 114.951828 C-112.85980591 114.36009293 -113.48584717 113.76835785 -114.13085938 113.15869141 C-115.44507243 111.88242175 -116.75886142 110.60571531 -118.07226562 109.32861328 C-120.14714415 107.32813573 -122.22643522 105.3327345 -124.31396484 103.34545898 C-126.3287687 101.42150013 -128.32430627 99.47911711 -130.31835938 97.53369141 C-130.94440063 96.94802902 -131.57044189 96.36236664 -132.2154541 95.75895691 C-135.13444632 92.89121662 -136.59240046 91.05558015 -137.875 87.09155273 C-137.52565693 79.09012197 -130.13539453 73.75115078 -124.79492188 68.41650391 C-123.92696991 67.54426682 -123.05901794 66.67202972 -122.1647644 65.77336121 C-120.33325721 63.93612586 -118.49914358 62.10148561 -116.66259766 60.26928711 C-113.85757212 57.46742642 -111.06614284 54.65249484 -108.27539062 51.83642578 C-106.49104551 50.04980801 -104.70591536 48.26397387 -102.91992188 46.47900391 C-102.08848663 45.63835892 -101.25705139 44.79771393 -100.40042114 43.93159485 C-91.16685341 34.77106385 -91.16685341 34.77106385 -84.78540039 34.54101562 C-80.36718526 36.13745134 -77.91256605 38.95026905 -74.75195312 42.34228516 C-73.427136 43.71082572 -72.10226458 45.07931374 -70.77734375 46.44775391 C-68.71044626 48.61443605 -66.64883017 50.78599177 -64.58959961 52.95996094 C-62.59367055 55.05811761 -60.58005811 57.13805136 -58.56445312 59.21728516 C-57.9528685 59.87552277 -57.34128387 60.53376038 -56.71116638 61.21194458 C-55.11159077 62.85720889 -53.61134008 64.34125462 -51.72460938 65.64697266 C-49.03665804 65.84893923 -49.03665804 65.84893923 -46.72460938 64.64697266 C-46.04551514 64.36305664 -45.3664209 64.07914063 -44.66674805 63.78662109 C-43.66478394 63.27663574 -43.66478394 63.27663574 -42.64257812 62.75634766 C-41.48918945 62.1859375 -41.48918945 62.1859375 -40.3125 61.60400391 C-38.75280019 60.81971222 -37.19536417 60.03089643 -35.640625 59.23681641 C-27.95151719 55.4523831 -19.92066228 53.06458217 -11.72460938 50.64697266 C-11.72096375 50.09431229 -11.71731812 49.54165192 -11.71356201 48.97224426 C-11.67170696 43.21292272 -11.60234088 37.45439589 -11.51708984 31.69555664 C-11.4888881 29.54720005 -11.46766962 27.39873985 -11.45361328 25.25024414 C-11.43217315 22.15929147 -11.38551626 19.06958343 -11.33398438 15.97900391 C-11.33275574 15.02049026 -11.3315271 14.06197662 -11.33026123 13.07441711 C-11.3105426 12.17386093 -11.29082397 11.27330475 -11.27050781 10.34545898 C-11.26162537 9.55714188 -11.25274292 8.76882477 -11.24359131 7.95661926 C-9.78718694 1.4751231 -6.19977657 0.02046969 0 0 Z M5.27539062 15.64697266 C5.14454039 29.90206506 5.14454039 29.90206506 5.06762695 44.1574707 C5.04117379 45.94957409 5.01289503 47.74165187 4.98242188 49.53369141 C4.98640991 50.45815063 4.99039795 51.38260986 4.99450684 52.33508301 C4.89407038 56.88676462 4.77357524 58.99209631 1.94750977 62.70703125 C-1.36811555 65.11415403 -4.08880229 65.77990956 -8.09960938 66.58447266 C-20.87744132 69.44157302 -31.94763813 74.31823768 -42.91577148 81.39550781 C-45.86580033 83.24685388 -48.31803436 84.54837689 -51.72070312 85.37353516 C-56.5477686 84.20600046 -59.26066173 81.08690554 -62.72460938 77.64697266 C-63.64628906 76.74479004 -64.56796875 75.84260742 -65.51757812 74.91308594 C-68.6106155 71.86893059 -71.66857484 68.7906969 -74.72460938 65.70947266 C-75.79598825 64.63306612 -76.8676012 63.55689252 -77.93945312 62.48095703 C-80.53720575 59.87230521 -83.13178899 57.26052794 -85.72460938 54.64697266 C-88.51117095 55.92123925 -90.5747786 57.24298908 -92.74902344 59.39672852 C-93.30930237 59.94747543 -93.8695813 60.49822235 -94.44683838 61.06565857 C-95.03865906 61.65839066 -95.63047974 62.25112274 -96.24023438 62.86181641 C-97.16397858 63.77913292 -97.16397858 63.77913292 -98.10638428 64.71498108 C-99.40322039 66.00608527 -100.69745862 67.29980345 -101.98925781 68.59594727 C-103.97271456 70.58257481 -105.96914936 72.55548674 -107.96679688 74.52783203 C-109.22541934 75.78418258 -110.48325939 77.04131756 -111.74023438 78.29931641 C-112.34015198 78.89002426 -112.94006958 79.48073212 -113.5581665 80.08934021 C-116.95087017 83.25992682 -116.95087017 83.25992682 -117.72460938 87.64697266 C-116.31182394 89.20578597 -116.31182394 89.20578597 -114.37304688 90.69384766 C-109.06917569 95.1398428 -104.22994786 99.99513489 -99.34960938 104.89697266 C-97.99802734 106.24275391 -97.99802734 106.24275391 -96.61914062 107.61572266 C-95.75933594 108.47681641 -94.89953125 109.33791016 -94.01367188 110.22509766 C-93.23717285 111.00272461 -92.46067383 111.78035156 -91.66064453 112.58154297 C-89.28605745 115.11483512 -87.83886996 116.88340431 -87.31835938 120.36181641 C-87.86687444 124.79740455 -89.8071001 127.52483698 -92.22460938 131.20947266 C-99.8523825 143.4811855 -105.31702066 157.2542192 -108.05664062 171.46728516 C-108.84754686 174.04813708 -109.62772059 174.96871408 -111.72460938 176.64697266 C-113.79374695 177.04570007 -113.79374695 177.04570007 -116.19604492 177.0793457 C-117.10930542 177.09928589 -118.02256592 177.11922607 -118.96350098 177.13977051 C-120.39792542 177.14913635 -120.39792542 177.14913635 -121.86132812 177.15869141 C-122.74292603 177.17532837 -123.62452393 177.19196533 -124.53283691 177.20910645 C-127.82568512 177.26693524 -131.11894268 177.29916547 -134.41210938 177.33447266 C-141.77523437 177.43759766 -149.13835937 177.54072266 -156.72460938 177.64697266 C-156.72460938 192.49697266 -156.72460938 207.34697266 -156.72460938 222.64697266 C-142.42451936 222.8569358 -142.42451936 222.8569358 -128.12402344 223.03491211 C-126.32940587 223.06720133 -124.53480735 223.10057495 -122.74023438 223.13525391 C-121.34587158 223.14461975 -121.34587158 223.14461975 -119.92333984 223.1541748 C-119.03050293 223.17411499 -118.13766602 223.19405518 -117.21777344 223.21459961 C-116.0586142 223.2312542 -116.0586142 223.2312542 -114.8760376 223.24824524 C-112.15005776 223.75345517 -110.75932902 224.79225761 -108.72460938 226.64697266 C-107.66308594 229.12036133 -107.66308594 229.12036133 -106.86523438 232.06494141 C-106.5581958 233.14727051 -106.25115723 234.22959961 -105.93481445 235.34472656 C-105.61794678 236.49634277 -105.3010791 237.64795898 -104.97460938 238.83447266 C-101.34502504 251.32216526 -96.92094676 262.40651678 -89.72460938 273.27197266 C-87.51504426 277.00061379 -86.67258944 278.43889291 -87.72460938 282.64697266 C-93.09968546 290.00129064 -100.20529624 296.24294544 -106.66210938 302.64697266 C-107.73851591 303.71835153 -108.81468952 304.78996448 -109.890625 305.86181641 C-112.49927682 308.45956903 -115.11105409 311.05415228 -117.72460938 313.64697266 C-116.42741014 316.50476282 -115.06092677 318.55705802 -112.83544922 320.76318359 C-112.25499847 321.34348328 -111.67454773 321.92378296 -111.07650757 322.52166748 C-110.45249054 323.13536194 -109.82847351 323.7490564 -109.18554688 324.38134766 C-108.22426376 325.33838593 -108.22426376 325.33838593 -107.24356079 326.3147583 C-105.20023116 328.34691335 -103.15004955 330.37199483 -101.09960938 332.39697266 C-99.71113078 333.77541796 -98.32310448 335.15431902 -96.93554688 336.53369141 C-93.5371224 339.9100916 -90.13253684 343.28016553 -86.72460938 346.64697266 C-82.24605825 342.91423874 -78.0329152 339.05593692 -74.00195312 334.84619141 C-72.958931 333.77594716 -71.91529327 332.70630257 -70.87109375 331.63720703 C-69.25673946 329.97946805 -67.64664714 328.31831874 -66.04663086 326.64672852 C-64.48070434 325.01411615 -62.89924204 323.39797237 -61.31445312 321.78369141 C-60.84240952 321.28270432 -60.37036591 320.78171722 -59.88401794 320.26554871 C-56.66832613 317.02451279 -54.30495844 315.77045005 -49.72460938 315.64697266 C-47.06795389 316.8722151 -44.80224934 318.10178521 -42.34960938 319.64697266 C-30.14832439 326.87898141 -17.87249795 331.90331082 -4.19824219 335.69458008 C-3.38452148 335.92250244 -2.57080078 336.1504248 -1.73242188 336.38525391 C-1.00684082 336.58159424 -0.28125977 336.77793457 0.46630859 336.98022461 C2.27539063 337.64697266 2.27539063 337.64697266 4.27539062 339.64697266 C4.55386353 341.59585571 4.55386353 341.59585571 4.59423828 344.00488281 C4.61429932 344.91826416 4.63436035 345.83164551 4.6550293 346.77270508 C4.66638916 347.734104 4.67774902 348.69550293 4.68945312 349.68603516 C4.70709717 350.56864014 4.72474121 351.45124512 4.74291992 352.3605957 C4.80608583 355.66420115 4.85220413 358.96811477 4.90039062 362.27197266 C5.02414063 369.65572266 5.14789063 377.03947266 5.27539062 384.64697266 C20.12539062 384.64697266 34.97539062 384.64697266 50.27539062 384.64697266 C50.44580916 370.34687827 50.44580916 370.34687827 50.57324219 356.04638672 C50.60261046 354.25176422 50.63343599 352.45716473 50.66601562 350.66259766 C50.66714355 349.73302246 50.66827148 348.80344727 50.66943359 347.84570312 C50.81438642 341.31575523 50.81438642 341.31575523 53.01635742 338.12133789 C55.38125767 336.57787819 57.30150166 335.75534697 60.02929688 335.04150391 C60.95734131 334.78481934 61.88538574 334.52813477 62.84155273 334.26367188 C63.83034424 333.99828613 64.81913574 333.73290039 65.83789062 333.45947266 C73.767102 331.19398369 81.27739017 328.60080805 88.71289062 325.02197266 C89.4619165 324.66208252 90.21094238 324.30219238 90.98266602 323.93139648 C95.33974698 321.76981632 99.31353891 319.36501204 103.24047852 316.48925781 C106.27032935 315.23515039 108.15976199 315.75021151 111.27539062 316.64697266 C113.67529297 318.34204102 113.67529297 318.34204102 115.98632812 320.54931641 C117.27555176 321.76917236 117.27555176 321.76917236 118.59082031 323.01367188 C119.47672852 323.88266113 120.36263672 324.75165039 121.27539062 325.64697266 C122.1587207 326.5095166 123.04205078 327.37206055 123.95214844 328.26074219 C126.61925445 330.89328001 129.26325083 333.54693818 131.90039062 336.20947266 C132.80917969 337.12277344 133.71796875 338.03607422 134.65429688 338.97705078 C136.86367018 341.19805236 139.07065094 343.42137298 141.27539062 345.64697266 C144.0850853 344.36674391 146.12931443 343.03983137 148.29980469 340.84960938 C148.86008362 340.28917938 149.42036255 339.72874939 149.99761963 339.15133667 C150.58944031 338.54919342 151.18126099 337.94705017 151.79101562 337.32666016 C152.40684509 336.70800079 153.02267456 336.08934143 153.65716553 335.45193481 C155.61799398 333.47993452 157.57174363 331.50108529 159.52539062 329.52197266 C160.85565861 328.18167102 162.18638262 326.84182183 163.51757812 325.50244141 C166.77549213 322.22250677 170.02707596 318.93641324 173.27539062 315.64697266 C171.64599647 311.48414548 168.5975697 308.73257824 165.46289062 305.67431641 C164.8933667 305.10999405 164.32384277 304.54567169 163.73706055 303.96424866 C161.92120074 302.16616121 160.09878764 300.37491382 158.27539062 298.58447266 C156.4528752 296.78960753 154.63185052 294.99329271 152.8137207 293.19398499 C151.68350207 292.07598747 150.55062052 290.96067409 149.41479492 289.84837341 C147.07668556 287.53997608 145.10540413 285.39199291 143.27539062 282.64697266 C143.5220139 277.30346835 145.00077238 273.92890551 147.83789062 269.45947266 C155.09593731 257.45241522 159.95410413 243.99823886 163.64135742 230.49511719 C164.67931708 226.85051244 164.99068296 225.83677777 168.27539062 223.64697266 C170.30656433 223.36849976 170.30656433 223.36849976 172.6550293 223.328125 C173.54798706 223.30806396 174.44094482 223.28800293 175.36096191 223.26733398 C176.29565308 223.25597412 177.23034424 223.24461426 178.19335938 223.23291016 C179.05529907 223.21526611 179.91723877 223.19762207 180.80529785 223.17944336 C184.02430586 223.11638931 187.24362625 223.07019363 190.46289062 223.02197266 C197.66101563 222.89822266 204.85914063 222.77447266 212.27539062 222.64697266 C212.27539062 207.79697266 212.27539062 192.94697266 212.27539062 177.64697266 C197.60115074 177.43694037 197.60115074 177.43694037 182.92651367 177.2590332 C181.08835806 177.22675163 179.25022115 177.1933791 177.41210938 177.15869141 C176.45582642 177.15244751 175.49954346 177.14620361 174.51428223 177.13977051 C173.60102173 177.11983032 172.68776123 177.09989014 171.74682617 177.0793457 C170.55768867 177.06269112 170.55768867 177.06269112 169.3445282 177.04570007 C166.767283 176.54905918 165.88833888 175.67778939 164.27539062 173.64697266 C163.51098633 171.66430664 163.51098633 171.66430664 162.95117188 169.39306641 C162.73146729 168.54736084 162.5117627 167.70165527 162.28540039 166.83032227 C162.05522217 165.92419189 161.82504395 165.01806152 161.58789062 164.08447266 C157.81671102 150.13098789 152.38188373 137.28045417 144.52539062 125.12744141 C143.00137579 122.10322447 142.67413485 121.00008488 143.27539062 117.64697266 C145.26172884 114.94984826 147.64720219 112.6951822 150.05664062 110.37744141 C150.74471802 109.69643875 151.43279541 109.0154361 152.14172363 108.313797 C154.34149134 106.1420112 156.55800367 103.98825195 158.77539062 101.83447266 C160.27001654 100.36492436 161.76352073 98.89423426 163.25585938 97.42236328 C166.91615333 93.81718955 170.59156098 90.22808743 174.27539062 86.64697266 C170.4397843 82.06032921 166.46900507 77.7004271 162.22070312 73.49462891 C161.67429169 72.94963242 161.12788025 72.40463593 160.56491089 71.84312439 C158.84577004 70.12951148 157.12315858 68.41943822 155.40039062 66.70947266 C154.22307424 65.53718062 153.04598889 64.36465651 151.86914062 63.19189453 C149.00721573 60.34090283 146.14217606 57.49307651 143.27539062 54.64697266 C139.00300896 56.29363324 136.17994321 59.50749769 133.04882812 62.71337891 C132.45993805 63.30747055 131.87104797 63.90156219 131.26431274 64.51365662 C129.38818255 66.4075654 127.51888957 68.30803697 125.65039062 70.20947266 C123.77388598 72.11358708 121.89594486 74.01622704 120.01504517 75.91600037 C118.84591339 77.09739815 117.67946504 78.28145867 116.51596069 79.46839905 C111.53036415 84.51572184 111.53036415 84.51572184 107.54882812 84.93212891 C103.49262472 84.57878422 101.34283937 83.23906944 97.90039062 81.08447266 C85.55274303 73.63795276 71.85189545 67.64926588 57.71289062 64.64697266 C53.88302515 63.53282997 53.23940682 62.96726655 51.27539062 59.64697266 C50.87666321 57.49554443 50.87666321 57.49554443 50.84301758 55.15380859 C50.82307739 54.26097168 50.80313721 53.36813477 50.78259277 52.44824219 C50.77634888 51.51866699 50.77010498 50.5890918 50.76367188 49.63134766 C50.74703491 48.77041504 50.73039795 47.90948242 50.71325684 47.02246094 C50.65553319 43.81421197 50.62322381 40.60554633 50.58789062 37.39697266 C50.48476563 30.21947266 50.38164062 23.04197266 50.27539062 15.64697266 C35.42539062 15.64697266 20.57539063 15.64697266 5.27539062 15.64697266 Z " fill="#126DFB" transform="translate(229.724609375,55.35302734375)"/>
<path d="M0 0 C0.77017456 -0.00067474 1.54034912 -0.00134949 2.3338623 -0.00204468 C15.84631099 0.01664788 28.98731575 0.87799 42.3125 3.25 C43.23820801 3.41097168 44.16391602 3.57194336 45.11767578 3.73779297 C84.60468385 10.84586411 122.2229705 27.86423431 153.3125 53.25 C154.84003906 54.47203125 154.84003906 54.47203125 156.3984375 55.71875 C169.60522042 66.45259048 182.06788863 78.6412027 192.3125 92.25 C192.95711182 93.09594727 192.95711182 93.09594727 193.61474609 93.95898438 C220.74112902 129.64710229 237.44385396 170.83501976 243.3125 215.25 C243.415625 216.00023437 243.51875 216.75046875 243.625 217.5234375 C249.83420721 269.41466916 237.15044117 320.84921138 212.3125 366.25 C213.18463135 366.00765625 214.0567627 365.7653125 214.95532227 365.515625 C218.21678273 364.61393858 221.4802468 363.72035391 224.74536133 362.83203125 C226.15346253 362.44719653 227.56071108 362.05922684 228.96704102 361.66796875 C230.99795589 361.10354576 233.03175126 360.55076703 235.06640625 360 C236.89667358 359.49726562 236.89667358 359.49726562 238.76391602 358.984375 C242.42837432 358.22601996 245.58241879 357.9703778 249.3125 358.25 C252.69927089 360.70000447 254.09948584 362.11392446 254.875 366.25 C254.17477248 369.98454678 252.91464831 371.50524277 250.3125 374.25 C247.75260925 375.42073059 247.75260925 375.42073059 244.82885742 376.19458008 C243.18145821 376.64448051 243.18145821 376.64448051 241.5007782 377.10346985 C240.31845108 377.40577011 239.13612396 377.70807037 237.91796875 378.01953125 C236.08689323 378.50833015 236.08689323 378.50833015 234.21882629 379.00700378 C231.63755498 379.69209416 229.05563988 380.36996522 226.46948242 381.03588867 C223.16945131 381.88600903 219.87624284 382.75962263 216.58465099 383.64178944 C213.42752501 384.48594834 210.26647722 385.31504897 207.10546875 386.14453125 C205.92921432 386.45695267 204.7529599 386.76937408 203.5410614 387.09126282 C190.13259671 390.53104201 190.13259671 390.53104201 185.02294922 388.20996094 C182.5943781 385.4271221 181.84212189 382.39127057 180.9453125 378.890625 C180.74491867 378.15733978 180.54452484 377.42405457 180.33805847 376.66854858 C179.68994124 374.28269205 179.06319515 371.89182545 178.4375 369.5 C177.99872177 367.86087539 177.55885737 366.22204117 177.11791992 364.58349609 C176.24320133 361.32370461 175.3772685 358.06176554 174.51806641 354.79785156 C173.4747148 350.84317408 172.39179921 346.90060577 171.29296875 342.9609375 C170.73631342 340.93247424 170.18026613 338.90384397 169.625 336.875 C169.36928223 335.96911133 169.11356445 335.06322266 168.85009766 334.12988281 C167.61291756 329.49112935 166.95334513 325.99965532 168.3125 321.25 C170.01064915 318.65808814 171.1945033 318.28591204 174.1875 317.375 C178.0537686 317.22034926 179.39182242 317.72400858 182.3125 320.25 C184.62916821 325.07194613 186.18795495 329.94322196 187.5390625 335.1171875 C187.73221039 335.83738068 187.92535828 336.55757385 188.12435913 337.29959106 C188.73368195 339.57344314 189.3361708 341.84902208 189.9375 344.125 C190.54663066 346.42221041 191.15728958 348.71897225 191.77206421 351.01467896 C192.15281364 352.43716075 192.53021762 353.86054303 192.90396118 355.28488159 C193.58100436 358.53763229 193.58100436 358.53763229 195.3125 361.25 C226.35586398 305.29151709 235.75319632 242.39020082 218.1875 180.375 C209.11098857 149.78049094 194.21743617 121.40597507 173.3125 97.25 C172.63058594 96.45722656 171.94867188 95.66445312 171.24609375 94.84765625 C160.60830837 82.76015426 149.3117163 71.76272129 136.3125 62.25 C135.26578125 61.48171875 134.2190625 60.7134375 133.140625 59.921875 C82.69940323 24.03583165 21.01098774 10.54271649 -39.89672852 20.66967773 C-82.65879262 28.35669478 -122.64756835 47.96206493 -154.171875 77.91015625 C-161.59658438 84.8160583 -161.59658438 84.8160583 -165.75 84.75 C-169.6875 84.25 -169.6875 84.25 -172.1875 82.6875 C-174.36821663 79.14383548 -174.44081723 77.35900306 -173.6875 73.25 C-171.74679474 70.17934464 -169.2911813 67.76689192 -166.6875 65.25 C-165.91148437 64.48816406 -165.13546875 63.72632813 -164.3359375 62.94140625 C-120.51988314 21.57428544 -59.73569873 0.04734305 0 0 Z " fill="#116CFB" transform="translate(257.6875,11.75)"/>
<path d="M0 0 C3.37550408 4.97266327 4.57305518 10.25918507 6.04248047 16.04272461 C6.53483688 17.90852928 6.53483688 17.90852928 7.03713989 19.81202698 C7.72855907 22.43773816 8.40801162 25.06616275 9.07861328 27.69726562 C9.93620354 31.0594266 10.81964598 34.4141152 11.71171379 37.767272 C12.56364667 40.98087025 13.39620055 44.19936745 14.22998047 47.41772461 C14.54756317 48.61787704 14.86514587 49.81802948 15.19235229 51.05455017 C15.47660065 52.17914139 15.760849 53.3037326 16.05371094 54.46240234 C16.30732391 55.44659653 16.56093689 56.43079071 16.82223511 57.44480896 C17.39132995 61.35029914 17.2518505 64.84181276 14.95263672 68.14038086 C12.78878646 69.59937784 11.40020555 69.76155615 8.80029297 69.79663086 C8.03845703 69.82756836 7.27662109 69.85850586 6.49169922 69.89038086 C3.0816712 68.99207192 2.19323299 67.19966176 0.23779297 64.29663086 C-0.86031596 61.4938667 -1.60314647 58.63041773 -2.34033203 55.71459961 C-2.55663269 54.90042068 -2.77293335 54.08624176 -2.99578857 53.24739075 C-3.6796432 50.66255244 -4.34613022 48.07360071 -5.01220703 45.48413086 C-5.47460686 43.72406486 -5.93813659 41.96429529 -6.40283203 40.20483398 C-7.53573284 35.90542112 -8.65308649 31.60223679 -9.76220703 27.29663086 C-39.06065849 79.70033364 -46.20508546 141.5184936 -30.38818359 199.4140625 C-27.05170485 211.10754639 -22.89899186 222.27931823 -17.76220703 233.29663086 C-17.43607422 233.99723633 -17.10994141 234.6978418 -16.77392578 235.41967773 C-9.14027148 251.61458179 0.12561685 266.26691588 11.23779297 280.29663086 C11.68880371 280.86623535 12.13981445 281.43583984 12.60449219 282.02270508 C23.41707788 295.52941668 35.60690745 307.75670777 49.53466797 318.0378418 C51.19814228 319.26732482 52.84306849 320.51879298 54.48779297 321.77319336 C81.51821581 342.06210003 113.28514737 354.60864475 146.23779297 361.29663086 C147.04506836 361.46324219 147.85234375 361.62985352 148.68408203 361.80151367 C176.28745128 367.21459826 206.81508038 365.99497758 234.23779297 360.29663086 C235.14464844 360.10939453 236.05150391 359.9221582 236.98583984 359.72924805 C275.1592697 351.56131904 310.19700544 333.63726149 339.38232422 307.79272461 C346.42092338 301.6399683 346.42092338 301.6399683 352.33154297 301.88256836 C354.23779297 302.29663086 354.23779297 302.29663086 356.73779297 304.42163086 C358.55393486 307.90256949 359.01127902 309.42920062 358.23779297 313.29663086 C348.53521185 329.5985384 324.4144215 342.20120317 308.23779297 351.29663086 C307.60115723 351.66208008 306.96452148 352.0275293 306.30859375 352.40405273 C280.58766435 367.0944524 252.27316669 375.28206752 223.23779297 380.29663086 C222.47917969 380.43085449 221.72056641 380.56507813 220.93896484 380.70336914 C196.88990678 384.75523651 170.13566445 383.56831232 146.23779297 379.29663086 C145.29613281 379.1303418 144.35447266 378.96405273 143.38427734 378.79272461 C103.11880474 371.42209573 64.58978901 353.68817284 33.23779297 327.29663086 C32.72039551 326.86801758 32.20299805 326.4394043 31.66992188 325.99780273 C18.97739644 315.47497104 7.38746282 304.32785254 -2.76220703 291.29663086 C-3.52662109 290.36077148 -4.29103516 289.42491211 -5.07861328 288.46069336 C-45.06167155 238.53000423 -61.75645218 171.86660626 -54.99267578 108.69165039 C-50.9691855 78.04569762 -41.04411289 48.62450843 -26.76220703 21.29663086 C-29.28378792 21.87687224 -31.80457681 22.46013961 -34.32470703 23.04663086 C-35.08887939 23.22419922 -35.85305176 23.40176758 -36.64038086 23.5847168 C-42.97599582 25.07391019 -49.23695196 26.76899434 -55.49267578 28.56225586 C-58.75041625 29.29398251 -61.43890074 29.58889326 -64.76220703 29.29663086 C-68.09099335 26.83622358 -69.55522651 25.40052699 -70.32470703 21.29663086 C-69.57807976 17.31461874 -68.75717524 16.09857449 -65.76220703 13.29663086 C-61.82193357 11.65043947 -57.74812285 10.60498505 -53.62158203 9.52709961 C-52.42543274 9.20123367 -51.22928345 8.87536774 -49.99688721 8.53962708 C-46.82063308 7.67953496 -43.64045308 6.836459 -40.45794678 5.99987793 C-37.24038081 5.14701453 -34.03148095 4.26293832 -30.82080078 3.38452148 C-28.35904144 2.72192734 -25.89681577 2.06106287 -23.43408203 1.40209961 C-22.28486267 1.08967819 -21.13564331 0.77725677 -19.95159912 0.45536804 C-5.41894028 -3.3416958 -5.41894028 -3.3416958 0 0 Z " fill="#116CFB" transform="translate(69.76220703125,117.703369140625)"/>
<path d="M0 0 C1.11435928 -0.0071553 2.22871857 -0.01431061 3.37684631 -0.02168274 C7.05959086 -0.03858833 10.74112137 -0.01915447 14.42382812 0.00219727 C16.98303325 0.00136875 19.54223833 -0.00108998 22.10144043 -0.00511169 C27.46477685 -0.00797101 32.82768375 0.00621545 38.19091797 0.03417969 C44.38556379 0.06623057 50.57958002 0.06621507 56.77427053 0.04896492 C62.741061 0.03308356 68.70765878 0.03994151 74.67445374 0.05690193 C77.21020491 0.06208758 79.74597422 0.06159734 82.28172302 0.05535698 C85.82493165 0.04991075 89.36706958 0.07026319 92.91015625 0.09765625 C94.48441124 0.08786743 94.48441124 0.08786743 96.09046936 0.07788086 C100.57174086 0.13683176 103.21162325 0.180845 107.1060791 2.53944397 C109.10337103 4.79885821 109.61621435 5.66041236 109.51757812 8.63110352 C109.31118095 11.40198557 108.96081573 12.62137454 107.51757812 15.06860352 C103.82411475 17.32071533 100.21592785 17.44901592 95.95507812 17.63110352 C96.05820312 18.93047852 96.16132813 20.22985352 96.26757812 21.56860352 C96.22122034 37.90972119 87.9787474 52.9138141 77.10742188 64.58422852 C75.2734662 66.32831704 73.62391571 67.61204747 71.45507812 68.88110352 C68.62775035 70.46167146 68.62775035 70.46167146 68.08007812 73.88110352 C68.03882813 74.78860352 67.99757813 75.69610352 67.95507812 76.63110352 C68.66792969 76.85797852 69.38078125 77.08485352 70.11523438 77.31860352 C79.34163203 81.58279831 87.03944069 92.1746864 90.66552734 101.44799805 C93.4942469 109.14723405 96.12790311 116.66922993 96.01757812 124.94360352 C96.00855469 125.82661133 95.99953125 126.70961914 95.99023438 127.61938477 C95.97863281 128.28325195 95.96703125 128.94711914 95.95507812 129.63110352 C96.55835938 129.58469727 97.16164063 129.53829102 97.78320312 129.49047852 C104.21836737 129.19985819 104.21836737 129.19985819 107.51757812 131.13110352 C109.48250572 134.5483689 109.97623618 137.78674379 108.95507812 141.63110352 C107.61755371 143.72375488 107.61755371 143.72375488 104.95507812 145.63110352 C101.25268398 146.25116153 97.57055027 146.17694191 93.82421875 146.14868164 C92.68889206 146.15569092 91.55356537 146.1627002 90.38383484 146.16992188 C86.62608476 146.18754581 82.86908604 146.1758627 79.11132812 146.16235352 C76.50345719 146.16504714 73.89558722 146.16892848 71.28771973 146.1739502 C65.82014811 146.18122511 60.35279269 146.17164323 54.88525391 146.15258789 C48.56622761 146.13081913 42.24771757 146.13787063 35.92870378 146.15989351 C29.84710886 146.18023967 23.76574261 146.17807735 17.68412781 146.16636658 C15.09730457 146.16369469 12.51046818 146.16698518 9.92366028 146.17628479 C6.31072894 146.18642229 2.69879443 146.17098669 -0.9140625 146.14868164 C-2.52411919 146.16082703 -2.52411919 146.16082703 -4.16670227 146.17321777 C-11.40396412 146.09027388 -11.40396412 146.09027388 -14.70739746 143.72375488 C-16.87267279 140.33602877 -16.79964576 137.50800097 -16.04492188 133.63110352 C-14.60742188 131.13110352 -14.60742188 131.13110352 -12.04492188 129.63110352 C-9.01375583 129.31807432 -6.07956348 129.39766955 -3.04492188 129.63110352 C-3.12742188 128.47610352 -3.20992187 127.32110352 -3.29492188 126.13110352 C-3.21914899 110.06725224 3.85938425 95.20299949 14.80664062 83.73266602 C22.06660229 76.63110352 22.06660229 76.63110352 24.95507812 76.63110352 C24.45215981 72.60775698 23.91475871 70.49144563 20.84179688 67.73657227 C19.99230469 67.10364258 19.1428125 66.47071289 18.26757812 65.81860352 C12.84577438 61.7639693 9.41036061 57.41648676 5.95507812 51.63110352 C5.49359375 50.8615332 5.03210938 50.09196289 4.55664062 49.29907227 C-0.69770384 39.69795192 -3.81367015 28.58576643 -3.04492188 17.63110352 C-3.64820313 17.60532227 -4.25148437 17.57954102 -4.87304688 17.55297852 C-8.66382415 17.28395561 -11.35669821 17.06753803 -14.60742188 15.00610352 C-16.66280782 11.61024848 -16.66077769 9.5315237 -16.04492188 5.63110352 C-11.7601734 -0.6007843 -6.92476483 -0.07714671 0 0 Z " fill="#126DFB" transform="translate(211.044921875,182.368896484375)"/>
<path d="M0 0 C2.52605856 1.9593914 4.94136296 4.00090503 7.34765625 6.10546875 C8.31445312 6.92789063 9.28125 7.7503125 10.27734375 8.59765625 C31.39433659 26.9235746 46.03488998 54.09909246 48.34765625 82.10546875 C49.91174807 119.12634228 41.6373191 149.19349262 16.69140625 177.07421875 C2.01799334 192.43814521 -17.12967532 203.64507326 -37.65234375 209.10546875 C-38.57080078 209.36513428 -39.48925781 209.6247998 -40.43554688 209.89233398 C-48.52077285 212.00019673 -56.27288385 212.54340187 -64.59082031 212.44165039 C-66.65078943 212.41798661 -68.70945947 212.42112844 -70.76953125 212.42773438 C-82.29578155 212.40492699 -93.46114311 211.30311964 -104.40234375 207.54296875 C-105.15402832 207.28684814 -105.90571289 207.03072754 -106.68017578 206.7668457 C-135.51527619 196.49610915 -159.94338508 174.92430465 -173.58886719 147.51757812 C-187.17386618 118.83308749 -189.07489238 85.58087599 -178.52734375 55.66796875 C-173.38413354 41.91682333 -166.40236047 30.10503635 -156.65234375 19.10546875 C-156.04132813 18.35136719 -155.4303125 17.59726563 -154.80078125 16.8203125 C-117.60935058 -28.04679641 -46.08655117 -32.91896512 0 0 Z M-137.65234375 22.10546875 C-138.27238281 22.64300781 -138.89242187 23.18054688 -139.53125 23.734375 C-155.67003427 38.67492007 -167.47739458 63.02753547 -168.8293457 84.97949219 C-169.46163588 115.78285566 -163.48190867 141.97959443 -141.765625 164.93359375 C-141.06824219 165.6503125 -140.37085938 166.36703125 -139.65234375 167.10546875 C-138.77642578 168.05679688 -138.77642578 168.05679688 -137.8828125 169.02734375 C-120.30642258 187.63279631 -93.53453685 196.65923907 -68.46484375 197.41796875 C-38.36431812 196.76123001 -13.22401868 184.53742441 7.68359375 163.0703125 C22.50479487 146.57574996 32.78131154 123.47608481 33.34765625 101.10546875 C33.40566406 99.98978516 33.40566406 99.98978516 33.46484375 98.8515625 C34.28052415 71.34500668 23.20439329 45.46709639 4.6484375 25.4765625 C-11.43047863 8.90627033 -34.04025516 -3.72086388 -57.48217773 -5.05566406 C-88.80437539 -5.50668273 -113.94461825 0.92235961 -137.65234375 22.10546875 Z " fill="#126DFB" transform="translate(325.65234375,159.89453125)"/>
<path d="M0 0 C22.11 0 44.22 0 67 0 C67 13.53119015 63.64448484 25.38795697 54.125 35.375 C51.45568678 37.91598086 48.86624935 39.70531059 45.625 41.4375 C42.55632372 43.26065473 41.39630728 44.52207529 40.5 48 C38.72148045 59.45597474 38.72148045 59.45597474 42 70 C44.41797678 71.74925085 44.41797678 71.74925085 47.25 73.3125 C57.34060708 79.54841624 63.11983454 88.72564977 66.375 100.1875 C67 104 67 104 67 113 C44.89 113 22.78 113 0 113 C0 99.22354517 3.4607214 88.19943629 13 78 C16.18309199 75.38363062 19.48465235 73.14167717 23 71 C26.24849977 69.27773504 26.24849977 69.27773504 27 66 C27.12276572 63.19637366 27.18513218 60.42849845 27.1875 57.625 C27.20586914 56.49191406 27.20586914 56.49191406 27.22460938 55.3359375 C27.23554939 51.16414409 27.19531939 47.67406568 25 44 C22.60420259 41.92775587 22.60420259 41.92775587 19.75 40.125 C9.77939445 33.14817941 5.47309004 25.18272509 1 14 C0.67 9.38 0.34 4.76 0 0 Z " fill="#92BFFB" transform="translate(224,199)"/>
</svg>
