<?xml version="1.0" encoding="UTF-8"?>
<svg version="1.1" xmlns="http://www.w3.org/2000/svg" width="512" height="512">
<path d="M0 0 C2.4550261 1.95748383 4.86508028 3.95680136 7.265625 5.98046875 C8.09578125 6.61597656 8.9259375 7.25148438 9.78125 7.90625 C27.05929268 22.33178563 37.52517702 46.42909224 39.86645508 68.48266602 C41.4705078 87.5641646 38.28244178 106.03058721 29.265625 122.98046875 C28.729375 124.00914062 28.193125 125.0378125 27.640625 126.09765625 C23.6932768 133.27963701 18.9776033 139.12758776 13.265625 144.98046875 C12.42 145.86734375 11.574375 146.75421875 10.703125 147.66796875 C9.89875 148.43109375 9.094375 149.19421875 8.265625 149.98046875 C7.74226562 150.49867188 7.21890625 151.016875 6.6796875 151.55078125 C-13.33455165 170.38274467 -40.02150264 174.88498001 -66.42871094 174.1640625 C-77.80467247 173.53225134 -88.52015926 169.92143308 -98.734375 164.98046875 C-100.11689453 164.31917969 -100.11689453 164.31917969 -101.52734375 163.64453125 C-123.00316478 152.67944351 -139.54960198 132.73181463 -147.40283203 110.04980469 C-155.23407261 85.6570094 -153.90582104 59.0746569 -142.734375 35.98046875 C-142.29351562 35.05878906 -141.85265625 34.13710938 -141.3984375 33.1875 C-130.0399592 10.94119858 -109.57565356 -5.5100897 -86.01953125 -13.23828125 C-57.06541427 -21.7452621 -24.67453847 -18.22390913 0 0 Z " fill="#FCCE63" transform="translate(195.734375,17.01953125)"/>
<path d="M0 0 C0.65594147 -0.0071553 1.31188293 -0.01431061 1.98770142 -0.02168274 C4.14486442 -0.03852104 6.29993446 -0.01920018 8.45703125 0.00219727 C9.96248547 0.0013681 11.46793959 -0.0010931 12.97338867 -0.00511169 C16.12413883 -0.00796631 19.2741768 0.00669721 22.42480469 0.03417969 C26.45681984 0.06826309 30.48756196 0.06224174 34.51963806 0.04351711 C37.62701974 0.03293177 40.73410687 0.04189862 43.84146118 0.05690193 C45.32776006 0.06207302 46.81408983 0.06161496 48.30038452 0.05535698 C50.38061297 0.04988569 52.45903961 0.07033585 54.5390625 0.09765625 C55.72089111 0.10385483 56.90271973 0.11005341 58.12036133 0.11643982 C62.23520678 0.78892229 63.52967617 1.43529579 66.26953125 4.63110352 C67.04495315 8.69271654 66.93430182 12.73043613 66.89099121 16.85400391 C66.89738003 18.12050057 66.90376885 19.38699724 66.91035128 20.6918726 C66.92737516 24.20984954 66.91313994 27.72711685 66.8938365 31.24505663 C66.87843409 35.03790094 66.89180496 38.83065688 66.90158081 42.62350464 C66.91612275 50.05466234 66.903858 57.48554726 66.88246757 64.91667914 C66.85848123 73.56647138 66.86017048 82.21620079 66.86277348 90.86601889 C66.86646547 106.29721061 66.84562252 121.72827362 66.81152344 137.15942383 C66.77843092 152.14057671 66.76426493 167.1215945 66.77050781 182.1027832 C66.77726884 198.40761539 66.77481979 214.71239095 66.75514841 231.01721478 C66.75410893 231.87907452 66.75306944 232.74093426 66.75199845 233.62891096 C66.74990752 235.36001858 66.74779655 237.09112617 66.74566528 238.82223374 C66.73876393 244.85473001 66.73810133 250.88720886 66.73954773 256.91970825 C66.74098609 264.2691165 66.73132122 271.61841444 66.70760137 278.96778607 C66.69572521 282.71914834 66.68862689 286.4703567 66.69443893 290.22173691 C66.70054684 294.28405124 66.68347757 298.3459313 66.66394043 302.40820312 C66.67193232 304.19592432 66.67193232 304.19592432 66.68008566 306.01976109 C66.6665007 307.64778613 66.6665007 307.64778613 66.6526413 309.30870056 C66.65107009 310.24671981 66.64949889 311.18473906 66.64788008 312.15118313 C66.19473952 315.12133241 65.34014877 316.47797002 63.26953125 318.63110352 C59.94932201 319.73783993 57.44767012 319.7714809 53.94970703 319.79223633 C52.64470245 319.80184387 51.33969788 319.81145142 49.99514771 319.8213501 C48.5683815 319.82619797 47.14161326 319.83047683 45.71484375 319.83422852 C44.25137328 319.83998217 42.78790282 319.84573988 41.32443237 319.85150146 C38.25616098 319.86200318 35.18791574 319.86785132 32.11962891 319.87133789 C28.1931827 319.87682204 24.26708337 319.90085151 20.34074593 319.92930984 C17.31752521 319.94795774 14.29438772 319.95314295 11.27111435 319.95467377 C9.82386249 319.9576958 8.37661193 319.9657092 6.92941666 319.97885895 C4.90239604 319.99596306 2.875232 319.99218808 0.84814453 319.98754883 C-0.30418671 319.99119446 -1.45651794 319.99484009 -2.64376831 319.99859619 C-6.08725974 319.58862512 -7.96624335 318.69042105 -10.73046875 316.63110352 C-11.98909568 314.11384965 -11.8604588 312.39180808 -11.86748314 309.5732069 C-11.87255768 308.49593907 -11.87763222 307.41867123 -11.88286054 306.30875891 C-11.8833583 305.11569217 -11.88385606 303.92262543 -11.8843689 302.69340515 C-11.88875115 301.43340645 -11.8931334 300.17340775 -11.89764845 298.87522727 C-11.90963242 295.36631364 -11.9152666 291.85741378 -11.91982961 288.34848368 C-11.92577873 284.56855592 -11.93739021 280.78864467 -11.94812012 277.00872803 C-11.97265877 267.87487225 -11.98727279 258.74101101 -12.00018018 249.60713241 C-12.00389085 247.02852378 -12.00786418 244.4499157 -12.01193285 241.87130761 C-12.03716651 225.86758061 -12.05922538 209.86385279 -12.071661 193.86011028 C-12.07459082 190.1520201 -12.07755246 186.44392995 -12.08056641 182.73583984 C-12.08131246 181.81418243 -12.08205851 180.89252503 -12.08282717 179.9429386 C-12.0954866 165.00547604 -12.1287168 150.06813236 -12.17036824 135.13072541 C-12.21275515 119.80427894 -12.23635221 104.4778934 -12.24158156 89.15138847 C-12.24499922 80.54223232 -12.25679608 71.93326199 -12.2896843 63.32416344 C-12.31764141 55.9937569 -12.3287033 48.66357425 -12.31748883 41.33311852 C-12.31229107 37.59163894 -12.31526041 33.85062855 -12.33995438 30.10921669 C-12.36648528 26.055734 -12.35442491 22.00329048 -12.33847046 17.94975281 C-12.35235255 16.76337823 -12.36623463 15.57700365 -12.38053739 14.35467833 C-12.30324511 6.42149318 -12.30324511 6.42149318 -9.38929176 2.40044975 C-6.03974488 0.17145289 -4.01053826 0.00326374 0 0 Z " fill="#5EB2F8" transform="translate(399.73046875,140.368896484375)"/>
<path d="M0 0 C0.65594147 -0.0087616 1.31188293 -0.01752319 1.98770142 -0.02655029 C4.14482794 -0.04846494 6.29988581 -0.03402345 8.45703125 -0.01708984 C9.96248771 -0.02046035 11.4679415 -0.02531493 12.97338867 -0.03158569 C16.12412497 -0.03894613 19.27415113 -0.02827952 22.42480469 -0.00488281 C26.4569908 0.02360601 30.48751296 0.00719737 34.51963806 -0.02274513 C37.62703923 -0.04084144 40.73404798 -0.03504973 43.84146118 -0.02210617 C45.32777098 -0.01877853 46.81411679 -0.02283672 48.30038452 -0.03450394 C50.38089898 -0.04725309 52.45874605 -0.02778738 54.5390625 0 C56.31180542 0.00596695 56.31180542 0.00596695 58.12036133 0.01205444 C62.39626275 0.87413803 63.63665846 2.17123308 66.26953125 5.64697266 C67.00204673 9.01377906 66.93580606 12.3157656 66.89099121 15.7502594 C66.89738003 16.7766809 66.90376885 17.80310241 66.91035128 18.86062759 C66.92562899 22.30485959 66.90512047 25.74794646 66.88476562 29.19213867 C66.88826594 31.65926495 66.8939235 34.12638898 66.90158081 36.59350586 C66.91436802 42.60150944 66.90387561 48.60906342 66.88246757 54.61700887 C66.85845601 61.61233495 66.860172 68.60758361 66.86277348 75.60294174 C66.86646353 88.08310234 66.84563853 100.56310366 66.81152344 113.04321289 C66.77842501 125.15588404 66.76426634 137.26838806 66.77050781 149.38110352 C66.77727021 162.569662 66.77481643 175.75815047 66.75514841 188.94669861 C66.75410893 189.64393392 66.75306944 190.34116923 66.75199845 191.05953289 C66.74990755 192.45992079 66.74779658 193.86030865 66.74566528 195.26069649 C66.73876712 200.1380376 66.73810079 205.01535714 66.73954773 209.8927021 C66.74113684 216.45495525 66.72625596 223.01703537 66.7003212 229.57924652 C66.69314225 231.991559 66.69108403 234.40389278 66.69443893 236.81621361 C66.69813697 240.10125181 66.68346413 243.38569938 66.66394043 246.67066956 C66.67193232 248.11301864 66.67193232 248.11301864 66.68008566 249.58450609 C66.61413495 255.98695977 66.61413495 255.98695977 64.93238068 259.2079916 C61.6046378 262.08772255 58.14848352 261.78319171 53.94970703 261.80810547 C52.64470245 261.81771301 51.33969788 261.82732056 49.99514771 261.83721924 C48.5683815 261.84206711 47.14161326 261.84634597 45.71484375 261.85009766 C44.25137328 261.85585131 42.78790282 261.86160902 41.32443237 261.86737061 C38.25616098 261.87787232 35.18791574 261.88372046 32.11962891 261.88720703 C28.1931827 261.89269118 24.26708337 261.91672065 20.34074593 261.94517899 C17.31752521 261.96382688 14.29438772 261.96901209 11.27111435 261.97054291 C9.82386249 261.97356494 8.37661193 261.98157834 6.92941666 261.99472809 C4.90239604 262.0118322 2.875232 262.00805722 0.84814453 262.00341797 C-0.30418671 262.0070636 -1.45651794 262.01070923 -2.64376831 262.01446533 C-6.08725974 261.60449426 -7.96624335 260.70629019 -10.73046875 258.64697266 C-11.88022197 256.34746621 -11.8596298 255.05243924 -11.86748314 252.49488354 C-11.87255768 251.61965264 -11.87763222 250.74442175 -11.88286054 249.84266871 C-11.8833583 248.87527697 -11.88385606 247.90788523 -11.8843689 246.91117859 C-11.88875115 245.88802593 -11.8931334 244.86487326 -11.89764845 243.81071597 C-11.91107276 240.35989283 -11.91722343 236.90909525 -11.92333984 233.45825195 C-11.93123786 230.99319339 -11.93950662 228.528136 -11.94812012 226.06307983 C-11.97210534 218.64966689 -11.98727199 211.23625814 -12.00018018 203.82281968 C-12.00389131 201.72961578 -12.0078646 199.63641255 -12.01193285 197.54320931 C-12.0371672 184.54973367 -12.05922423 171.556257 -12.071661 158.56276226 C-12.07459078 155.55250227 -12.07755243 152.54224232 -12.08056641 149.53198242 C-12.08168548 148.40967979 -12.08168548 148.40967979 -12.08282717 147.26470438 C-12.09548491 135.14016732 -12.12871313 123.01577676 -12.17036824 110.89130821 C-12.21276679 98.44865321 -12.23635356 86.00607327 -12.24158156 73.56334621 C-12.24499793 66.57502048 -12.25677942 59.58692376 -12.2896843 52.59866905 C-12.32057855 46.02659443 -12.32611336 39.45484715 -12.31430054 32.88268661 C-12.31407895 30.46754659 -12.32245387 28.05238856 -12.33995438 25.63731194 C-12.36251305 22.3456268 -12.35441179 19.05540836 -12.33847046 15.76371765 C-12.35235255 14.80301808 -12.36623463 13.8423185 -12.38053739 12.85250682 C-12.32597789 8.29525568 -12.21379545 6.28543059 -9.38929176 2.55435848 C-6.04155311 0.15275852 -4.0999935 0.01380034 0 0 Z " fill="#03DE96" transform="translate(285.73046875,198.35302734375)"/>
<path d="M0 0 C0.75382437 -0.00205263 1.50764874 -0.00410527 2.28431627 -0.0062201 C4.83665082 -0.01192144 7.38893194 -0.01042902 9.94127178 -0.00901413 C11.77909603 -0.01159597 13.61691971 -0.01460862 15.45474261 -0.01801753 C20.52567557 -0.02611204 25.59659439 -0.02787846 30.66753304 -0.028615 C36.12845277 -0.0304613 41.5893651 -0.03800647 47.05028057 -0.04475021 C59.00052897 -0.05835133 70.95077402 -0.06436099 82.90102887 -0.06876087 C90.35760682 -0.07152023 97.81418347 -0.075757 105.27076054 -0.08026505 C125.90092703 -0.09245991 146.53109249 -0.10275887 167.16126251 -0.10614014 C168.4958348 -0.10636177 169.83040709 -0.10658355 171.16497938 -0.10680549 C172.502811 -0.10702613 173.84064262 -0.10724661 175.17847425 -0.10746694 C177.86248354 -0.10790949 180.54649284 -0.10835661 183.23050213 -0.10880661 C183.8959824 -0.108916 184.56146268 -0.10902539 185.24710902 -0.1091381 C206.8306165 -0.11276961 228.41409042 -0.12869266 249.99758505 -0.15199697 C272.80663138 -0.17657961 295.61566318 -0.19030551 318.4247238 -0.19150805 C330.8623753 -0.19242616 343.29998284 -0.19821256 355.73762226 -0.21632767 C366.32702101 -0.23169609 376.91636223 -0.23686843 387.50577001 -0.22858956 C392.91188303 -0.22467151 398.31788009 -0.22566877 403.723979 -0.23964691 C408.66917578 -0.25231678 413.61416865 -0.25124955 418.55936488 -0.2390562 C420.35211629 -0.23708715 422.14488181 -0.24023288 423.93761335 -0.24890056 C426.36783394 -0.25991017 428.79732428 -0.25256453 431.2275238 -0.24050903 C431.92935511 -0.24810423 432.63118641 -0.25569942 433.35428533 -0.26352477 C437.66076391 -0.21716187 440.3721748 0.50126484 443.80252361 3.13142776 C445.99956794 7.52551641 445.07084453 13.42468896 445.09768963 18.30720901 C445.11490549 20.49144086 445.15879396 22.67415952 445.20291424 24.85799026 C445.21304138 26.24860414 445.22155742 27.63923088 445.22830486 29.02986526 C445.25017864 30.92744583 445.25017864 30.92744583 445.27249432 32.86336136 C444.69994876 36.8447093 443.98999615 37.74440365 440.80252361 40.13142776 C438.16007989 40.52369171 435.93413038 40.66960397 433.29368877 40.63479233 C432.14891105 40.64351297 432.14891105 40.64351297 430.9810065 40.65240979 C428.40858151 40.66707622 425.83710079 40.65309412 423.26468182 40.63936234 C421.40791522 40.64396863 419.55115226 40.65031972 417.69439697 40.65827131 C412.58035 40.675025 407.46660022 40.66669089 402.35255194 40.65432644 C396.84190762 40.64530292 391.33131561 40.65923224 385.82068157 40.67024612 C375.02070237 40.68806483 364.22083413 40.68417645 353.42085052 40.67259556 C344.6461796 40.66357468 335.87153987 40.6623314 327.09686565 40.66669083 C325.84964995 40.66730376 324.60243424 40.66791669 323.31742412 40.6685482 C320.78400317 40.66982705 318.25058223 40.67112391 315.7171613 40.67243856 C292.62019985 40.68352853 269.52329091 40.67201331 246.4263422 40.65106817 C225.33262801 40.63208513 204.2390104 40.63378361 183.14529705 40.65291214 C159.45719639 40.67432144 135.76913828 40.68275545 112.08102608 40.67046309 C109.55674458 40.66918884 107.03246308 40.66793136 104.50818157 40.66669083 C102.64502134 40.66576517 102.64502134 40.66576517 100.74422151 40.66482082 C91.97658387 40.66136212 83.20898042 40.66720746 74.44134808 40.67660904 C63.76154508 40.68780894 53.08185974 40.68483134 42.40207028 40.66348606 C36.94946359 40.65294858 31.49705329 40.64889968 26.0444479 40.66208267 C21.05798727 40.67395662 16.07190604 40.66752693 11.08548009 40.64617246 C9.27666138 40.64168511 7.46781095 40.6440201 5.65901244 40.65367562 C3.20933196 40.66575433 0.76096889 40.65345288 -1.68864155 40.63479233 C-2.39894555 40.64415699 -3.10924956 40.65352166 -3.84107792 40.6631701 C-7.17904702 40.61198087 -8.93329426 40.32972422 -11.63442993 38.30223799 C-13.86343459 35.20652315 -13.71508455 32.88676147 -13.72872639 29.10017776 C-13.73255329 28.42724686 -13.7363802 27.75431595 -13.74032307 27.06099319 C-13.74303768 25.64223606 -13.73570772 24.2234285 -13.71896076 22.80476761 C-13.69753914 20.63777573 -13.71877176 18.47409826 -13.74435139 16.30720901 C-13.74170802 14.92569131 -13.73658286 13.54417566 -13.72872639 12.16267776 C-13.72421467 10.91035355 -13.71970295 9.65802933 -13.71505451 8.36775589 C-13.11024849 4.58600655 -12.17897951 3.44480694 -9.19747639 1.13142776 C-6.24005145 -0.3472847 -3.24227349 -0.00809349 0 0 Z " fill="#000000" transform="translate(40.197476387023926,471.8685722351074)"/>
<path d="M0 0 C1.30508011 -0.00960754 2.61016022 -0.01921509 3.95478821 -0.02911377 C5.38676784 -0.033962 6.8187495 -0.03824076 8.25073242 -0.04199219 C9.71563214 -0.04774413 11.18053184 -0.05350186 12.64543152 -0.05926514 C15.71967927 -0.06977689 18.79390086 -0.07561813 21.86816406 -0.07910156 C25.80248606 -0.08458098 29.73646104 -0.10859607 33.67067432 -0.13707352 C36.69818623 -0.15572386 39.72561505 -0.1609068 42.75317955 -0.16243744 C44.20322246 -0.16546006 45.65326404 -0.17347545 47.1032505 -0.18662262 C49.13516998 -0.20372818 51.16723257 -0.19995154 53.19921875 -0.1953125 C54.35456619 -0.19895813 55.50991364 -0.20260376 56.70027161 -0.20635986 C60.14782914 0.20320244 62.02680829 1.09887728 64.79370117 3.16113281 C66.28613411 6.1459987 65.94171152 9.20041739 65.94087219 12.47396851 C65.94454888 13.23647938 65.94822557 13.99899026 65.95201367 14.78460753 C65.96307384 17.35331928 65.96689826 19.92199062 65.97070312 22.49072266 C65.97696592 24.32687001 65.98361255 26.16301609 65.99061584 27.99916077 C66.00804049 32.99708098 66.01858119 37.99499163 66.02682137 42.9929347 C66.03196749 46.11301433 66.03804333 49.23309097 66.0443325 52.35316849 C66.06338702 62.10817768 66.07761868 71.86317929 66.08594447 81.61820352 C66.09572465 92.89211305 66.12206346 104.16582665 66.16244537 115.43966711 C66.19256265 124.1454321 66.20740909 132.85114079 66.21072549 141.55695689 C66.21308063 146.76062809 66.22210137 151.96409004 66.24718666 157.16770554 C66.2703963 162.06131247 66.27472938 166.9545713 66.26442528 171.84821892 C66.2639281 173.64616615 66.27030184 175.44413011 66.28398132 177.24202538 C66.30159086 179.69321515 66.29464912 182.14314073 66.28144836 184.59432983 C66.29241761 185.30892156 66.30338686 186.02351329 66.3146885 186.75975931 C66.27036056 190.15956458 66.02538409 191.86805542 63.88821697 194.571558 C60.28855525 197.30342166 58.08395576 197.29563637 53.58740234 197.32226562 C52.28232224 197.33187317 50.97724213 197.34148071 49.63261414 197.35137939 C48.2006345 197.35622762 46.76865285 197.36050639 45.33666992 197.36425781 C43.8717702 197.37000975 42.4068705 197.37576748 40.94197083 197.38153076 C37.86772307 197.39204252 34.79350148 197.39788376 31.71923828 197.40136719 C27.78491629 197.4068466 23.85094131 197.4308617 19.91672802 197.45933914 C16.88921611 197.47798949 13.86178729 197.48317243 10.83422279 197.48470306 C9.38417988 197.48772568 7.9341383 197.49574107 6.48415184 197.50888824 C4.45223236 197.5259938 2.42016978 197.52221717 0.38818359 197.51757812 C-0.76716385 197.52122375 -1.92251129 197.52486938 -3.11286926 197.52862549 C-6.5604268 197.11906318 -8.43940595 196.22338834 -11.20629883 194.16113281 C-12.69873177 191.17626693 -12.35430917 188.12184824 -12.35346985 184.84829712 C-12.35898488 183.7045308 -12.35898488 183.7045308 -12.36461133 182.5376581 C-12.3756715 179.96894634 -12.37949592 177.400275 -12.38330078 174.83154297 C-12.38956358 172.99539562 -12.39621021 171.15924954 -12.4032135 169.32310486 C-12.42063815 164.32518464 -12.43117884 159.327274 -12.43941903 154.32933092 C-12.44456514 151.20925129 -12.45064099 148.08917466 -12.45693016 144.96909714 C-12.47598468 135.21408794 -12.49021634 125.45908634 -12.49854213 115.7040621 C-12.50832231 104.43015257 -12.53466111 93.15643898 -12.57504302 81.88259852 C-12.60516031 73.17683352 -12.62000675 64.47112484 -12.62332314 55.76530874 C-12.62567828 50.56163753 -12.63469903 45.35817558 -12.65978432 40.15456009 C-12.68299396 35.26095316 -12.68732704 30.36769432 -12.67702293 25.47404671 C-12.67652576 23.67609947 -12.68289949 21.87813551 -12.69657898 20.08024025 C-12.71418852 17.62905047 -12.70724677 15.17912489 -12.69404602 12.72793579 C-12.70501527 12.01334406 -12.71598451 11.29875234 -12.72728616 10.56250632 C-12.68295821 7.16270104 -12.43798175 5.45421021 -10.30081463 2.75070763 C-6.70115291 0.01884396 -4.49655342 0.02662925 0 0 Z " fill="#000000" transform="translate(172.206298828125,262.8388671875)"/>
<path d="M0 0 C0.65594147 -0.0071553 1.31188293 -0.01431061 1.98770142 -0.02168274 C4.14486442 -0.03852104 6.29993446 -0.01920018 8.45703125 0.00219727 C9.96248547 0.0013681 11.46793959 -0.0010931 12.97338867 -0.00511169 C16.12413883 -0.00796631 19.2741768 0.00669721 22.42480469 0.03417969 C26.45681984 0.06826309 30.48756196 0.06224174 34.51963806 0.04351711 C37.62701974 0.03293177 40.73410687 0.04189862 43.84146118 0.05690193 C45.32776006 0.06207302 46.81408983 0.06161496 48.30038452 0.05535698 C50.38061297 0.04988569 52.45903961 0.07033585 54.5390625 0.09765625 C55.72089111 0.10385483 56.90271973 0.11005341 58.12036133 0.11643982 C62.23520678 0.78892229 63.52967617 1.43529579 66.26953125 4.63110352 C67.04495315 8.69271654 66.93430182 12.73043613 66.89099121 16.85400391 C66.89738003 18.12050057 66.90376885 19.38699724 66.91035128 20.6918726 C66.92737516 24.20984954 66.91313994 27.72711685 66.8938365 31.24505663 C66.87843409 35.03790094 66.89180496 38.83065688 66.90158081 42.62350464 C66.91612275 50.05466234 66.903858 57.48554726 66.88246757 64.91667914 C66.85848123 73.56647138 66.86017048 82.21620079 66.86277348 90.86601889 C66.86646547 106.29721061 66.84562252 121.72827362 66.81152344 137.15942383 C66.77843092 152.14057671 66.76426493 167.1215945 66.77050781 182.1027832 C66.77726884 198.40761539 66.77481979 214.71239095 66.75514841 231.01721478 C66.75410893 231.87907452 66.75306944 232.74093426 66.75199845 233.62891096 C66.74990752 235.36001858 66.74779655 237.09112617 66.74566528 238.82223374 C66.73876393 244.85473001 66.73810133 250.88720886 66.73954773 256.91970825 C66.74098609 264.2691165 66.73132122 271.61841444 66.70760137 278.96778607 C66.69572521 282.71914834 66.68862689 286.4703567 66.69443893 290.22173691 C66.70054684 294.28405124 66.68347757 298.3459313 66.66394043 302.40820312 C66.67193232 304.19592432 66.67193232 304.19592432 66.68008566 306.01976109 C66.6665007 307.64778613 66.6665007 307.64778613 66.6526413 309.30870056 C66.65107009 310.24671981 66.64949889 311.18473906 66.64788008 312.15118313 C66.19473952 315.12133241 65.34014877 316.47797002 63.26953125 318.63110352 C59.94932201 319.73783993 57.44767012 319.7714809 53.94970703 319.79223633 C52.64470245 319.80184387 51.33969788 319.81145142 49.99514771 319.8213501 C48.5683815 319.82619797 47.14161326 319.83047683 45.71484375 319.83422852 C44.25137328 319.83998217 42.78790282 319.84573988 41.32443237 319.85150146 C38.25616098 319.86200318 35.18791574 319.86785132 32.11962891 319.87133789 C28.1931827 319.87682204 24.26708337 319.90085151 20.34074593 319.92930984 C17.31752521 319.94795774 14.29438772 319.95314295 11.27111435 319.95467377 C9.82386249 319.9576958 8.37661193 319.9657092 6.92941666 319.97885895 C4.90239604 319.99596306 2.875232 319.99218808 0.84814453 319.98754883 C-0.30418671 319.99119446 -1.45651794 319.99484009 -2.64376831 319.99859619 C-6.08725974 319.58862512 -7.96624335 318.69042105 -10.73046875 316.63110352 C-11.98909568 314.11384965 -11.8604588 312.39180808 -11.86748314 309.5732069 C-11.87255768 308.49593907 -11.87763222 307.41867123 -11.88286054 306.30875891 C-11.8833583 305.11569217 -11.88385606 303.92262543 -11.8843689 302.69340515 C-11.88875115 301.43340645 -11.8931334 300.17340775 -11.89764845 298.87522727 C-11.90963242 295.36631364 -11.9152666 291.85741378 -11.91982961 288.34848368 C-11.92577873 284.56855592 -11.93739021 280.78864467 -11.94812012 277.00872803 C-11.97265877 267.87487225 -11.98727279 258.74101101 -12.00018018 249.60713241 C-12.00389085 247.02852378 -12.00786418 244.4499157 -12.01193285 241.87130761 C-12.03716651 225.86758061 -12.05922538 209.86385279 -12.071661 193.86011028 C-12.07459082 190.1520201 -12.07755246 186.44392995 -12.08056641 182.73583984 C-12.08131246 181.81418243 -12.08205851 180.89252503 -12.08282717 179.9429386 C-12.0954866 165.00547604 -12.1287168 150.06813236 -12.17036824 135.13072541 C-12.21275515 119.80427894 -12.23635221 104.4778934 -12.24158156 89.15138847 C-12.24499922 80.54223232 -12.25679608 71.93326199 -12.2896843 63.32416344 C-12.31764141 55.9937569 -12.3287033 48.66357425 -12.31748883 41.33311852 C-12.31229107 37.59163894 -12.31526041 33.85062855 -12.33995438 30.10921669 C-12.36648528 26.055734 -12.35442491 22.00329048 -12.33847046 17.94975281 C-12.35235255 16.76337823 -12.36623463 15.57700365 -12.38053739 14.35467833 C-12.30324511 6.42149318 -12.30324511 6.42149318 -9.38929176 2.40044975 C-6.03974488 0.17145289 -4.01053826 0.00326374 0 0 Z M4.26953125 16.63110352 C4.26953125 111.01110352 4.26953125 205.39110352 4.26953125 302.63110352 C19.44953125 302.63110352 34.62953125 302.63110352 50.26953125 302.63110352 C50.26953125 208.25110352 50.26953125 113.87110352 50.26953125 16.63110352 C35.08953125 16.63110352 19.90953125 16.63110352 4.26953125 16.63110352 Z " fill="#000000" transform="translate(399.73046875,140.368896484375)"/>
<path d="M0 0 C0.65594147 -0.0087616 1.31188293 -0.01752319 1.98770142 -0.02655029 C4.14482794 -0.04846494 6.29988581 -0.03402345 8.45703125 -0.01708984 C9.96248771 -0.02046035 11.4679415 -0.02531493 12.97338867 -0.03158569 C16.12412497 -0.03894613 19.27415113 -0.02827952 22.42480469 -0.00488281 C26.4569908 0.02360601 30.48751296 0.00719737 34.51963806 -0.02274513 C37.62703923 -0.04084144 40.73404798 -0.03504973 43.84146118 -0.02210617 C45.32777098 -0.01877853 46.81411679 -0.02283672 48.30038452 -0.03450394 C50.38089898 -0.04725309 52.45874605 -0.02778738 54.5390625 0 C56.31180542 0.00596695 56.31180542 0.00596695 58.12036133 0.01205444 C61.26953125 0.64697266 61.26953125 0.64697266 64.15074158 2.43873596 C67.38588791 7.33734167 66.95937868 11.8751279 66.90063477 17.62573242 C66.90779007 18.8392337 66.91494537 20.05273499 66.9223175 21.30300903 C66.93631492 24.62368631 66.9279126 27.94280294 66.90822721 31.26335263 C66.89182087 34.74083951 66.90065617 38.21827622 66.90574646 41.69578552 C66.91026464 47.53405591 66.89441358 53.37200561 66.86645508 59.21020508 C66.83438904 65.958123 66.83442537 72.7054631 66.85166985 79.45342213 C66.86753675 85.94882354 66.86080143 92.44401328 66.84373283 98.93940544 C66.8368638 101.7021238 66.83789309 104.46467242 66.84527779 107.22738838 C66.85436561 111.08435199 66.83040108 114.94072227 66.80297852 118.79760742 C66.80950439 119.94421341 66.81603027 121.0908194 66.82275391 122.27217102 C66.81002945 123.32221313 66.79730499 124.37225525 66.78419495 125.45411682 C66.78138803 126.36572854 66.7785811 127.27734026 66.77568913 128.21657658 C66.11159226 131.40534136 64.7397883 132.59560327 62.26953125 134.64697266 C59.4821923 136.04064213 57.18181401 135.78963677 54.06323242 135.80810547 C52.75815231 135.81771301 51.4530722 135.82732056 50.10844421 135.83721924 C48.67646458 135.84206746 47.24448293 135.84634623 45.8125 135.85009766 C44.34760028 135.8558496 42.88270058 135.86160733 41.4178009 135.86737061 C38.34355315 135.87788236 35.26933156 135.8837236 32.19506836 135.88720703 C28.26074636 135.89268645 24.32677139 135.91670154 20.3925581 135.94517899 C17.36504619 135.96382933 14.33761737 135.96901227 11.31005287 135.97054291 C9.86000996 135.97356553 8.40996838 135.98158092 6.95998192 135.99472809 C4.92806244 136.01183364 2.89599986 136.00805701 0.86401367 136.00341797 C-0.29133377 136.0070636 -1.44668121 136.01070923 -2.63703918 136.01446533 C-6.08459672 135.60490303 -7.96357587 134.70922819 -10.73046875 132.64697266 C-11.97431175 130.15928666 -11.86738489 128.47877797 -11.8843689 125.69462585 C-11.89296936 124.64733307 -11.90156982 123.60004028 -11.91043091 122.52101135 C-11.91682083 120.79031654 -11.91682083 120.79031654 -11.92333984 119.0246582 C-11.93151733 117.81320129 -11.93969482 116.60174438 -11.94812012 115.35357666 C-11.97300577 111.33028496 -11.98964757 107.30703088 -12.00390625 103.28369141 C-12.00926593 101.89884751 -12.01464344 100.51400368 -12.0200386 99.12915993 C-12.04166721 93.36872987 -12.06040404 87.60830261 -12.071661 81.84784222 C-12.08790134 73.5914848 -12.12108057 65.33559791 -12.17806184 57.07941788 C-12.21675868 51.27467646 -12.23629333 45.47006089 -12.24158156 39.66519386 C-12.24523545 36.19790968 -12.25725917 32.73112735 -12.2896843 29.26398277 C-12.32534871 25.39500485 -12.32139467 21.52661771 -12.31396484 17.6574707 C-12.33037018 16.50974686 -12.34677551 15.36202301 -12.36367798 14.17951965 C-12.30329634 6.51609565 -12.30329634 6.51609565 -9.61465454 2.43675232 C-6.13164151 0.27537079 -4.08693814 0.0137564 0 0 Z " fill="#000000" transform="translate(57.73046875,324.35302734375)"/>
<path d="M0 0 C0.73001221 -0.01256836 1.46002441 -0.02513672 2.2121582 -0.03808594 C5.13341623 0.17870235 6.95716975 1.28771019 9.19921875 3.109375 C12.38246899 9.47587548 9.81800745 19.24312079 8.80859375 26.0078125 C8.66270813 27.0051944 8.51682251 28.00257629 8.36651611 29.03018188 C8.05768969 31.11982815 7.74487387 33.20888842 7.42822266 35.29736328 C6.94775345 38.49412426 6.49307433 41.69391924 6.0390625 44.89453125 C5.73464276 46.93252678 5.42870658 48.97029649 5.12109375 51.0078125 C4.92238678 52.43907974 4.92238678 52.43907974 4.71966553 53.89926147 C4.10208609 57.82253203 3.68731803 60.45127907 1.29394531 63.67822266 C-1.78597517 65.78247602 -4.09143495 66.109375 -7.80078125 66.109375 C-10.60267571 64.34296328 -12.31603036 63.07887678 -13.80078125 60.109375 C-13.61136475 50.74054347 -12.12064221 41.37403009 -10.80078125 32.109375 C-11.17847656 32.51027344 -11.55617188 32.91117188 -11.9453125 33.32421875 C-16.2620479 37.78248646 -20.87592753 41.69716445 -25.70703125 45.5859375 C-29.14484029 48.39000902 -32.50618741 51.27225724 -35.86328125 54.171875 C-41.41199384 58.94797264 -47.0324019 63.59911954 -52.80078125 68.109375 C-53.71174561 68.82335449 -53.71174561 68.82335449 -54.64111328 69.55175781 C-59.17696673 73.10439033 -63.72604976 76.63957341 -68.28417969 80.16357422 C-69.9786245 81.47369501 -71.6719638 82.78524672 -73.36425781 84.09814453 C-84.1768885 92.47661371 -95.12157247 100.53222642 -106.46875 108.171875 C-110.22117438 110.7001679 -113.89388698 113.32076559 -117.55078125 115.984375 C-142.47015809 133.98684005 -169.13276947 149.86436245 -195.80078125 165.109375 C-196.79658203 165.68010742 -197.79238281 166.25083984 -198.81835938 166.83886719 C-214.94791628 176.0579853 -231.338707 184.72243757 -247.89648438 193.13934326 C-249.807821 194.11296099 -251.71672686 195.09119382 -253.625 196.07080078 C-274.6814756 206.87202595 -296.06644857 216.75081044 -317.80078125 226.109375 C-318.5310553 226.42477234 -319.26132935 226.74016968 -320.01373291 227.06512451 C-342.34161558 236.70296554 -364.95475993 245.4587312 -387.78125 253.84375 C-388.56102203 254.13058655 -389.34079407 254.4174231 -390.14419556 254.71295166 C-392.35949679 255.52216706 -394.57857149 256.31934047 -396.80078125 257.109375 C-397.60158112 257.39623169 -398.40238098 257.68308838 -399.22744751 257.9786377 C-400.01904266 258.25413452 -400.81063782 258.52963135 -401.6262207 258.81347656 C-402.69076225 259.18693207 -402.69076225 259.18693207 -403.77680969 259.56793213 C-407.1167326 260.4614118 -409.53693884 260.13332556 -412.80078125 259.109375 C-415.30078125 256.984375 -415.30078125 256.984375 -416.80078125 254.109375 C-416.80078125 250.31794021 -416.55945983 248.0647142 -414.17797852 245.06591797 C-411.26860327 242.67136798 -408.28722962 241.54474306 -404.765625 240.3671875 C-403.71866707 240.00027298 -403.71866707 240.00027298 -402.65055847 239.62594604 C-401.14063505 239.09715198 -399.62905333 238.5730743 -398.11602783 238.05322266 C-394.02795867 236.64537462 -389.95550803 235.19380116 -385.8828125 233.7421875 C-384.62371063 233.29410736 -384.62371063 233.29410736 -383.33917236 232.8369751 C-349.06897429 220.57430111 -315.66571281 205.69313101 -282.80078125 190.109375 C-282.18960449 189.81957764 -281.57842773 189.52978027 -280.94873047 189.23120117 C-265.39377749 181.84915539 -249.93237122 174.33227665 -234.80078125 166.109375 C-233.7555127 165.54557129 -232.71024414 164.98176758 -231.63330078 164.40087891 C-214.39282919 155.08717299 -197.5494692 145.25340835 -180.86621094 134.97851562 C-178.22838373 133.3701049 -175.57647859 131.79694615 -172.90234375 130.25 C-161.3082873 123.52629082 -150.21065614 116.11469942 -139.11328125 108.609375 C-138.33381134 108.08239014 -137.55434143 107.55540527 -136.75125122 107.01245117 C-121.9554693 96.99441091 -107.20295647 86.90084 -93.05078125 75.984375 C-92.16737061 75.30697266 -91.28395996 74.62957031 -90.3737793 73.93164062 C-88.63465327 72.59744686 -86.89656193 71.26190294 -85.15966797 69.92480469 C-83.08592058 68.32882191 -81.00890157 66.73728654 -78.9296875 65.1484375 C-72.48530202 60.21902531 -66.10492292 55.21703683 -59.80078125 50.109375 C-58.94097656 49.41328125 -58.08117187 48.7171875 -57.1953125 48 C-51.65578658 43.49164124 -46.18057982 38.91291271 -40.73632812 34.29052734 C-35.12258301 29.52556704 -29.46496728 24.81422142 -23.80078125 20.109375 C-24.94293091 20.1407959 -24.94293091 20.1407959 -26.1081543 20.17285156 C-29.56806157 20.25615295 -33.02775763 20.30808084 -36.48828125 20.359375 C-37.68646484 20.39289062 -38.88464844 20.42640625 -40.11914062 20.4609375 C-41.85454102 20.48027344 -41.85454102 20.48027344 -43.625 20.5 C-44.68807373 20.52094727 -45.75114746 20.54189453 -46.84643555 20.56347656 C-50.55380438 19.9936306 -52.17828666 18.74863708 -54.80078125 16.109375 C-55.96675535 12.10133903 -56.23318626 10.05654789 -54.48828125 6.234375 C-52.80078125 4.109375 -52.80078125 4.109375 -50.80078125 3.109375 C-48.90945619 2.89759366 -47.01192771 2.74015508 -45.11328125 2.609375 C-43.94772705 2.5273584 -42.78217285 2.4453418 -41.58129883 2.36083984 C-40.33372803 2.27785645 -39.08615723 2.19487305 -37.80078125 2.109375 C-36.53451904 2.02252441 -35.26825684 1.93567383 -33.96362305 1.84619141 C-8.79899297 0.14006054 -8.79899297 0.14006054 0 0 Z " fill="#000000" transform="translate(455.80078125,23.890625)"/>
<path d="M0 0 C0.65594147 -0.0087616 1.31188293 -0.01752319 1.98770142 -0.02655029 C4.14482794 -0.04846494 6.29988581 -0.03402345 8.45703125 -0.01708984 C9.96248771 -0.02046035 11.4679415 -0.02531493 12.97338867 -0.03158569 C16.12412497 -0.03894613 19.27415113 -0.02827952 22.42480469 -0.00488281 C26.4569908 0.02360601 30.48751296 0.00719737 34.51963806 -0.02274513 C37.62703923 -0.04084144 40.73404798 -0.03504973 43.84146118 -0.02210617 C45.32777098 -0.01877853 46.81411679 -0.02283672 48.30038452 -0.03450394 C50.38089898 -0.04725309 52.45874605 -0.02778738 54.5390625 0 C56.31180542 0.00596695 56.31180542 0.00596695 58.12036133 0.01205444 C62.39626275 0.87413803 63.63665846 2.17123308 66.26953125 5.64697266 C67.00204673 9.01377906 66.93580606 12.3157656 66.89099121 15.7502594 C66.89738003 16.7766809 66.90376885 17.80310241 66.91035128 18.86062759 C66.92562899 22.30485959 66.90512047 25.74794646 66.88476562 29.19213867 C66.88826594 31.65926495 66.8939235 34.12638898 66.90158081 36.59350586 C66.91436802 42.60150944 66.90387561 48.60906342 66.88246757 54.61700887 C66.85845601 61.61233495 66.860172 68.60758361 66.86277348 75.60294174 C66.86646353 88.08310234 66.84563853 100.56310366 66.81152344 113.04321289 C66.77842501 125.15588404 66.76426634 137.26838806 66.77050781 149.38110352 C66.77727021 162.569662 66.77481643 175.75815047 66.75514841 188.94669861 C66.75410893 189.64393392 66.75306944 190.34116923 66.75199845 191.05953289 C66.74990755 192.45992079 66.74779658 193.86030865 66.74566528 195.26069649 C66.73876712 200.1380376 66.73810079 205.01535714 66.73954773 209.8927021 C66.74113684 216.45495525 66.72625596 223.01703537 66.7003212 229.57924652 C66.69314225 231.991559 66.69108403 234.40389278 66.69443893 236.81621361 C66.69813697 240.10125181 66.68346413 243.38569938 66.66394043 246.67066956 C66.67193232 248.11301864 66.67193232 248.11301864 66.68008566 249.58450609 C66.61413495 255.98695977 66.61413495 255.98695977 64.93238068 259.2079916 C61.6046378 262.08772255 58.14848352 261.78319171 53.94970703 261.80810547 C52.64470245 261.81771301 51.33969788 261.82732056 49.99514771 261.83721924 C48.5683815 261.84206711 47.14161326 261.84634597 45.71484375 261.85009766 C44.25137328 261.85585131 42.78790282 261.86160902 41.32443237 261.86737061 C38.25616098 261.87787232 35.18791574 261.88372046 32.11962891 261.88720703 C28.1931827 261.89269118 24.26708337 261.91672065 20.34074593 261.94517899 C17.31752521 261.96382688 14.29438772 261.96901209 11.27111435 261.97054291 C9.82386249 261.97356494 8.37661193 261.98157834 6.92941666 261.99472809 C4.90239604 262.0118322 2.875232 262.00805722 0.84814453 262.00341797 C-0.30418671 262.0070636 -1.45651794 262.01070923 -2.64376831 262.01446533 C-6.08725974 261.60449426 -7.96624335 260.70629019 -10.73046875 258.64697266 C-11.88022197 256.34746621 -11.8596298 255.05243924 -11.86748314 252.49488354 C-11.87255768 251.61965264 -11.87763222 250.74442175 -11.88286054 249.84266871 C-11.8833583 248.87527697 -11.88385606 247.90788523 -11.8843689 246.91117859 C-11.88875115 245.88802593 -11.8931334 244.86487326 -11.89764845 243.81071597 C-11.91107276 240.35989283 -11.91722343 236.90909525 -11.92333984 233.45825195 C-11.93123786 230.99319339 -11.93950662 228.528136 -11.94812012 226.06307983 C-11.97210534 218.64966689 -11.98727199 211.23625814 -12.00018018 203.82281968 C-12.00389131 201.72961578 -12.0078646 199.63641255 -12.01193285 197.54320931 C-12.0371672 184.54973367 -12.05922423 171.556257 -12.071661 158.56276226 C-12.07459078 155.55250227 -12.07755243 152.54224232 -12.08056641 149.53198242 C-12.08168548 148.40967979 -12.08168548 148.40967979 -12.08282717 147.26470438 C-12.09548491 135.14016732 -12.12871313 123.01577676 -12.17036824 110.89130821 C-12.21276679 98.44865321 -12.23635356 86.00607327 -12.24158156 73.56334621 C-12.24499793 66.57502048 -12.25677942 59.58692376 -12.2896843 52.59866905 C-12.32057855 46.02659443 -12.32611336 39.45484715 -12.31430054 32.88268661 C-12.31407895 30.46754659 -12.32245387 28.05238856 -12.33995438 25.63731194 C-12.36251305 22.3456268 -12.35441179 19.05540836 -12.33847046 15.76371765 C-12.35235255 14.80301808 -12.36623463 13.8423185 -12.38053739 12.85250682 C-12.32597789 8.29525568 -12.21379545 6.28543059 -9.38929176 2.55435848 C-6.04155311 0.15275852 -4.0999935 0.01380034 0 0 Z M4.26953125 16.64697266 C4.26953125 91.88697266 4.26953125 167.12697266 4.26953125 244.64697266 C19.44953125 244.64697266 34.62953125 244.64697266 50.26953125 244.64697266 C50.26953125 169.40697266 50.26953125 94.16697266 50.26953125 16.64697266 C35.08953125 16.64697266 19.90953125 16.64697266 4.26953125 16.64697266 Z " fill="#000000" transform="translate(285.73046875,198.35302734375)"/>
<path d="M0 0 C2.4550261 1.95748383 4.86508028 3.95680136 7.265625 5.98046875 C8.09578125 6.61597656 8.9259375 7.25148438 9.78125 7.90625 C27.05929268 22.33178563 37.52517702 46.42909224 39.86645508 68.48266602 C41.4705078 87.5641646 38.28244178 106.03058721 29.265625 122.98046875 C28.729375 124.00914062 28.193125 125.0378125 27.640625 126.09765625 C23.6932768 133.27963701 18.9776033 139.12758776 13.265625 144.98046875 C12.42 145.86734375 11.574375 146.75421875 10.703125 147.66796875 C9.89875 148.43109375 9.094375 149.19421875 8.265625 149.98046875 C7.74226562 150.49867188 7.21890625 151.016875 6.6796875 151.55078125 C-13.33455165 170.38274467 -40.02150264 174.88498001 -66.42871094 174.1640625 C-77.80467247 173.53225134 -88.52015926 169.92143308 -98.734375 164.98046875 C-100.11689453 164.31917969 -100.11689453 164.31917969 -101.52734375 163.64453125 C-123.00316478 152.67944351 -139.54960198 132.73181463 -147.40283203 110.04980469 C-155.23407261 85.6570094 -153.90582104 59.0746569 -142.734375 35.98046875 C-142.29351562 35.05878906 -141.85265625 34.13710938 -141.3984375 33.1875 C-130.0399592 10.94119858 -109.57565356 -5.5100897 -86.01953125 -13.23828125 C-57.06541427 -21.7452621 -24.67453847 -18.22390913 0 0 Z M-106.734375 16.98046875 C-107.51941406 17.61210938 -108.30445312 18.24375 -109.11328125 18.89453125 C-123.95023238 31.35303983 -133.43493923 49.79207366 -135.734375 68.98046875 C-137.63593724 91.81517277 -131.42049664 111.63619147 -117.484375 129.73046875 C-104.40558916 144.92953557 -87.46236857 154.45833231 -67.734375 157.98046875 C-56.30173154 158.74908897 -44.61038919 158.87705513 -33.734375 154.98046875 C-32.68378906 154.62855469 -31.63320312 154.27664062 -30.55078125 153.9140625 C-8.48051096 146.0373936 6.98075495 131.54652027 17.140625 110.54296875 C25.36998268 92.37086367 26.31360973 69.7882685 19.265625 50.98046875 C15.03662875 41.03259191 9.55673235 31.98549703 2.265625 23.98046875 C1.75 23.37332031 1.234375 22.76617187 0.703125 22.140625 C-10.87850845 9.37187413 -30.98358599 0.09191357 -48.08349609 -1.1965332 C-69.82165173 -1.74600723 -89.84999458 2.34495929 -106.734375 16.98046875 Z " fill="#010100" transform="translate(195.734375,17.01953125)"/>
<path d="M0 0 C0 5.28 0 10.56 0 16 C-1.98 16.99 -3.96 17.98 -6 19 C-6.495 19.495 -6.495 19.495 -7 20 C-6.94199219 20.60070312 -6.88398438 21.20140625 -6.82421875 21.8203125 C-6.65356662 24.69701985 -6.7969733 26.35419751 -8 29 C-10.82773302 30.86064098 -13.51791978 32.24066983 -16.6315918 33.52783203 C-23.49547193 36.3768533 -27.19092758 40.74223816 -31 47 C-33.41272245 54.23816736 -33.16017156 63.60588072 -30 70.5625 C-25.86266807 77.61823321 -18.51814786 82.47276442 -10.6809082 84.6418457 C-7.08898194 85.483305 -3.48463348 86.25617106 0.125 87.01757812 C6.69473353 88.48014848 13.05977247 90.09484476 17.96484375 94.94140625 C19.92926629 98.84801259 19.84369536 102.7678046 19 107 C14.64636822 111.97557918 9.84218332 113.76618791 3.34375 114.30078125 C2.0753125 114.30464844 0.806875 114.30851562 -0.5 114.3125 C-2.40265625 114.33763672 -2.40265625 114.33763672 -4.34375 114.36328125 C-10.78240493 113.7235431 -14.88447721 110.87364541 -19 106 C-20.10112569 103.9550523 -21.08659864 101.90136685 -22.0078125 99.76953125 C-23.01256402 97.66340165 -23.01256402 97.66340165 -26 96 C-29.05603838 95.68166267 -31.13335219 95.53778783 -33.875 97 C-35.73892071 100.31363681 -35.63772753 103.36985867 -35 107 C-31.94768033 116.04391014 -26.25241239 121.93958684 -17.875 126.3125 C-14.66034853 127.79276441 -11.39212052 128.98236384 -8 130 C-7.88785156 131.03060547 -7.88785156 131.03060547 -7.7734375 132.08203125 C-7.64195312 132.98308594 -7.51046875 133.88414062 -7.375 134.8125 C-7.20097656 136.15248047 -7.20097656 136.15248047 -7.0234375 137.51953125 C-5.97357629 140.83351584 -5.97357629 140.83351584 0 143 C0 148.28 0 153.56 0 159 C-18.50301786 159.91372928 -36.94392153 153.14912691 -51 141 C-52.08474609 140.12794922 -52.08474609 140.12794922 -53.19140625 139.23828125 C-68.17681963 126.73775876 -78.2951708 106.94358078 -80.25439453 87.47167969 C-81.64317811 64.52845252 -74.85735257 44.13768546 -60.1796875 26.44140625 C-44.69119832 9.09318808 -23.16974074 -0.53263772 0 0 Z " fill="#FCDE75" transform="translate(140,16)"/>
<path d="M0 0 C15.18 0 30.36 0 46 0 C46 53.79 46 107.58 46 163 C30.82 163 15.64 163 0 163 C0 109.21 0 55.42 0 0 Z " fill="#FBCD62" transform="translate(176,280)"/>
<path d="M0 0 C7.26 0 14.52 0 22 0 C22 94.05 22 188.1 22 285 C14.74 285 7.48 285 0 285 C0 190.95 0 96.9 0 0 Z " fill="#8AC9FE" transform="translate(405,158)"/>
<path d="M0 0 C7.26 0 14.52 0 22 0 C22 74.91 22 149.82 22 227 C14.74 227 7.48 227 0 227 C0 152.09 0 77.18 0 0 Z " fill="#6CF5C2" transform="translate(291,216)"/>
<path d="M0 0 C15.18 0 30.36 0 46 0 C46 33.99 46 67.98 46 103 C30.82 103 15.64 103 0 103 C0 69.01 0 35.02 0 0 Z " fill="#F34452" transform="translate(62,341)"/>
<path d="M0 0 C2.58841637 2.19019846 3.85198477 3.68970129 4.23828125 7.109375 C4.24873401 9.07449466 4.1329252 11.03935331 4 13 C4.825 13.0825 5.65 13.165 6.5 13.25 C15.14040863 15.10151613 21.06664481 19.76712924 26.32421875 26.76171875 C28.96976681 30.89248677 29.80473699 34.17157804 29 39 C26.55804571 42.37564269 25.0769435 43.75320045 21 44.6875 C16.84707773 43.73578865 15.35771986 41.29937016 13 38 C12.01667242 36.7368425 11.01635528 35.48673843 10 34.25 C9.319375 33.39148438 9.319375 33.39148438 8.625 32.515625 C3.97883592 28.1821835 -1.83661065 28.58762847 -7.82421875 28.67578125 C-12.26668904 29.12931758 -14.49326594 30.27254017 -18 33 C-20.08623141 36.12934711 -20.36754564 37.24354287 -20.5 40.875 C-20.5515625 41.71804687 -20.603125 42.56109375 -20.65625 43.4296875 C-19.85168816 46.58088804 -18.36115478 48.00114355 -15.79199219 49.9375 C-12.83885545 51.68846064 -9.69927698 52.39595511 -6.375 53.0625 C-4.95495519 53.38462768 -3.53568427 53.71018499 -2.1171875 54.0390625 C-1.42077148 54.19793945 -0.72435547 54.35681641 -0.00683594 54.52050781 C11.98298676 57.38522944 21.76906014 61.68125339 29 72 C32.45383242 78.66589656 32.10587025 88.38054199 30.3828125 95.578125 C26.83901911 103.54381988 19.9699384 107.85153528 12.125 110.9375 C6.40836013 113 6.40836013 113 4 113 C4.0825 114.051875 4.165 115.10375 4.25 116.1875 C4 120 4 120 2.4375 122.875 C-0.79638713 125.69428622 -2.72539746 126.14998605 -7 126 C-9.99699536 123.98028573 -11.63755488 122.45515002 -12.52734375 118.8828125 C-12.78074827 116.93194482 -12.90009907 114.96471839 -13 113 C-13.54527344 112.85304688 -14.09054688 112.70609375 -14.65234375 112.5546875 C-25.39366836 109.35983198 -33.48613695 103.44208226 -38.875 93.5625 C-40.24250344 89.23207244 -40.51851941 86.5185263 -40 82 C-38.375 79.5 -38.375 79.5 -36 78 C-32.33886361 77.37682785 -30.60317655 77.65532769 -27.375 79.5 C-24.23245873 82.80793817 -21 87.25829118 -21 92 C-12.47144856 96.42221186 -3.81922156 97.46628328 5.65234375 95.4296875 C9.07068285 94.22021929 11.76429697 92.86038476 14 90 C14.95787204 85.29046248 14.75631707 81.2425209 12.25 77.125 C5.46829013 72.69080508 -2.18711767 71.1135338 -10.0625 69.625 C-19.06147535 67.77548683 -27.22384581 64.28463697 -32.8515625 56.75390625 C-37.8101405 49.18111196 -37.88350824 41.96129784 -37 33 C-36.09375161 29.9373452 -34.84976888 27.58708934 -33 25 C-32.46375 24.13375 -31.9275 23.2675 -31.375 22.375 C-26.36664522 17.36664522 -19.84387622 13.80102006 -13 12 C-12.97873047 11.09507813 -12.97873047 11.09507813 -12.95703125 10.171875 C-12.70988176 6.03045108 -12.5416002 3.66903554 -9.875 0.375 C-6.02674704 -1.46546881 -4.05288458 -1.25270978 0 0 Z " fill="#040301" transform="translate(144,33)"/>
<path d="M0 0 C7.59 0 15.18 0 23 0 C23 53.79 23 107.58 23 163 C15.41 163 7.82 163 0 163 C0 109.21 0 55.42 0 0 Z " fill="#FCDE75" transform="translate(176,280)"/>
<path d="M0 0 C140.58 0 281.16 0 426 0 C426 2.31 426 4.62 426 7 C285.42 7 144.84 7 0 7 C0 4.69 0 2.38 0 0 Z " fill="#827582" transform="translate(43,489)"/>
<path d="M0 0 C7.59 0 15.18 0 23 0 C23 33.33 23 66.66 23 101 C15.41 101 7.82 101 0 101 C0 67.67 0 34.34 0 0 Z " fill="#FB626D" transform="translate(62,342)"/>
<path d="M0 0 C16 4 16 4 20 10 C20.60159297 13.41288317 20.6211995 16.58885188 20 20 C16.55107087 23.94163329 13.08440963 25.85860192 8 27 C5.69 27 3.38 27 1 27 C0.67 18.09 0.34 9.18 0 0 Z " fill="#FBCD62" transform="translate(139,103)"/>
<path d="M0 0 C0 8.25 0 16.5 0 25 C-7.69024191 25 -9.85520302 24.29458222 -15.67578125 19.66796875 C-17.93434327 16.82311334 -17.46474846 13.93889967 -17.34765625 10.44140625 C-16.84549705 6.91500737 -15.671422 5.31991911 -13 3 C-8.08003711 -0.17064275 -6.30539998 0 0 0 Z " fill="#FBDD74" transform="translate(140,61)"/>
</svg>
