<?xml version="1.0" encoding="UTF-8"?>
<svg version="1.1" xmlns="http://www.w3.org/2000/svg" width="512" height="512">
<path d="M0 0 C1.13405273 0.27408691 1.13405273 0.27408691 2.29101562 0.55371094 C26.22743711 6.45544401 48.88415963 17.99160178 66.84765625 34.96875 C68.81577766 36.82614226 70.84701733 38.53386936 72.9375 40.25 C87.58224251 53.09729926 98.00961182 70.44756051 106 88 C106.81791016 89.78470703 106.81791016 89.78470703 107.65234375 91.60546875 C115.3871421 109.65333157 119.71545883 130.32488227 119 150 C120.11375 150.04125 121.2275 150.0825 122.375 150.125 C128.9573068 150.988636 134.65944895 154.22443744 138.93359375 159.29296875 C142.24135798 164.15546149 144.10053328 167.98738757 144.20532227 173.93041992 C144.22526749 174.93123093 144.24521271 175.93204193 144.26576233 176.96318054 C144.29083107 178.5804882 144.29083107 178.5804882 144.31640625 180.23046875 C144.33718735 181.33602615 144.35796844 182.44158356 144.37937927 183.5806427 C144.44482332 187.1161979 144.50373603 190.65182806 144.5625 194.1875 C144.6056901 196.58269008 144.64930454 198.97787255 144.69335938 201.37304688 C144.80049948 207.24861842 144.90227557 213.12426472 145 219 C145.69291641 218.83799606 146.38583282 218.67599213 147.0997467 218.50907898 C150.25714429 217.95486368 153.19833222 217.86565491 156.40405273 217.85473633 C157.67985703 217.84835648 158.95566132 217.84197662 160.27012634 217.83540344 C161.65794842 217.83387337 163.04577102 217.83276016 164.43359375 217.83203125 C165.87264539 217.82881269 167.31169671 217.82544818 168.75074768 217.82194519 C171.76930497 217.815963 174.78783369 217.81410407 177.80639648 217.81469727 C181.63541764 217.81479818 185.46425039 217.8012162 189.2932272 217.78392506 C192.26962589 217.77268284 195.24598103 217.77078185 198.22239876 217.77130699 C199.63149723 217.77014247 201.04059743 217.7658089 202.44967461 217.75797462 C225.57823231 217.64154255 244.46948065 222.44165221 261.65234375 238.5625 C276.46652564 253.94361397 281.52223201 272.20329827 281.3371582 293.14624023 C281.33634909 294.49653613 281.33695224 295.84683347 281.33883667 297.1971283 C281.34038125 300.07260203 281.33315005 302.94786264 281.31899452 305.82330132 C281.29763288 310.37568897 281.30268049 314.92782533 281.3120575 319.48023987 C281.33479844 332.41389466 281.3229104 345.34739177 281.28491211 358.28100586 C281.26408445 365.44885066 281.26478758 372.61637841 281.28844708 379.78421742 C281.30208141 384.30534391 281.28904927 388.82534142 281.25584948 393.34635437 C281.24147181 396.15806721 281.2521721 398.96927742 281.26983261 401.78095436 C281.27450409 403.69633207 281.24942972 405.61171076 281.2233429 407.5269165 C281.28764596 414.97211263 281.28764596 414.97211263 284.98283386 421.20252991 C285.98158731 422.14247992 286.9860099 423.07650741 288 424 C290.08804951 428.17609902 289.26787766 433.56258379 289.29516602 438.15649414 C289.31228668 440.16250573 289.35617119 442.16823089 289.40039062 444.17382812 C289.48044711 456.37320426 289.48044711 456.37320426 285 462 C280.00230448 465.95650895 276.2715121 467.1358019 270.015625 467.09765625 C269.08105469 467.09443359 268.14648438 467.09121094 267.18359375 467.08789062 C266.21550781 467.07951172 265.24742187 467.07113281 264.25 467.0625 C263.26644531 467.05798828 262.28289062 467.05347656 261.26953125 467.04882812 C258.84629209 467.03706483 256.42317727 467.02062684 254 467 C253.8865625 468.19882812 253.773125 469.39765625 253.65625 470.6328125 C252.18218661 482.2666531 244.31288667 491.7543637 235.55078125 499.03515625 C222.41490731 508.74786681 208.91465743 510.32721339 193 509 C181.12310342 506.9991751 170.20207768 499.6353846 162.6328125 490.40234375 C157.61872297 483.02515461 154.2681367 475.87695693 153 467 C82.38 467.33 11.76 467.66 -61 468 C-61.99 471.3 -62.98 474.6 -64 478 C-69.19153684 490.76252806 -78.7068419 499.39529649 -90.76171875 505.66015625 C-97.8711622 508.6016992 -104.26122174 509.36316684 -111.875 509.3125 C-113.20325806 509.30404053 -113.20325806 509.30404053 -114.55834961 509.29541016 C-127.08650615 509.06214556 -138.90391575 504.56322354 -148.24609375 495.94140625 C-155.16567602 488.28209136 -163 477.77800926 -163 467 C-163.84183838 467.01571045 -164.68367676 467.0314209 -165.55102539 467.04760742 C-168.70253182 467.09902251 -171.85382299 467.1364888 -175.00561523 467.16479492 C-176.36441117 467.17979409 -177.72315941 467.20020038 -179.08178711 467.22631836 C-194.9347305 467.52323357 -194.9347305 467.52323357 -201.8125 461.5625 C-205.32663618 457.44594047 -206.2529932 454.7813608 -206.1953125 449.359375 C-206.18886719 448.28945313 -206.18242187 447.21953125 -206.17578125 446.1171875 C-206.15902344 445.00601562 -206.14226562 443.89484375 -206.125 442.75 C-206.11597656 441.62335938 -206.10695312 440.49671875 -206.09765625 439.3359375 C-206.07410658 436.55707635 -206.0412168 433.7786461 -206 431 C-206.90363281 430.74605469 -207.80726563 430.49210937 -208.73828125 430.23046875 C-212.07061929 428.97335919 -213.71722352 427.82222201 -216.1875 425.3125 C-216.84105469 424.66925781 -217.49460938 424.02601563 -218.16796875 423.36328125 C-222.97893255 417.15724052 -223.43808966 411.51666738 -223.39440918 403.92436218 C-223.40050028 402.92496654 -223.40659139 401.92557089 -223.41286707 400.89589053 C-223.42948419 397.55507048 -223.42472297 394.21463211 -223.41992188 390.8737793 C-223.42726297 388.47520553 -223.43584931 386.0766353 -223.44558716 383.67807007 C-223.46550135 377.84359638 -223.47118393 372.00924006 -223.46939927 366.17473491 C-223.46808984 361.43002864 -223.47190501 356.6853533 -223.47932434 351.94065285 C-223.48142362 350.57210519 -223.48352122 349.20355753 -223.48561716 347.83500987 C-223.48666069 347.15376443 -223.48770422 346.47251899 -223.48877937 345.77062974 C-223.50766847 332.89559908 -223.50663575 320.02062543 -223.49981004 307.14558665 C-223.49423666 295.38038631 -223.51505352 283.61540387 -223.54817051 271.85025444 C-223.58194678 259.75657309 -223.59707088 247.66299599 -223.59245348 235.56926662 C-223.59021261 228.78487878 -223.59539549 222.00069226 -223.62034607 215.21634483 C-223.64262064 208.8345385 -223.64072871 202.45318527 -223.62041855 196.0713768 C-223.61700974 193.73252192 -223.62209189 191.3936365 -223.63640213 189.05482292 C-223.65462629 185.85488577 -223.64182052 182.65648054 -223.62145996 179.45658875 C-223.63397781 178.53720967 -223.64649566 177.61783059 -223.65939283 176.67059153 C-223.55379239 168.89703446 -221.04704973 162.35929157 -215.7890625 156.5625 C-206.94386709 150.17607732 -199.73650234 149.70938791 -189 150 C-189.05220703 148.58074219 -189.05220703 148.58074219 -189.10546875 147.1328125 C-190.06143952 109.45404543 -173.85490627 72.15203996 -148.11425781 45.01171875 C-142.24187501 39.04515909 -142.24187501 39.04515909 -137.5625 38.875 C-134 39 -134 39 -131 40 C-127.16458266 37.87995041 -123.93716232 35.24777132 -121 32 C-120.31158342 29.12021157 -120.7038906 27.01044552 -121 24 C-117.98860736 18.92946591 -113.58303177 16.72959677 -108.5 14.125 C-107.66412354 13.69300293 -106.82824707 13.26100586 -105.96704102 12.81591797 C-74.48812836 -2.99835542 -34.42628898 -8.91014057 0 0 Z " fill="#171616" transform="translate(223,3)"/>
<path d="M0 0 C1.44826172 1.22009766 1.44826172 1.22009766 2.92578125 2.46484375 C23.89313861 20.82215662 37.60359153 45.39721463 45 72 C45.19352051 72.69464355 45.38704102 73.38928711 45.58642578 74.10498047 C54.40785353 107.81513558 46.56496845 145.30441848 29.28076172 174.87646484 C9.08297217 208.36490814 -22.64626609 229.24737656 -60.21289062 238.54785156 C-79.20164893 242.95752166 -100.13304858 242.80021994 -119 238 C-120.77890625 237.61714844 -120.77890625 237.61714844 -122.59375 237.2265625 C-146.16628709 231.73637758 -166.9215193 218.89843647 -184 202 C-184.7734375 201.28714844 -185.546875 200.57429687 -186.34375 199.83984375 C-210.83780453 176.76885929 -223.89884888 142.22230607 -225.23828125 109.06640625 C-226.08851736 73.6244213 -214.28863838 39.46531205 -190 13.375 C-189.0925 12.43398438 -188.185 11.49296875 -187.25 10.5234375 C-184.58718275 7.55683986 -184.58718275 7.55683986 -183 4 C-183.34722003 1.66259658 -183.34722003 1.66259658 -184 -0.75 C-184.37109375 -3.3828125 -184.37109375 -3.3828125 -184 -6 C-181.07357247 -9.3035171 -177.72274809 -11.65774373 -174 -14 C-172 -13 -170 -12 -168 -11 C-162.82968672 -10.47046578 -160.24820042 -11.72234917 -155.9375 -14.5 C-107.48517069 -44.05385511 -42.54557202 -35.91363345 0 0 Z " fill="#44CD7B" transform="translate(276,49)"/>
<path d="M0 0 C1.16144531 0.04511719 2.32289062 0.09023437 3.51953125 0.13671875 C4.84017578 0.22373047 4.84017578 0.22373047 6.1875 0.3125 C6.32736328 1.02567383 6.46722656 1.73884766 6.61132812 2.47363281 C13.39444579 36.4437478 26.03190904 65.26093015 50.1875 90.3125 C50.89132813 91.07949219 51.59515625 91.84648437 52.3203125 92.63671875 C76.29441351 118.02374206 113.92751896 134.62232684 148.76953125 135.6484375 C151.51334843 135.689598 154.25591684 135.69603501 157 135.6875 C157.72193542 135.6862915 158.44387085 135.68508301 159.18768311 135.68383789 C200.88575541 135.4954966 239.12734776 119.26058357 268.69238281 89.84667969 C292.85385325 65.05394941 305.59549508 34.07535917 311.1875 0.3125 C317.57425641 0.79451935 317.57425641 0.79451935 319.89542103 2.75510788 C321.90775273 6.73808519 321.58962001 10.57959862 321.54826355 14.98077393 C321.55082682 15.9724113 321.5533901 16.96404867 321.55603105 17.98573565 C321.56098342 21.31780282 321.54445173 24.64941969 321.52807617 27.98144531 C321.52723022 30.36624135 321.52770443 32.75103816 321.52940369 35.13583374 C321.53017666 40.9453368 321.51715244 46.75469168 321.49809071 52.56416085 C321.47665212 59.32385147 321.47215583 66.08352097 321.4687262 72.84324083 C321.46216004 84.89812937 321.44219444 96.95295702 321.41381836 109.0078125 C321.38628203 120.71809586 321.36504637 132.42836268 321.35229492 144.13867188 C321.35150675 144.86047391 321.35071858 145.58227595 321.34990653 146.32595077 C321.34599142 149.94701337 321.34220029 153.56807609 321.33847082 157.18913889 C321.3073698 187.23030193 321.25430657 217.27139384 321.1875 247.3125 C293.68433253 247.40594575 266.18118885 247.47648049 238.67789459 247.51974869 C225.90760491 247.54037294 213.13741387 247.56849112 200.3671875 247.61425781 C189.23652248 247.65412953 178.1059289 247.6799338 166.97519445 247.68885398 C161.08166504 247.6940681 155.18834001 247.70632074 149.2948761 247.73542023 C143.74633051 247.76259438 138.19807328 247.77094083 132.64946747 247.76493073 C130.61453941 247.76603005 128.5796016 247.77397186 126.54473114 247.7893219 C123.76209387 247.80928095 120.98053932 247.80441753 118.19787598 247.79351807 C117.39629767 247.80516943 116.59471936 247.8168208 115.7688508 247.82882524 C110.02601911 247.76819888 106.11682942 246.17366777 101.1875 243.3125 C91.36456552 238.77362683 77.46132125 238.26783348 67.109375 241.3671875 C62.80298232 242.99898204 59.01934956 244.75793363 55.1875 247.3125 C52.49989319 247.57992554 52.49989319 247.57992554 49.21899414 247.60302734 C47.99084488 247.61578705 46.76269562 247.62854675 45.49732971 247.64169312 C44.15577349 247.64475045 42.81421516 247.64697838 41.47265625 247.6484375 C40.09646973 247.6548648 38.72028459 247.66159311 37.34410095 247.66860962 C34.45991854 247.68058293 31.57585591 247.68429036 28.69165039 247.68310547 C24.9981092 247.68290218 21.30533657 247.71021344 17.61197758 247.74464989 C14.76977519 247.76690019 11.9277584 247.77094362 9.08547783 247.76988602 C7.72391547 247.77224446 6.36234819 247.78108185 5.00087166 247.79655075 C3.0958155 247.81617044 1.19053378 247.80786049 -0.71459961 247.79833984 C-2.33983803 247.8026149 -2.33983803 247.8026149 -3.99790955 247.80697632 C-7.48375149 247.19457238 -8.62761359 246.03439287 -10.8125 243.3125 C-12.5297775 239.87794501 -11.9643302 235.92639527 -11.96640015 232.14616394 C-11.9707824 231.18426456 -11.97516465 230.22236519 -11.9796797 229.23131734 C-11.99310169 225.98778712 -11.99925415 222.74428408 -12.00537109 219.50073242 C-12.0132693 217.18345516 -12.02153807 214.86617913 -12.03015137 212.54890442 C-12.0564011 204.92193786 -12.0716806 197.29496573 -12.0859375 189.66796875 C-12.09129571 187.04614063 -12.09667321 184.42431255 -12.10206985 181.80248451 C-12.12370169 170.90018127 -12.14259163 159.99788035 -12.15369225 149.09556103 C-12.15662201 146.26577437 -12.15958367 143.43598774 -12.16259766 140.60620117 C-12.16334371 139.90285864 -12.16408976 139.19951611 -12.16485842 138.47486017 C-12.17751559 127.07780274 -12.21074314 115.6809012 -12.25239949 104.28391667 C-12.294802 92.58706688 -12.3179775 80.89030521 -12.32361281 69.19337922 C-12.32727342 62.62422615 -12.33937051 56.05533732 -12.37171555 49.48625755 C-12.40169938 43.30811303 -12.40814244 37.13039398 -12.39633179 30.95219231 C-12.39611025 28.68218147 -12.40448102 26.41215145 -12.42198563 24.1422081 C-12.44455477 21.04755015 -12.43643861 17.95445106 -12.42050171 14.85978699 C-12.4343838 13.95745164 -12.44826588 13.05511629 -12.46256864 12.12543744 C-12.40633372 7.70617756 -12.23568984 5.86946129 -9.48275185 2.24631214 C-6.08825519 -0.21200237 -4.14473143 -0.20932987 0 0 Z " fill="#FEB24D" transform="translate(28.8125,170.6875)"/>
<path d="M0 0 C1.29228516 0.01611328 2.58457031 0.03222656 3.91601562 0.04882812 C5.27085032 0.09059851 6.62566803 0.13292316 7.98046875 0.17578125 C9.35477741 0.20088056 10.72912991 0.22369089 12.10351562 0.24414062 C15.45944851 0.30301664 18.81314965 0.38521705 22.16796875 0.48828125 C22.16939377 1.48529053 22.17081879 2.4822998 22.17228699 3.50952148 C22.18898828 12.9255837 22.23185738 22.34121548 22.30005932 31.75704956 C22.33428613 36.59737287 22.35943259 41.437382 22.36352539 46.27783203 C22.36781759 50.95303811 22.39635648 55.62753596 22.44140053 60.30252075 C22.45434614 62.08216215 22.45869365 63.86188843 22.45412254 65.64157104 C22.08698871 77.39586883 22.08698871 77.39586883 26.41548157 87.99804688 C31.64314347 92.44340976 35.72658813 93.98605713 42.57202148 94.03417969 C43.64380315 94.04977118 43.64380315 94.04977118 44.73723698 94.06567764 C47.02559294 94.09457223 49.31304306 94.09674181 51.6015625 94.09765625 C53.02414783 94.11166837 54.44671686 94.12744956 55.8692627 94.14501953 C61.11449431 94.19749865 66.36002251 94.2158653 71.60546875 94.23828125 C83.34109375 94.32078125 95.07671875 94.40328125 107.16796875 94.48828125 C107.16796875 122.53828125 107.16796875 150.58828125 107.16796875 179.48828125 C75.16796875 179.48828125 75.16796875 179.48828125 64.16796875 174.48828125 C58.52041109 172.45368078 53.35786851 172.10260404 47.41796875 172.11328125 C46.09224854 172.1146106 46.09224854 172.1146106 44.73974609 172.1159668 C36.74002189 172.26073491 30.42266524 174.00987773 23.49902344 178.04296875 C19.59430188 179.73718977 16.82620305 179.83218006 12.58203125 179.78125 C11.8802475 179.77700516 11.17846375 179.77276031 10.45541382 179.76838684 C8.23419315 179.75171724 6.01391087 179.71408997 3.79296875 179.67578125 C2.27865902 179.66071913 0.76433494 179.64703341 -0.75 179.63476562 C-4.44431057 179.60185308 -8.13807918 179.55015384 -11.83203125 179.48828125 C-11.94878898 156.88791558 -12.03698242 134.28759959 -12.09109211 111.6869936 C-12.11688304 101.19332617 -12.15205064 90.69984604 -12.20922852 80.20629883 C-12.25903616 71.06101727 -12.29131579 61.91587134 -12.30247372 52.77045792 C-12.30899695 47.92714188 -12.32434685 43.08421388 -12.36068153 38.24102211 C-12.39459932 33.68309369 -12.40509277 29.12571346 -12.39756966 24.56767082 C-12.3989461 22.89429369 -12.40890394 21.22089838 -12.42805862 19.54763031 C-12.45293252 17.26283491 -12.44695939 14.98010986 -12.43330383 12.69526672 C-12.4379128 11.41673985 -12.44252176 10.13821299 -12.44727039 8.82094288 C-11.13642311 1.72027236 -6.696644 -0.14750317 0 0 Z " fill="#E44050" transform="translate(378.83203125,238.51171875)"/>
<path d="M0 0 C5.31529503 2.50338937 10.11288346 5.87822498 14.91796875 9.234375 C15.81092651 9.85675049 15.81092651 9.85675049 16.72192383 10.49169922 C21.88769117 14.2250168 25.8057856 17.81965319 26.88671875 24.29296875 C27.42449811 32.48065945 23.93869694 37.62003035 19.54296875 44.234375 C18.75694883 45.45433649 17.97318479 46.6757537 17.19140625 47.8984375 C15.39501329 50.69950431 13.58461581 53.49090173 11.765625 56.27734375 C7.98816039 62.07295491 4.2672199 67.9044845 0.54296875 73.734375 C-4.36053114 81.40527015 -9.27907928 89.06560499 -14.234375 96.703125 C-18.3347699 103.03014384 -22.39601443 109.382031 -26.45703125 115.734375 C-31.90052313 124.24830965 -37.35765031 132.75266928 -42.86328125 141.2265625 C-44.71282884 144.07582733 -46.5424461 146.93699288 -48.36328125 149.8046875 C-48.84949951 150.56652344 -49.33571777 151.32835937 -49.83666992 152.11328125 C-50.75525528 153.5532174 -51.66985236 154.99571022 -52.5793457 156.44140625 C-57.43532905 164.03056924 -62.32036612 170.93823057 -71.25390625 173.8125 C-79.40714106 175.37375773 -87.64912809 175.24241843 -94.9140625 171.03515625 C-99.18369008 168.01165653 -103.11930402 164.63410899 -107.046875 161.1875 C-110.36152616 158.28634848 -113.7904232 155.55954147 -117.26953125 152.859375 C-118.42865649 151.95216916 -119.58750528 151.04461 -120.74609375 150.13671875 C-122.68964259 148.61506222 -124.63512921 147.09612227 -126.58496094 145.58251953 C-128.78026377 143.87317383 -130.96312979 142.14891047 -133.14453125 140.421875 C-133.82813721 139.89480957 -134.51174316 139.36774414 -135.21606445 138.82470703 C-140.02632437 134.98836283 -142.87053662 131.60330925 -143.9609375 125.33984375 C-144.12041974 117.39762837 -142.50727256 113.25395245 -137.45703125 107.234375 C-136.60010241 106.14567893 -135.74474275 105.05574661 -134.890625 103.96484375 C-124.09804352 90.43128919 -124.09804352 90.43128919 -116.46875 88.8125 C-107.73885489 88.2022549 -100.7898561 94.22170942 -94.45703125 99.484375 C-93.77769531 100.03867188 -93.09835938 100.59296875 -92.3984375 101.1640625 C-90.74578942 102.51411305 -89.10060436 103.87329102 -87.45703125 105.234375 C-83.8320185 101.95617441 -81.39923906 98.19407186 -78.89453125 94.046875 C-78.00119689 92.59301388 -77.10662617 91.13991186 -76.2109375 89.6875 C-75.52475342 88.5727832 -75.52475342 88.5727832 -74.82470703 87.43554688 C-72.70627004 84.02608098 -70.52191242 80.66073836 -68.33203125 77.296875 C-63.67442108 70.13008612 -59.06005334 62.93633832 -54.45703125 55.734375 C-44.06341957 39.4791015 -44.06341957 39.4791015 -39.47753906 32.43823242 C-36.99903693 28.63236091 -34.55562794 24.80748935 -32.140625 20.9609375 C-31.28440552 19.61092651 -31.28440552 19.61092651 -30.41088867 18.23364258 C-29.30956358 16.49699226 -28.2166602 14.75495963 -27.1340332 13.0065918 C-20.51964486 2.63567653 -12.88527824 -4.01512645 0 0 Z " fill="#171818" transform="translate(246.45703125,72.765625)"/>
<path d="M0 0 C29.32894737 0 29.32894737 0 38 4 C38.79792969 4.350625 39.59585938 4.70125 40.41796875 5.0625 C53.0876495 11.34282368 62.28461278 22.6722975 66.9375 35.9375 C70.95355177 49.31547377 69 62.99664948 69 77 C46.23 77 23.46 77 0 77 C0 51.59 0 26.18 0 0 Z " fill="#A4DCFC" transform="translate(418,239)"/>
<path d="M0 0 C2.90133436 0.48445073 5.01112995 1.46102062 7.453125 3.06640625 C8.071875 3.46923828 8.690625 3.87207031 9.328125 4.28710938 C9.96234375 4.70798828 10.5965625 5.12886719 11.25 5.5625 C12.22453125 6.19961914 12.22453125 6.19961914 13.21875 6.84960938 C14.81578918 7.8947306 16.4083442 8.94669837 18 10 C16.61594419 13.77771836 14.87275187 16.98292253 12.69140625 20.359375 C12.03269531 21.38353516 11.37398437 22.40769531 10.6953125 23.46289062 C9.99148437 24.54763672 9.28765625 25.63238281 8.5625 26.75 C7.82904945 27.8871263 7.09597984 29.0244984 6.36328125 30.16210938 C4.24736028 33.44476297 2.12419799 36.72269576 0 40 C-0.98059281 41.51554474 -1.96107965 43.03115805 -2.94140625 44.546875 C-4.21839093 46.52046214 -5.49590873 48.49369273 -6.77514648 50.46582031 C-10.87685732 56.79343644 -14.93836703 63.14660764 -19 69.5 C-23.90289912 77.1693394 -28.8189471 84.8293602 -33.77514648 92.46435547 C-37.19302541 97.73620363 -40.57666762 103.02949076 -43.95629883 108.32592773 C-54.80525021 125.31930666 -54.80525021 125.31930666 -59.8125 132.9375 C-60.20252197 133.53965332 -60.59254395 134.14180664 -60.99438477 134.76220703 C-62.84225303 137.5487343 -64.1665573 139.1110382 -67 141 C-70.86444128 141.78066646 -74.48924121 141.79625016 -78.02148438 139.93457031 C-80.03409603 138.42356022 -81.89056581 136.8208021 -83.75 135.125 C-85.14585951 133.92169542 -86.54301161 132.71988875 -87.94140625 131.51953125 C-88.96838623 130.62161865 -88.96838623 130.62161865 -90.01611328 129.70556641 C-92.82212969 127.29320724 -95.7369228 125.0438995 -98.6875 122.8125 C-99.71617187 122.02746094 -100.74484375 121.24242187 -101.8046875 120.43359375 C-102.31999023 120.04155762 -102.83529297 119.64952148 -103.36621094 119.24560547 C-106.35636669 116.96590214 -109.33341776 114.66914202 -112.3125 112.375 C-113.41270839 111.5285782 -114.51296372 110.68221741 -115.61328125 109.8359375 C-116.40089844 109.23007813 -117.18851562 108.62421875 -118 108 C-117.57212579 103.09310209 -115.07911185 100.24396018 -111.9375 96.6875 C-111.46505859 96.13771484 -110.99261719 95.58792969 -110.50585938 95.02148438 C-109.345619 93.6737304 -108.17392776 92.33584883 -107 91 C-102.57673419 91.87998386 -99.73755957 94.33252138 -96.3125 97.125 C-95.69036621 97.61911377 -95.06823242 98.11322754 -94.42724609 98.62231445 C-91.69366534 100.79664099 -89.00320645 102.99722107 -86.36328125 105.28515625 C-83.05966254 108.09294388 -80.27172409 110.43782345 -75.875 111 C-72.34448578 110.61080946 -70.84688121 109.19948184 -68.625 106.5 C-67.37723097 104.69327561 -66.17413406 102.85542172 -65 101 C-64.63680664 100.43152344 -64.27361328 99.86304688 -63.89941406 99.27734375 C-61.78600235 95.9620501 -59.70803565 92.62629941 -57.6484375 89.27734375 C-55.1154521 85.16705848 -52.50822145 81.10909867 -49.875 77.0625 C-45.21753789 69.89561487 -40.60294786 62.70201223 -36 55.5 C-31.10376887 47.84087115 -26.19472624 40.19082688 -21.24462891 32.56640625 C-18.4141496 28.20102216 -15.60464068 23.8225156 -12.8046875 19.4375 C-12.43937927 18.86559937 -12.07407104 18.29369873 -11.69769287 17.70446777 C-9.86899517 14.8411876 -8.04181948 11.97695213 -6.21679688 9.11132812 C-5.55486328 8.07427734 -4.89292969 7.03722656 -4.2109375 5.96875 C-3.31834229 4.56786133 -3.31834229 4.56786133 -2.40771484 3.13867188 C-1 1 -1 1 0 0 Z " fill="#FCFCFC" transform="translate(238,89)"/>
<path d="M0 0 C74.58 0 149.16 0 226 0 C224 6 224 6 222.9375 8.5 C221.71719083 11.51029918 221.71719083 11.51029918 221 17 C149.72 17 78.44 17 5 17 C4.01 13.7 3.02 10.4 2 7 C1.34 5.68 0.68 4.36 0 3 C0 2.01 0 1.02 0 0 Z " fill="#737375" transform="translate(156,435)"/>
<path d="M0 0 C2.05078125 1.12109375 2.05078125 1.12109375 4 2.375 C4.69480469 2.79910156 5.38960937 3.22320312 6.10546875 3.66015625 C11.52308357 7.30916886 14.79462577 11.74312752 18 17.375 C18.61875 18.426875 19.2375 19.47875 19.875 20.5625 C22.42785976 29.21385806 21.9228748 38.43826072 18.46484375 46.76953125 C13.5908248 55.43878628 5.91867195 62.55262524 -3.5390625 65.83203125 C-13.98532817 68.13684225 -23.11722688 66.4331225 -32.1796875 61.08984375 C-39.62516811 56.04658424 -43.94235814 48.7132245 -47 40.375 C-47.30635099 37.64268036 -47.47809917 35.21817983 -47.4375 32.5 C-47.43137695 31.79891113 -47.42525391 31.09782227 -47.41894531 30.37548828 C-47.2441434 24.56534175 -46.04312862 20.27138342 -43 15.375 C-42.401875 14.323125 -41.80375 13.27125 -41.1875 12.1875 C-31.757908 0.06373885 -14.72633562 -6.22639804 0 0 Z " fill="#4C5058" transform="translate(124,428.625)"/>
<path d="M0 0 C8.10664124 4.58312473 14.28499871 12.34567377 16.91796875 21.40234375 C17.26171875 23.32421875 17.26171875 23.32421875 17.48046875 25.40234375 C17.57328125 26.2325 17.66609375 27.06265625 17.76171875 27.91796875 C18.3363074 37.97327004 14.70257246 46.1595064 8.35546875 53.83984375 C1.29577683 61.18286779 -7.6395198 64.43229912 -17.70703125 64.71484375 C-26.86619007 64.60404747 -34.97263598 60.75947394 -41.51953125 54.40234375 C-49.4386731 44.95248021 -51.71733703 35.64158149 -50.80517578 23.39746094 C-49.74427944 15.987508 -45.15020755 8.85754039 -39.6015625 3.9375 C-27.26854971 -5.15607229 -13.90073736 -6.7721541 0 0 Z " fill="#4C5058" transform="translate(443.51953125,430.59765625)"/>
<path d="M0 0 C2.74913 2.08429185 3.85883041 3.26751626 4.51757812 6.68554688 C4.52208984 7.68650391 4.52660156 8.68746094 4.53125 9.71875 C4.53640625 10.81574219 4.5415625 11.91273438 4.546875 13.04296875 C4.53140625 14.18378906 4.5159375 15.32460938 4.5 16.5 C4.51546875 17.64082031 4.5309375 18.78164063 4.546875 19.95703125 C4.54171875 21.05402344 4.5365625 22.15101563 4.53125 23.28125 C4.52673828 24.28220703 4.52222656 25.28316406 4.51757812 26.31445312 C3.86705511 29.68980837 2.64818866 30.87848191 0 33 C-2.73962288 33.72771233 -5.23214139 33.57971577 -8 33 C-10.43119623 31.12984906 -11.64069173 29.71861655 -13 27 C-13.32011789 23.40292849 -13.32432332 19.79706201 -13.375 16.1875 C-13.41238281 15.18912109 -13.44976562 14.19074219 -13.48828125 13.16210938 C-13.57652264 5.8037579 -13.57652264 5.8037579 -10.73046875 1.8359375 C-6.6046194 -0.93823875 -4.88955575 -0.69850796 0 0 Z " fill="#1A1617" transform="translate(465,359)"/>
<path d="M0 0 C10.56 0 21.12 0 32 0 C31.01 2.97 30.02 5.94 29 9 C28.34 11.64 27.68 14.28 27 17 C18.09 17 9.18 17 0 17 C0 11.39 0 5.78 0 0 Z " fill="#737374" transform="translate(34,435)"/>
<path d="M0 0 C7.92 0 15.84 0 24 0 C24 5.61 24 11.22 24 17 C18.06 17 12.12 17 6 17 C5.195625 14.751875 4.39125 12.50375 3.5625 10.1875 C3.31056885 9.48391357 3.0586377 8.78032715 2.79907227 8.05541992 C1.8418059 5.37745862 0.89935577 2.6980673 0 0 Z " fill="#727274" transform="translate(471,435)"/>
</svg>
